/* XPM */
static char *c7348be5b54d4b20d9259c3417d4b905bgd0saLCtBCIyo93[] = {
/* columns rows colors chars-per-pixel */
"64 64 19 1 ",
"  c None",
". c black",
"X c #222034",
"o c #323C39",
"O c #45283C",
"+ c #663931",
"@ c #524B24",
"# c #4B692F",
"$ c #595652",
"% c #AC3232",
"& c #8A6F30",
"* c #6ABE30",
"= c #8F974A",
"- c #D9A066",
"; c #99E550",
": c #847E87",
"> c #9BADB7",
", c #EEC39A",
"< c white",
/* pixels */
"                                                                ",
"                                                                ",
"                               .                                ",
"                             ...                                ",
"                            ..                                  ",
"                             .......                            ",
"                                   .  ...                       ",
"                              ......  .XX..                     ",
"                           ......   ..XXo#=X     ...            ",
"                          .......   .XXo#o==. ...XX.. ....      ",
"                         ..$:...X. .XooXX#==o.XXooo;=.o=;o.     ",
"                         .$:>>$.=X..XoXoXooo#.XoX..o;=XX*;.     ",
"                 ..     ..::<<>..==...Xo..X#=.#X.oo.o=..o*.     ",
"                ....    .$::>>:..X#=XX..Xooo..oXX#.o.o.o.o.     ",
"                .. ......$$::::..XoX....oo==#.#X.#.o.o.oXo.     ",
"                .  .&&@...$$.:$..&&@Xo..o#o#o*.XX=..o...#X      ",
"               O.   .@....$$$$$..XX..#.###o#o;*oX=#...#...      ",
"              .O.     .-..$$$..-X.X.#X.....o##<X.o*...=.        ",
"               .      ..@.....@X.oo oo.Xo#.X#o;..o=o..=#.       ",
"                      ..,,..-&&...o.....O%..Xo##.Xo*..#*.       ",
"                   ...X.,X.,XX...O....XoO.XX#=XX#.X#=.o##.      ",
"          ..       .&&XX&-.-,..&-&OX&@oX#oX#=*;=XXXo;XXo;.      ",
"         ....      ...-X@-.&@.X&OO-...XX.XXo...=<..#=<.X=<.     ",
"       ...  ...  .....-X--.&,XX....XOX.......#.==*.oo=oX#<.     ",
"       .O,.  ......XXX&-...-X--OOOOXO-,X@&.;.X.##o=##o=o#=.     ",
"       .%O.   .@.@&.XXX....&XXOOOOXO-,&,&.oo=..o#o#oo=#o=o.     ",
"        ..      ...&OOX--X.&--XXOOXO&..X.Xo....oX.XX##XX;..     ",
"                 ..&XXX,,X.&,,XOOXX,..XX.#=o#.Xo....XXXo=..     ",
"                   .@&,,--.@-,,--&..X....oooX.OO=X..X#oX..      ",
"                  .XXX. ........XX.XOX..XXooX..#=;=o.o#.        ",
"                 .XXXX..@@..@X.....XOO.oXXoXX..o###o.X*.        ",
"                 .@XOOXOXO..OXXXX&&O&&.Xoo..XX..o#*X#==;.       ",
"                  ..&@--OO..O&-&O&XOX..X==oXo.Xo=;=oooX*.       ",
"                    .XXX-O..OOO&-..Xo#X*..X..oX..o=X....        ",
"                     .XO-,..-&XXO.X.X#o;..XX.XXXoo....          ",
"                      .-OO..XO-.XX.oooo=*.XXX.o.XXX#;#.         ",
"                       .&O..X&....X...Xo*#.XX#.XXXX=..          ",
"                       .&&..&.....XX...o=*.Xo=oXXo#*oX.         ",
"                        .-..,...X.XXXoXXo#..X=*X....=X.         ",
"                        .@..&...X..ooXooo#..#o*.o...X.          ",
"                        ...X.X.XO.........  Xo=.o#.#.           ",
"                        X.XX.OXOOX. Xo#o.  .X==.o#.=.           ",
"                       .XXOOXOXOX+O.XXo=.  .=o..X=.=.           ",
"                       .XOOOXXXOOO+.Xo#*. .X=. .X=.=.           ",
"                      .XX+OO+XXOOXO+.X=#. ..=. .X=.o*.          ",
"                     .XX+@OO+OX@OXXO+O#. .X.,.  .*=.o*.         ",
"            .       .XXX+@OOO+X@+XXO@+.X..o.O.  .**.o;.         ",
"           .%..    .OO.O+OOXOOXO@XXXO+++. .o..  .o. Xo.         ",
"            . ..   XOXOO+OOXOOXX+OX.OO++. ....  .#...X.         ",
"              ..  .+.XOOOXXOO..X+-+X.O+-,@..o.  .o...X.         ",
"               ...XOXOO+OOXOO.X&-,,O..-&.-..X.  .o...X.         ",
"   .            .X@X&-&+&@&,@O&..X-O&@....  .X. .o. Xo          ",
"  .,.             ......................     X. .o..o.          ",
"  .O.              ..................X..     o.  ..o.           ",
"  ..  ...         ..OOX.XOX...XXOOO.XXOX    Xo.  ..#.           ",
"   .. . ...       .OOOX.OOOX..XOOOOX.XOO.   X#. ...#.           ",
"   ....  .@.    .XOOXX.OO+OOX..OO++XX.O++O.......X...           ",
"    ..   .@@.  ..OOXX.OO++OOX..OO@+OXXOO++OOX@&. .O#.           ",
"          ..&OOXXXXXXOO++OOOXX.OOO@OXXXXOO&-,.. .%OX*.          ",
"            @&&OOOOOOO+++OOOXXXOOOOOOXXXO&-&.*. ...o*.          ",
"             ..--&&&&@..@,-OOXO&.&,-O@&&...#<.  .Xo=.           ",
"               .......  ..@-&@.. .......   ..    ..*.           ",
"                          ....                     .            ",
"                                                                "
};
