/* XPM */
static char *_ef2039ab291448e94b51e356f4ce029fLWiQByKumJzKVpG[] = {
/* columns rows colors chars-per-pixel */
"64 64 17 1 ",
"  c #342C28",
". c #3C302C",
"X c #403430",
"o c #483C34",
"O c #403C3C",
"+ c #4C4038",
"@ c #4C4848",
"# c #544440",
"$ c #5C4C44",
"% c #64544C",
"& c #6C5C50",
"* c #60585C",
"= c #786458",
"- c #6C6064",
"; c #806C60",
": c #8C7468",
"> c #947C70",
/* pixels */
";;;;;;;;;;;;;;;;;;;;;;;;;;=&%$$%%&++@#@@++@++#@@+@#+@+@@@@+###.o",
":=&***%%%&&&%%%%-%&%&%%-%%-%--$#%&@@@#@@@#+#@+@++#+@+@@+#@@@#@+o",
":&#@@@@@+@@@@@@#@###@@@+###@@#+X%&+#@@##+##@#@+++##++++@#++##@@+",
";&++@@+@@++@@+++++@@+@#+##+@@#+X%&#+@#++#+++#@+++@*@+#+@*@#@@@@#",
";%o@@@++++@@@+#+@@@+@@@++#@@@#+X%&@#@@@@@++#@@@@#@@+++#++@#@@@+o",
":&###@@@##@@++@+@@@@@@+++##@@@+X$&@@@+@@++@@##@@##@@++#@@@+##@+.",
":%#@@@++#@@@+#@@@@#@@+++++@@#@+X%&+#@+@#+++@@#@@@@#++@##@@+##@+X",
":%+#+@++@@@@@@#@@@#@@++@@@+o@@+X&%+#+##++@++++#+@++@@++@@@++@@+.",
":%#+@@@@++@#@@@@@@#@@@+#+++@@@+X%%+@@++@+#++@###@+@@@@+#+++@@@+.",
"=%@@+*+++#++##+++@@@@@@@#@@@#@+X%%@++++@@@#+@##@@*@@@@@@#@@@#@+.",
"=%#@@@@@@#++#@@+#+@@@@+++@@@+++X%&#+@+@+@#++#@@+#+@@@@+++@@@+++X",
"=%@*@*#@@##+#+#@@@@#@#@@@@@++@+X%&@@@@@#@##+#+#@@@@#@#@@@@@++@+o",
"=%@+*+@##++@@#+++++@#+@@@@@#+++X%&#@*@#@#++@@#+++++@#+@@@@@@+@+o",
"=%@@+@@@@#OOO@##@*###+#@@@O@++OX%&@@@@@@@+@#@#++@@+##@*###OO+@+.",
"&$++*++O+XX+oXX++++#++++++o+XXXX&$++++++O++++XXXooXX++++++XXXX..",
"&+XXXX.XXXXXXXXXXXXXXXXXXXXXXXXX#+X.XX.X.X.XXXX..XX.X...XX...XXX",
"&###$%%$%$%&%%$#$%$$%%%%%%&%%%%%&&&%%;=&&&%;&&;%$%%%%=%>=;;;&=%&",
"&%-%%%*%%%-%%%#@%&%%%%%%$%-&&%%$%*%%&%&&%%**%*%##&%%%%%&%&&%&%%-",
"+#+#+O@+++*@@@X+%#o+@@@@o@+###@o#@#@@+#@@@@+o@@X+%$@+#+@@@##@@#@",
"+####o@@@#@#@+.#%#O+@@@@++@###+o++###++@@+@@+@@X#&$O++*@@@@@@++#",
"@@@@+O@@@@+@o+X#&#O#@@@@@@@####o##@###+++@#+oo+.#&$O#@*@@##+++@#",
"@@@##o#@@#@@+@X#%#@#@+@+@@##@##o@#@@#@+##@#@O@@X+&$@##*@@#@+++@#",
"++@##o@@@##@@@X#%#@#@#@@@#@+@@+++@@+#++#++@@O@@XX%$@#+@@@@#@++@@",
"++@#@O@+@##@@@X#%#o##++@@+@@@###+@++@+#+##@#O@@X#%*@#+@@+@#++@+@",
"++@#@O@@##+#@@X#%#++##+@@++++@@@@@@+++@+@#@@+@@X#%*@+@+@++###@+@",
"++@@+o++#+#+@@X#%#++@++@@+++#@@###@@+++++@@+o@@X#%*@++++#+@+##@@",
"@#@@#o+++++@@@ #%#@@++@#@@@@@@@@@@@+#@@@+@+o+@@X+%$@@@+@@++@#+@+",
"+@@+@++++++@+@X#%#++++@@++++++@##+@++@@@@@@+@@@X+&$+@@@@+++#++++",
"+@++@+++@++@@@X#%###+#+@+++#+@+@+@@@@@++@#@@@@#X+=$##@@++++##@@@",
"@@@+@+++++#+@@X#%#@@+#@@@++++++@@+#+++@+++@++@@X#&%@@@@@@@##@@@@",
"@#@@@@@+@@@@@@X#&$@#+#+@@+++#+#@@@@@@@@+++@+@@@X+&%@#@#@@@@@@@++",
"@@+##+++++@+@OX#=$#+##+@@++@@@@++++++@@++@@@@@@X#&%#+@@++++++@#@",
"@@##@@@+@+++@@X+&$+@###+@@@@#@#+++#+@+++##@@+@@X+&%+@+@++++++@#@",
"+@+#+@@@@#++@#X#&#@++@++#+@+@@@@++++++#@@+@@+@@X+&%@+@@@++@++@@+",
"+@+++@@@+@@@+@X#&#+#@+@+##++++@++++#+#++@+#@+@@X+=%+#+@@++++@+@+",
"@#++@@@@@@@@@@X+&#@######@@+@+++++@@@@@@++@#+@@X+&%@#+@@++@@@@+@",
"+++@+@@@*###@#X#&##@##@+#+@@@#+++@@#@###@##@#@#X+&%#@#+@@@@#@@+@",
"##+@@##@@@#@#@X#&$@##+#+++@@+@@@@@@#@+##+#@@##@X+=%@##+@+@++@#@@",
"++@@@@@+++#++@X#&#####+++@@@@@@@+#@#++#####+@+@X.=$####+++#+@@@#",
"@#@#@@@+++++@@X#&$@+##++@+@@*$##@+@#+@#+#@#@+@@.#&$@+@#@+@@+@#@#",
"@@#@@@@@++++#+X#&#@@@#+@@+@++++@#+@@@@#@@@@#@#@.+&%++@@@@@++@+@#",
"@+@####@++@+++X+&#@@+@@@@@++@++#+@+@@@#@+@++@@+.#&$+@@@@@++++++@",
"++@####@++++++X+%#@@++++@+@+@++##+++@@+@+@@@+++X+&%@@@@@@@@@@@+@",
"@+@@@##@@@+++#X#&#@+@@+@@+++@@##@@+@+@##+@@@@++X+&%@@@@@@*+@@@@@",
"@@@@+##@@#++@@X#%#@+++@@@@@@#++#+@@@#@##*@@#@@+X#&%@@@@#@@+@+@@#",
"@++@@@++@@#@#@o#$#@+@@@@@++@@@++@@@++@@#@#@+###X#%@OO@@@@++O++@#",
"@XXXXXXXXXXXXX.++XX.XXXXXXXXXXXXXXX..XXXXXX..XXX#$+X..XXX.XX..X+",
"&##+###+###+#++#$#+#+##+######+X+##+#######++###$$$#+#+##+###o+$",
"&&&&&&&%%&%&=&%&&&&&&&&&=&&=&=#+$&&%&&&&&&%%%&&&=&&&&&&&&&&&=&&$",
"&%@@$@#####$#@#$$$####@##$$$##+.%#####+###@#######@###@#$$$#$$$#",
"&%@@@@#O++@+#**###++@@+@@@#@@#oX%$+@o@@+##++++@++o+@+@@+####*#+.",
"&*@++@@O@@#+#***+@@@++@@++++@@+X%$o@@++##@@+@+++++o+++@+@+##*#+.",
"&*@##+@oo@+++@++##+++@@@+@+@O@+X$$o@@+++#+@@@@+++++@@@@++@#@@@+.",
"&%@@#@@@o++++@#@@+###@@++@+@@@+X%$@##@@@@#@@+@@@@+OO@@+++#+@@@+X",
"&$@+++@@@++@++#@@@+#@@@+#@@@@#+.%$@#+#@@@@+++@@@OO+@@++++##@#@Oo",
"&*@#+++@+#+@+@@++++@##@@##@@@@+.&$@++@+++@@@+@@@@@@@@@@@@@@@@@+.",
"=**#++@@@++@@@@++++++##@#@@@#++X%*@+@@@++#@+@@+@+oo@@*+++@+@@#o.",
"=*@#++#@@@+#+@@+++@++@@+@@@@@@+X%$@#@+++@++@##+@@@@#+@@@@#+##@+.",
"=@@@@+@@@@#@+@@++@@@+@@@@@#++#o.%$@#@+##*@@@+#++@@@#++#+#+@@@@+.",
";@@@@@@@@@##@+@@@@#@#+#@@@@@+++X%$@@@#@@@+####@@+@@@@@+##@@#+@O.",
";*@@@*@+@@*++#++@@+@@@###+@++@+X%$@#@@@@@@@@@+@@@@@@+@##@@++++++",
"%%#@@#@@@++@+##+@@+####@@@O@+@+X$%@@@@@@#@@@++#@##@+#+@+++#++++o",
"&%#@@@O@@@@@@+++O@++@@@@#@++++X.%%+@@@##++@@##@++@*@+@####++##+X",
"#+oXXXXXXXXXX....X..XXXXXX......%*++@#@+@++@@@@@@#@++++@#+@+@##@"
};
