/* XPM */
static char *f521959057134edcc8f275a63385583eaMr2IMv5M3S1ylBu[] = {
/* columns rows colors chars-per-pixel */
"128 128 18 1 ",
"  c #342C28",
". c #3C302C",
"X c #403430",
"o c #483C34",
"O c #403C3C",
"+ c #4C4038",
"@ c #4C4848",
"# c #544440",
"$ c #5C4C44",
"% c #64544C",
"& c #6C5C50",
"* c #60585C",
"= c #786458",
"- c #6C6064",
"; c #746C70",
": c #806C60",
"> c #8C7468",
", c #947C70",
/* pixels */
":::>:::::::::::::::::::::::::::::::::::::::::::::::===&%%%$$$%%%%%&%+++@@##+@@@@+@+@@#+@+@#@@@@@+@@@##+@@++@@@@@@#@@+@#@###@.oo.",
">:::::;;;;;=&=&=::::::::======:====:::=======%%%============&%%%&&%%#++@+#@#@@+@#@@@#@#+##@+@+#+@@#+#@#@@+@@#+@+@#+@#@@@##+@Ooo.",
">:=&&%*****%%%%-%&&&&&&&%%%%%%%*-%%&&&%%&&%-%%-%%-%--%%--%-%$##$%&&%@@@@@+#@@+@@@@#@+##@@@++@++++@#@+#@@+@@#@#+##@@@@@@@##@@+Xo.",
">:&%$$##@@#####@#$$$$$$$@@######@$#$$$$$$$####$#$#$$$$#$$##$#++#&&&%@@#++@@@#@@@@@@+@+@@@#@++++++@++@@@++#@+##@@@++@@@+@@@@@+XX.",
">:&$##@@@@@@@@@#++@@@@@@@@@+@@#@@@#+#@#@@+@#@+++###+##@o@*##+XX+%&&%+@##@#@+#@#@+@#+##@@#@@@+++@++#@#@+++@+@+@@@#@+++@#@#@@@@++.",
"::&$@#@@#@@@@@@@#@#@+@@@@+++@++++@#@+#@@+@@@+#+##+###*+o@@##+XX#&&&%@+##@+++++#@+++#+++@#*@+#@++@+@@@@+@@#+##@@#@@#@@@@@@+#@@+#.",
"::&#+#+@@@@++@@#@@+@+@@@@++++++++@++@@@+++@@#++##+##+#@o@@##+XX#%=&%#@+#@@#++++*#@+++++@##@+++++++@#*@@+++#+++@#*@@@#+@#@*@#@+#.",
"::%#+@@#@+++++#@#+@@@@@@@++@+++@++#@#@++++++@@++@@++#@+o@@##+XX#%&&%#@##@#+++##@@#++#@@@@#@+@@++@@@#@@@@@+++++@##@#+#@*#@@@#@++.",
"::%#o#@@@+@@+++++++@@@@@@+++#@++@+@@@@+@@+@+@++#++#@@@@O@+##+XX+%&&%@##@@+@@@@@@@@+@+@#@@#@+@@@+##@+@#+++++###+#++@+#+@@@#@@+Xo.",
"::&####*@@+++++@#@+@@@@+@+@+++++++@#*@@+++@+@+++++@@#+@o@@@#@XX+$&&%###@@++@@++#@@+@++##+#@@@@@#+#++@@+@+++#+##++@@++++@##@@+XX.",
">:&$#####@@@@#@+#+#+@@@++#++@@++@@@#@@@@@@@+++++++#+#@@X@@@#+XX+$&&%@#@#@@++@#@@++++@+@+#@#@@@@@#@#+@+@+++++##@@@@@+++###@@O+X..",
">=&$#@@@@@@@+++#+++@@@@+++@+@@@+@##@@@@@@+@+++++++#@+#@o@#@##XX+$&&$#@##@@#+@@##+++@+@@++#+@##@@@#+##++@+@@+#+#@#+@#++@@@@@O+XX.",
">=%###@#@@@@+#++#+@+@@@+++#@@@@#@@@@#@@@@++@+@+#+@++@+@X##@#+XX+%&&%+##+@++#@###+++++#@+@##@@@@#@#@@#@+@+@@##+##@+@#+##@#@@@+XX.",
">=%####@#@@@+#+@++@@@@@+@+@@@@@@+@@#@@@@@++++@++++#@#@@o#@@@+XX#%=%%##+##@###+##@+@#+++++###+#++@+#+@@#++#@+####@#@@*@@@#@@@+X..",
">=%#+@##+@@@+#++@+@@@@@@@@@@##@@@#@##+@@@++++@@@@@@@+@o@@@@@+XX#&&%$+@#@+@#+##+#++@@+@+++#+##++@@++++@@@@++++@@@@@@@+@+@@@@@+X..",
">=%##@#@#@@@+#+#@@++@@@@*@#@@#@@@#@#@#@@@+@+@+@+@#@+@@@o@+@@+XX#%&%%#@#+#@##++#@#+@+@+++++##@@@@@+++##@@@+@+@+@+@#@+@@@@@@@@+X..",
">=%###+#@#@@@@@@+++@@###@@@@@@@@@+@+#@@@@@@@+@#++++++@@O@@@@+XX#%&%%+#@@@#+++@@#+##++@+@@+#+#@#+@#++@@@@@@@@+@#++++++@@@@@@@+X..",
":=%##+@+#@@@@*@+++++@#@+@**@++++##@@+#@@@@*@+++++@@@+@@@@##++XX#%&&%#+++#@+++@@#@@#@+@+@@##+##@+@#+##@@@@@*@+++++@@@+@@@@#@@+X..",
"==%#@@@@+@*@+@+@+@#@+@+@#@##+#+++#@@@+@*@+@+@+@@#@@+@#@@#@@@+XX#%&%%@@+@+@++++@#@@@@#++#@+####@#@@*@@@@*@+@+@+@@#@@+@#@@#@@@+X..",
"==%#+++@##@+@@@++@++@+@+#@@#@+@+@@@+@##@+@@@@+#++#++++#@#@@@+XX+%&&%+++@##+@+@@++@++@+@+#@@#@+@+@@@+@##@+@@@@+#++#++++#@#@@@+X..",
"==%##+@@@@@@@@@+@+#++#+@#@@@@@++#@+@@@@@@@@@+@+#++@+@+@++#+@+XX#%=&%#+++@@++@++#@+#++#+@#@@@@@++#@+@@@@@@@@@+@+#++@+@+@++#+@+XX.",
"==%#@@@@*@+@+@@@@@@*@@#@####+@#++#@@@@#@##+#@@+@@@@@@@@@@#@@+XX#%&&%#@@@*@#@++@@@@@*@@#@####+@#++#@@@@#@##+#@@+@@@@@@@@@@#@@+X..",
"==%#@@*@@@*+#+@#@##+#@+@##+##@@+@+@#@@#@@+#+@+@@@@@@@++++@@@+XX#%&&%@@@+@@@@@##@@##+#@+@##+##@@+@+@#@@#@@+#+@+@@@@@@@++++@@@+Xo.",
"==%#@@@@@@++@@*#@@++#@+#@#+#+@@+@++##+#@####@@@@@@@@#@+#+#@@+XX#%=%%@@@+@@+++#@@@@++#@+#@#+#+@@+@++##+#@####@@@@@@@@#@+#+#@@+X+.",
"==%#@@+***+@@@#+##+++@@@@@##+++++@+@+#@###+#@@@@@+@@@@#++#+@+XX#%&&%#@@+*#@+#+@@##+++@@@@@##+++++@+@+#@###+#@@@@@+@@@@@++@@@+Xo.",
"==%#@@@@+++@@#@@@++++@@@+@###+++@+@@++#+#+#@#@@@@@@@@#@#+++@@XX#%&&%#@@+@@#@@#@#@++++@@++####+++@+@@++#+#+#@#@@@@@@@O@@@+@@@+XX.",
"==%@@@@+++@@@#@@@+#+OOOOO@@#####@@*@#####@+###@@@@@@O@@@+#+@OXX#%=&%@@@+@@@+@@@@@@++@@#@@##++++@@@@++#####@@*@###@#@OOOO++@@+X..",
"&=*@@@@@+#@@@@@@+++++OOO+O+++@@@@@#@@###@@@@@@@+@@@OOOO+++++XXX#&&%$@@++@@@@O@@@@@@@@@@@@++++++OO@@++++@@@@@@@@###@O++++++++X...",
"&&$@+++@*@+++OO++XXXX+++oXXXX+++++++++#@++++++++++++oo+oXXXXX.X#&%$#+++++++O+++OO@+++++++XXXXXXXoooXXXX++++++++++++oXXXXXXXX....",
"&%#oXXXoXXXXXXXXX...XXXXX...XXXXXXXXXXX.XXXXXXXXXXXXXXXXX.....X+##+XXXXXXXXXXXXXXXXXXXXXX.........X....XXXXXXXXXXXXX............",
"&%+XXXXXXXXX.XX.XXXXXXXXXXXXXXXXXXXXXXXXXXXXXXXXXXXXXXXXXXXXXXX+##+XXX..XXXX..XX..X..XXXXXXXX.....XXXX.XXX......XXX.......X.XXX.",
"&%X+++++++++++++++++#$##++##++++++++++++++#########$##+########$%%$#$#######.###+++++########..o++########+.+#.######++###+++#+ ",
"&%######$$%$%$$$%%$%%&&%%%%%$###$%%%$$$$%%%%%%%%%%%&&%%%%%%%%%%&&&&&&&%&%&::=&&&&%&&%&::&&&&::%#$%%&%&%%%&=%%&,:=::::&::&>=&%%&%",
"&&%%%%%%%&&%&&&&&&&&===&&&&%%##$=&==&%%&&&&&&&&&%%&&==&&=&&%%%%&&&&&==&&&&=====&%%%&%%%&%%&&&&%#$&&&&&&&&=:&&=:=============&&=%",
"&&%%-%%-%%%%*%%%%%%&-%%%%%%$#O@$%%&&%%%-%-%%%%%%$*%%--&&&&%%%%$%%-*%%-%&&%%&&%&%%%%%*-*%%-**%$#+#%&&%%%%%%%%%&&-%%&%&-%%&&%-%%-%",
"@#$###$###@+#@##$#$$#####@@+XX+#$$$$$#$$####$###+@@##$$$$#$#####$@#@$#$$$$#$$#$$$$@#@@@#$##@##+X+$%%%$@######$#@@$$$**$$**@@##*#",
"++#+++##+oOo@++@+++@*@@o@@@oXX+%%$#+o#+@@#@#@@@@oO@@++###@#+@+o###@@##@@@#+###@#@@@@@@++oo@@@+XX+$%%$#@@+###+@@@@@@+###@@@@@##@@",
"++++++++*oOo@@@@+@@#+*@+@@+o..#&%$#+O@@@+@#+@@@@@o@@@@+####@#+o#@#@@@@@#@@#+++@@@@#@@@O+o+@@@+XX#%&%$@O@@++##@@@@@@@@+@@++@@@+*@",
"+##@#+#+#@o@@@@@@@#@@@#+@@+X.X#%%$#OO#+#@+@@@@@o+o+@@@###+#++#o++#+##@#@#@+#++@+@@+@@@@+++@@@oXX#%&%$@OO+#+#*@@@@@@#@@@#@@+#++#@",
"@@@##@@##@o@@@@#@@@@#@@+o@+XXX#&&$+oo@#@##+#+@+@@@+@@@#####+##o+#####@##+@+@++++@@@@@@@+o++@+X.X#%&%$@O@#@##*@@@#@@@@@++@++#@##@",
"@@@@@@@@+@O@@@@@@#@#+@@+o+++XX#&&$#+O@#+@#@@@@@@@@@@@+#@#+#+##o##+#@@@#@#@#++++++@@@#@++o+o@+X.X#%&%$@O@#@@+*@@@@@#@#@+++++@@##+",
"@@+#@+#+++O#@@@#+#+#@@#+@@@+XX#%%*#o+@###+##@@@@+@@+@#+#$@#++@+++#@+@@+#@@@++##+@@@+#@++++@@@oX.#&&%$@+@##++#@@@#+#+#++++++#+#@#",
"@+@#@+###@o@#@@@@##@@@@++@@+XX#%%$#O@@#+@@+@@@+@@+@@#@#@@@#+#+o#@##@@@@+#+@++#####@@##@+O+@@@+X.+&&%$@@@####*#@@@@##@++++++#@+#@",
"+++@@###++X##@#@@@@@#@@o@#@+XX#%%$#@o##@##+##@@@@@+@@@##@#@++++@@##+@@@@++@@####@#@@@@@o+o@@@+X..$%%$@o@###+##@#@@@@@+@+@+@++@@@",
"+++@@+#+#@o@@@@@@@####@+@#@+X.#%%$#+@##@@@#@@@@@@@#@@@++@+@++++#+#@#@@+@#@+++@#@+@+@@@@oO+@@@+X.X#%%$#@###+#@@@@@@@##+@++++@@@@+",
"@@+@@+##@@o@#@@@@#@##@@O@@@+XX+%%$@@+###@##@@@+@@@@@@#@@@@+++++#@+#@@+@@@+@+@#+#@@@#@@+oo+O@@+X.+$%%*@@####@@#@@@@#@#+@@@@@@@+@+",
"+@+@@##+@@O@@@++@@####@+@@@+XX#&%$#@o+#+##+#+@@@@@+@@#@@@+#+#+#++@@@+++@@@++##+##+#@@@#+O+@@@+XX#$%%*@@+##+@@@@++@@##@+@+@@@+@@@",
"@@@@@#@#@@X@+@#@+++###++##@+XX#%%$@@@+++@@@@@@@+@@@@@#+@@#+++++#@#@++++++@#++@@++#@+@@o+++@#@+XX#%%%*@@++@#@@+@#@+++#+@@++++@+#@",
"+++#@+#@@+Oo@@@+#+##+##+@@@oXX#%%%#@++++#+#@+@@@@@+#+@++++@@@@@@@@@+@@+@+@++@++#@##@@@@o++@@@oXX#%%%*@@++#@@+@@@+#+##+###@@@+@@+",
"++#++@@@++oo+@@#++##+##+#@@oXX#%%*#@+++@+##@@@+@@@@@@++++++@@@#@#*@@+++@+@+++++@@##+@@@+@+#@@oXX#%%**@@++@@+++@@#++##+##+#*@@+++",
"+++#@#@+++o++++##++@#+++@#@oXX#%%*#@++++@#+@++@@@++@+++##+@@@+#@###@@@@@+++++++#+#@#@@+oo+@@@+XX#%%-*@@++@++++++##++@#++####@@@@",
"##+@@@@+@@o@+@+@++#++#@+#+@+XX#%%*#@@##+@@@@@@+@@@@@#++#####@@##@@@@@@+@+++++++#@+#@@+@+@+#+@+XX#&&**#@##@+@@+@+@++#++#@#@@@@@@+",
"@##@@@@##+o++@+@+++++@@+@@@+ X#%%$#+@+@#+++#@+#@@+@@@@@@@@@+@@@@@#@@@@++#+@+@+@++@@@++o@++@#@oXX+%%%$#@+@@@+++@+@+++++@@#@++@++#",
"@##+@@@@@@@@@@+++++++#++#@@oXX#%%$#@@##@#+#++@@@+++@@@+@+#+@@##@#@#@@@++++@++++@@@@++++O@+#@@oXX+%%%$#@###@@@@@+++++++#+#@+++++@",
"+#@#@@+#@@+@+@+++++++#@@+#@oXX#&%$#++++@+++#@#@++++++++@++++@##@##+@@@++++@@@@@@@+@+@@+@@@@@@oXX+%&%$#++@@@@@+@+++++++#@+++++++#",
"@+#@@+@#@@+@++#+@+#+#++@@+@+XX#%%$#@#@#@@@#@@+@+@@+@++++++++@@@@#@#@@@+@+@+@+@@@+@@@+@+@@@@+@+XX+%&%$##@@@@@@++#+@+#+#++@++++++#",
"+@@@+++@@@+@++++@++++#@+@#@+X.#%%$#+###@+###+@@@+++@++#+++@+++@@+#@@@@@@@+@@++++@+#@@@@@@+@##+XX+&=%$##@##@@@++++@++++#@#+@+@+@+",
"@@@++++@@@+@++++@@@@#@@@@@@+XX#%%$#@@#@#++++++@@@@@@+++#@++@+@@@@+#@@@@@@+++++@#@+@@@@+@+@@@@+XX#=&%$#@@@+@@@++++@@@@#@@++@++++@",
"@+@+@@+@@@+@+@+@+@+###++@@@+XX#%%%##@@@@++##@+@@@@+@+#++++++++@@@@+@#@+@+@+@@@+#+#+@@@++++@@@+XX#&&&%#@@@#@@@+@+@+@+###+@+@@@@@@",
"+@@@+@+@@@@@@@@+@#+++++++@@+XX#%&%#@@@@@##+#+#+@@@++#++@@++@@#@@+@##@+@@#++@++@+++@@@@+++++@@+XX+%&&%#@@@@#@@@@@+@#++++++@+@+@@@",
"@+#@@@@@@#@#@@+@@@@@@@@+@+@+XX#%&%$#@@#+++#+++@@@@+++@+@#@+@#@@+@@@@@@@@@+@+@++#+@+@@@+@@+@@@+XX+$&&%#@@##@+#@@+@@@@@@@@@+@@++++",
"@###+#++@@@@@+++@@@+@+#@@@@+XX#&&%$+@@@+#++#+@+@@@+++##@@@#@@@+++@@@+@+#+@@@@+#++@@@@@++++@@@+XX#%&%%+@@@++@@@+++@@@++@++#@##@@@",
"@@@+++#@#@+@++++++++@++@@@O+XX#%=%$##@+@#+#++@@@@@+@+@@@@@@+@++++++++@++++@@@++@+#@@@@@@@@@@@+XX#%&&%##@+#@#@++++++@+++++@@##+@@",
"+#@@@#@@+@+@+@@+@++++++@@@O+XX#%&*$+++@*#++@+#@#@@@@@#@#*@#@#+@@+@++++++++@@@+@@@++@@@@@@+@@@+XX#%&&%+++@@@+@+@@+@+++++++#+#@#@@",
"@#@+###+@@@@@+++@++#+++@@@@+XX+%&%$#++@@#+#@#++@@@@*@$@###@@#@+++@++#+++@++@+@+@#@##@#@#+@@@@+XX+%&&%#++@#+@@@+++@+++++++#@+#@@+",
"+@@++++++@@@@@@@@+++#@+@@@@+XX+%&*#@@@@@@@@+++#####@@##@@@@@+@@@@@+++#@++@++@@#+@@@@@@@+++@@@+XX+%&&%#@@@+++@@@@@@++@+@+@++@@@++",
"+@@++##@+@@@@@@+@+#+++++@@#+XX#%&%#@@#+#+@@#++++#@+#@@+@@@@@@@@@+@+@++++++++#@@@@++@@+@++@@@@+XX+%&&%#@#+#@+@@@@+@++@++++@@@@+++",
"+@@##+#+#+@+@@@++@++@@++++@@XX#%&%#+@##@++@#@#+#++@@@+++@@@+@+#+@@#++@@++@@###@@+++#++@+@@@@@+XX+%&&%#@###+#+@@@++@+@@@@@@@+@+@@",
"+@@++#+++@@@@@@+++@+@#@@+@@+XX#%&%#@+###@@+@@+++#@#@++++++++@++++@+@+@#@+@#@+@+@@@+@#+@++@@@@+XX+%=&%#+##+++@@@@+++@+@+@@@+@@@+@",
"@@@#++#+@+@+@@@+++##@@@+@@@+XX+%&%#+#+#@##+@@@@#@@+@+@@+@++++++++@+##@@@#@@###++@@#@#@@++@@@@+XX+%=&%#@+##+@+@@@++++@@++++@+#@@@",
"@+##+@++@@@@@@@+@+@@@@@@@@@+XX+%&%#@@##+#+###+###+@@@+++@++#+++@+++@@@@@@+@#@@@@+@+@@@#++@@@@+X.+%&-%#@##++@@@@@+@+@@@@@@@@+++@#",
"@@##++@+#@@@@@@@@@@@#*@@#@@+XX+%&%$@##@#@@#@@++++++@@@@@@+++#@++@+@#@#*@#@##@+@@@+##@++@+@@@@+XX+%&&%###@@+#@@@@@@@@@#*@#++@#@+#",
"+@+#+#@#++@+@@@@*@#@###@@##+XX#%&%####@####@@++##@+@@@@+@+#+++++++@$@###@@######@##@#@@@#@@##+XX+%&&%$##@@#++@@@@*@#@###@#@#++@@",
"+++@@@+++@#@#@@@@@@#@@@+@##+XX#%&%$@#@##@@#@###+#+#+@@@++#++@@++@@@##@@@@@++###+##@#@@@@@+@##+XX+%=&%@#@#+++@#@@@@@@#@@@@@@@#@#@",
"#+#+++@#@+#+#@@+@@@+#+@@#@@+XX#%&%$#@#####++#++#+++@@@@+++@+@#@+@#@@@@#@@@+##+##+##@@+@@#@#@@+XX+&=&%#@##@#@+#@@+@@@+#+@@@##@@@@",
"@@++#@#++@@@@@+++@@#++@@#+@+XX#%&%$+##+###+###++#+@+@@@+++##@@@#@@##@#@#@@@+$#+####@@@@#@@#+@OX.+&=&$###+#++@@@+++@@#++@#@##@@#@",
"+@++@@@#@#@#@++++++##++@+@@+XX#%&%###+#+#+##+#+#++@@@@@+@+@@@@@@+@##@##++++####+#@#@#@+@@@+@@+X..&=%$####@#@#@++++++##++@#@@@@##",
"#+@#@##@@@@@@+@@+@+@++@##+@+XX#%&%$+@#@#+###+#++@+#@#@@@@@#@#*@#@#@@@#@#++@@+###+#@@#@@@@##+@+XX+%=%$#@#@#@@@@+@@+@+@++@+@@@@@@@",
"@@#@@##@@#@#@@+++@+@+++#@@@+XX#%&%$#@#+@#+#++#+#@#++@@@@*@$@###@@#+@@+#@++@###+##+@+#+@#+#@#@#.X#%&&$#@#+#@@#@@+++@+@+++@@#@@@#@",
"+@@@#@@@@####@@@@@@+#+++#@@+XX#%&$#+#@@@#@@@@@@@+++#####@@##@@@@@+@@@@+#@++#+##+##+++#+#@+#@@+.X#%&&$##@@@@@##@@@@@@+#+++@##@#@#",
"@@@##@@@@@@@@@@@+@+++++@##++XX#%&%##@@@@@@##+@@@@@+@@@+++@++++@@##+@@@@+@#@###@@@@@@@@##@@#@@+..+%&&%#+++@@@@@@@@+@++@++@++#@##@",
"@@@@@#@@@#@#@@@@++#+@+#+@+++XX#%&%#@@@@+#@@+++#@@@@@@+@@+@++++#+#@#@@+@#@@@##++#@+++#+@@#+@@+oXX+%&&$#@+@@@@#@@@@++#+@+++++@@##+",
"@@+#@##@#@#@#@@@++++@++++#++XX+$&%#+@+@@+@@@@@@@@@@@++++@@++++#@+#@@+@@@@@@###@@++@++@++@+@@+X.X#%&&$#++@#@#@#@@@++++++++++#+#@#",
"@+@#@#@@##+#+@@@++++@@@++@++XX.#%%#@++++++@@+#@@#+@++#++@@+#+#++@@@+++@@@+@@+@#+#++++++++++@+XXX#%&&%#+++@@##+@@@++++++++++#@+#@",
"+++@@+#@#@#@#@@@+@+@+@+#++++XX+$%%#@@@@@+++@+@+#@@+@@@+@@#++++#@#@++++++@#@#+#@@+#@#@@@@+#+++oXX+%&&%@@@@@@@@#@@@+@+@+@+@+@++@@@",
"+++@@@+@+#@#@#@@@@@+@#+@++++XX+%%%#@@@+++++@+@++@@@@@+@#@#@@@#@@+@+@@+@+@+#@##@@@##@@@@@#@++++XX+$&&%@@@@@@@#@#@@@@@++@++++@@@@+",
"@@+@@@@@@+#+#@@@@*@++++@++#+XX#&&%#@@@++@+@+++@@@@+++++@@@@+###+@@@+++@++@@@#@#@+#@@@@@@@@++++XX+$&%%#@@@@@@@#@@@@*@++@@@@@@@+@+",
"+@+@@+@@@@+@+@*@+@+@+@#@++++XX#%&%#@@@+@@+@@@@@@@++++@@@#@#++++++@@@@@@+@@#@#+#@@+@@@@##@@++++XX+%&&%#@@@@@@@+@*@+@+@@+@+@@@+@@@",
"@@@@@@@@+@#@##@+@@#++@+@@#@+XX#%%%#@@@+@++++@@@+@@@+@@@##@+++##@+@@@@@@+##@@####*#@@@@##@@@#++XX#%&%%#@O@@@@@##@@@@#+@@@++@+@+#@",
"@#@+#+#+@@@++####@@@*@###+@+XX#%%%#@@@@@@@@@@@@@@#@+++@@##@@#+#+@@@@@@+###@@@@#@###@@@@#####@+XX#%&%*@OO@@@@@@@@@@#+@O@@@++@###+",
"@@++++@@@@@++++#@@@@#@@###@+oX##$##@@+++@@@@@@@@@@+@+#@@@@@@+#++@@@@@++++@@@@@#@@##@@+++#####+XX#%%%@@OOO@@@@@@@@@+++OO@++++@@#+",
"@+++++++++++++#+++++++++++oXXX+###+ooXXX+++++++oo+@#@++++@O+++++++++++XXXo++++++++++oXXX+++++oXX#%%$@+oXoo+o++++++XXooooXXX+#+#+",
"@+XXXXXXXXX.XXXXXXXXXXXXXXX..X+++XXXX...XXX.XXXXXXXXXXXXXXXXXXXXXXXXXX...XXXXXXXXXXXX....XXXXXXX#%$#+.X....XXXXXXX..XXX.....XX++",
"@#XXX.XXXXXXXXX.XXXXXX.XXX..XX+++XXX.XXXXXXXXXXXX.XXXXXXXXXXXXXXXXXXXXXXXXXXXXXXXXXXXXX.XXXXXXX+#$$#XXXXX...XX..XXXXXXXX.XX..X++",
"&%###+++###+#+++#####+++##+++##$$##++###+##$##+######+######++X++#####++###+##########+X++######$$$$$###++#++#####++######o++#$#",
"&&%%%&&%%%&%&%$$%%%%%%%%%&&%%%%&&%%%%%%%%%%==&%&&&%%&&%%%%%%#@+##$%%%%$$%%&%%%%%&%%%%$###$%&%%%&&&%&:&%%%%%&%%%%%%%%%&&&&&%%%%%#",
"&=&&&&&&&&&&&&%%%&&&%&&&=&&&%%&&&&&&&&&&&&&&&&&&=&&&&==&&&=%#@+#$%&&&&%%&&&&&&&&&&&&%%%%%%&&&&&&=&&&&&&&&&&&&&&&&&&&&&&&=&&&&%$#",
"&=&%%*%%%-*%%%%%%%%%%%%%%*%%*%%%%%%&%%%%%%%%%%%%%%%%%%&&%$$@@o+#%%%---%%%*%%%*-%%%%%%%%%%%%%%%%%**%%*%%%%%%%%%*-%%%&&%%-&%%%%$#.",
"&=%$@#@@$#@@##########$@##@+#@$#$#$$########@##$#$$$$#$$#@#@+X.#%$#####$###@+#######@##$#@#######$##@@#####$@###$$$$$$#$$$$$$##.",
"&=%@@@@@++@@@@++o+o+++++#+@**##**@#+++#@+#@@+@@@@@@@@@+@O#@@oXX#$$$#+o#+Ooo+o#+#+@@@@+++@@@@@+#+@@o+@@@@@+@@@@++######*#@@##@X..",
"&=%#@@@@@@@@#oO++++o@+++#****##*####+#++@@@+++@@@+@+#+@@@+#@oXX#%%$#+O@@o@@+@+++#@#@++++++++@++++@oo+@@@+@@@@#+######*#@*@##+X..",
"&=$@@@+++@@@#@+@++++@##@++**@###*##+++#@#@++++++++@++++@O@+@+XX#%%$#OO#+@@o++@@#@@+@+@@+@++++++++@ooo+@+++@@#++##@##+#*#@###+X..",
"&=*@@@+++@@@@#Oo@o@+#++*#**@*@*#++@@@#@@+@+@@+@++++++++@@@@@+.X#%%$+oo@#@+++++#@#+@@@+++@++@+++@+++OoO++++++@@++@@++#*#@*@##+X..",
"&;*@@++++#@+#@@o@@@@@@@@@+@*##*##+#+###+@@@+++@++@+++@+oO#+@+XX+$%$#+O@#@+@@+++++++@@@@@@+++#@+++++++++@@@@+@++#++#@@@@@@+##+X..",
"&;*#@+#+#++@@@ooo@@@+@+#+@@++#+####++++++@@@@@@+++@@++@+O@@@+XX+$%$#o+@#@@+++++@#@+@@@@+@+@++++++++++O@@@@@+@+++++@@#+@#@*@#+X..",
"&:%#@++++#@#@+ooo++o+@++++@+*+#+###++##@+@@@@+@+#+++++++o#@@+XX#$%$#O@@##@@@@#@+#+#+@@@++#++@@++@O+oO@O@@@@+++++++#+#@*#@@@@+Xo.",
"&:%#@@@@#@@+@+@@o@++++++++@##+@@@@+##+#+#+@@@++@++@@++@@@@@@+XX#%%$#@o###@@@@@@@@@#*@@@+++@+@@@+@O++OOO@@+@+++++++#@+#@#@#@@+XX.",
"&:%#@@+###+@@@o+o@++#+++@++#@#@@+@#++#+++@@@@+++@+@@@+@#@@@@+XX#%%$#+@##++@@@@@@#@###@@+++#@@@@@OOO++@@@@++@+@+#+@++@+@###@@+XX.",
"&&$@@@++++++@@@@@@+++#@++@++#@@+@@@#++#+@+@@@+++#@@@@#@#@@#@+X.#%%$#@+##+@#@@@@@@#@#+#+#++@@@@@@OOO++O@@@++++@++++#@#@@+#@@@OXo.",
"&&$@@@++##@+@@@@+@+#+++++++@@@+++@@#+#++@@@@@+@+@@@@@@+@@@@@+XX#&%$#@o+#@+#@@+@@@+@@+@++#@@@##@@@@O++o@@@++++@@@@@@@+@+@@@**OXo.",
"&&*@@@##+#+#+@@@++#++@@++@@#@++++++#++@+#@#@@@@@#@#@@#@#@@@@+X.#&&$#@@+++@@@+++@++@+@+@@+@@@@#@@@#@+@o@@@+@+@+@+@#@+@@@@@+@@+X..",
"=&*@@@++#+++@@@@+++@+@#@+@#@@+@@+@+#+#@#++@@@@*@$@###@@##+++@XX#&&$#@+++@#@++++++##++++++@#@#@@@@+@++@@@@@@@+@#++++++@@@@@@@+X..",
"=%*#*@#++#+@@#@@@+++++@#@+@@@@+@+@+++++++#####@@##@@@@@+#@+++XX#%%*#@+++@@@+@@+@++#@@+++@@@++#@#+#oooo@@@@*@+++++@@@+@@@@##+oX..",
"=%*####+#++@@###@@@@#@+#+#+@@@++#++@@++++#+#@@@@##@@#+@++@@++XX#%%*#@+++@@@#@+#@+#+@@@+@@#+@#+@@+@+o+++#@@@@@@@@@#*@@#@@#@@++X..",
"=%*@@@#++@+##@@@@@@+++#+++@@@@+++@+@@@+++#@+@@+@@@@@@@@@@@@@+XX#%%$#@@##@@+++#+@@@+#+@@##+#+++@#@+@+@+#++@@@@*@#@###++#@#@@@+X..",
"=%*@@@#+#@#+@@#@@@@+#++#+@+@@@+++#@@@@#+#++@@+@@@@@@@++++@+@+XX#&%$#@@+@@@#@##@###@+@#@+##++#@@@@##@@#++@+#+@@##+#@@@+@++#@@+Xo.",
"=-@@@@@@@+++@#@#@@@+#+@++@@@@@+@+@@@@@@++#@#@@@@@@@@#@+#+@#+oX..%%$#@@##@@+##+#@*#@#@+@#+###+@++@@@@@@#@+@+@#@+##++@@@@@@@@@+X..",
"=&@@@+@@@+++@##+@@@+#++@+@@@@@@@@@@##@@@#@@+@@@@@+@@@@#++@+@+X.#%%$#++++@@+@@@@@@@#@#+#####@@@@++@@@@@@@@@#@+@#+##@@@#*@+@@@+XX.",
":&@@@#@@@+@+@#@#@@@+#+#@@++@@@@*@#@@#@@###+@#@@@@@@@@#@#+@+#+XX#%%$#@#@#@+#@@@@@@@++###+#+#@@@@+++@@@*@#@#@#+#####@#@###+@@@OX..",
":&*@@@#@@@@@@+#@#@@@@@@++#@##@@@+@@@@@@#@@@@+++++#@+#@@+@++@@XX#%%$#+###@#++@@@@*@#@#####@#@@*+++@@*@@@@#++###+#+#@@#@@@+#@@OXo.",
":&*@@#@@@@*@@@+#@@@@*@++++##+#+@@@@@+@@#@@@+#+#+#++@@@++++@#+XX#%%$#@@#@@@@@@@@@@#@@@@@+@@+@@@@+@@@@@@@@+#@#####@#@@+#+@+@+@+X+.",
"%=%#@@@*@+@+@@@+@@@+@+@+@+@@@@@@@+@@@@@#+@@#@++++#@#@+@+++@@+XX#$%*##@@@+@@@@*@#@##+@@#++++@@#++@@@#@+@@#@@@@@+@@+@@#++@+#@+@X+.",
"%&%$#@@@@@#@@#@#@++++@@++####+++@+@@++#+#+#@#@@@@@@@O@@@+@@@+XX+$%%$@@@@@#@@@@@@#@@@@@@@+++@#@@##+#@@+++##+@@#++++++##+++#+@+Xo.",
"%=&%#@@+@@@+@@@@@@++@@#@@##++++@@@@++#####@@*@###@#@OOOO++@@+X.+$%%$#@@#+#@@+@@@+#+@@#+#@#+#@#+#+#@##+@+@@@@@@@+++@+@++@+@+@@XX.",
"&&%$#@@@@@@OO@@@@@@@@@@@@++++++OO@@++++@@@@@@@@###@O++++++++X..+%%%$+@@@@+@##@##+++@@@@+#@#*@#++++@#*@@@++@@#+#@#+##++++####+XX.",
"&%##+++++++++++OO@+++++++XXXXXXXoooXXXX++++++++++++oXXXXXXXX...o$%%$##@+#@#@@@#@#+++@+@@+##@@#@+@@@#@+@@#+@@@@+#@##@#++@@####Xo.",
"##+XoXXXXXXXXXXXXXXXXXXXX.........X....XXXXXXXXXXXXX...........+%&*$+++@@@#+@@+#@++++@@@@@@+@@@@@+#+@++++++@+@@+##+#@++@@$#+#o@.",
"##+XXX..XXXX..XX..X..XXXXXXXX.....XXXX.XXX......XXX.......X.XXX.%%%%#++@@@+@@@@+#@++@@@@@@#@@+@@@@@@++++++++@@@@@@@+#@++++++++@."
};
