/* XPM */
static char *_97333d4069a4862e6f3f206f4407c64RxXU2gjPK1S80XGs[] = {
/* columns rows colors chars-per-pixel */
"64 64 107 2 ",
"   c black",
".  c #040400",
"X  c #040404",
"o  c #080804",
"O  c #0C0C08",
"+  c #180400",
"@  c #100C08",
"#  c #18140C",
"$  c #040810",
"%  c #0C0C18",
"&  c #100C10",
"*  c #141010",
"=  c #1C1414",
"-  c #181818",
";  c #280400",
":  c #340804",
">  c #201008",
",  c #341C00",
"<  c #201C18",
"1  c #301C10",
"2  c #202010",
"3  c #282818",
"4  c #30301C",
"5  c #101420",
"6  c #14182C",
"7  c #242020",
"8  c #2C282C",
"9  c #302420",
"0  c #342C28",
"q  c #3C3824",
"w  c #3C302C",
"e  c #383434",
"r  c #440C04",
"t  c #541004",
"y  c #701808",
"u  c #442800",
"i  c #4C2C18",
"p  c #403430",
"a  c #483C34",
"s  c #403C3C",
"d  c #603420",
"f  c #683C24",
"g  c #444028",
"h  c #4C4C2C",
"j  c #4C4038",
"k  c #545434",
"l  c #704028",
"z  c #78442C",
"x  c #605C38",
"c  c #4C4848",
"v  c #544440",
"b  c #5C4C44",
"n  c #585050",
"m  c #64544C",
"M  c #6C5C50",
"N  c #60585C",
"B  c #686440",
"V  c #706C44",
"C  c #787448",
"Z  c #786458",
"A  c #6C6064",
"S  c #746C70",
"D  c #8C200C",
"F  c #844C30",
"G  c #905C3C",
"H  c #A06C48",
"J  c #AC7C58",
"K  c #806C60",
"L  c #8C7468",
"P  c #807478",
"I  c #947C70",
"U  c #848050",
"Y  c #8C8854",
"T  c #949454",
"R  c #989C58",
"E  c #9CA45C",
"W  c #9C8478",
"Q  c #B08460",
"!  c #A88C7C",
"~  c #A0AC60",
"^  c #A4B060",
"/  c #A8B864",
"(  c #ACC068",
")  c #ACC868",
"_  c #ACD06C",
"`  c #B0D86C",
"'  c #B0DC70",
"]  c #887C80",
"[  c #94888C",
"{  c #988C90",
"}  c #AC9484",
"|  c #B49C8C",
" . c #A09498",
".. c #A89CA0",
"X. c #ACA4A8",
"o. c #B0ACAC",
"O. c #B8B0B4",
"+. c #C0A494",
"@. c #C8AC9C",
"#. c #C0B8B8",
"$. c #C8BCC0",
"%. c #CCC4C8",
"&. c #D4CCD0",
"*. c #D8D4D8",
"=. c #E0D8DC",
"-. c #E4E0E4",
";. c #ECE8EC",
/* pixels */
"X X X X X X X X X X X X X X X X X X X X X X X X X X X O O O O X X O O O X O X X O X X X X X X X X X X X X X X X X X X X X X X X ",
"X X X X X X X X X X X X X X X X X X X X X X O X X X X X O O O O O X O O O O X X X O X X X X X X X X X X X X X X X X X X X X X X ",
"X X X X X X X X X X X X X X X X X X X X X X X X X X X O O O X X O X O # X O X X X O X X X X X X X X X X X X X X X X X X X X X X ",
"X X X X X X X X X X X X X X X X X X X X X X X # O O X # O O X O O O # # X O X X X X X X X X X X X X X X X X X X X X X X X X X X ",
"X X X X X X X X X X X X X X X X X X X X X X X X O O O O 2 O X O O O # # # # # O # X X X X X X X X X X X X X X X X X X X X X X X ",
"X X X X X X X X X X X X X X X X X X X X X X X X 2 O # # 4 q O O O O 2 q 2 2 # # X X X X X X X X X X X X X X X X X X X X X X X X ",
"X X X X X X X X X X X X X X X X X X X X X X X X X 3 # 2 4 q g 3 3 4 h q 2 O # 2 X X X X X X X X X X X X X X X X X X X X X X X X ",
"X X X X X X X X X X X X X X X X X X X X X X X X X h 2 2 4 q k V x U q h 3 # 3 # X X X X X X X X X X X X X X X X X X X X X X X X ",
"X X X X X X X X X X X X X X X X X X X X X X # 3 g h g O 2 g h V V x h 4 3 3 C h q 2 O X X X X X X X X X X X X X X X X X X X X X ",
"X X X X X X X X X X X X X X X X X X # 4 q 4 3 3 g h 3 4 q B V B Y T U k 3 2 4 k q 3 3 q q 2 O X X X X X X X X X X X X X X X X X ",
"X X X X X X X X X X X X X X X X 2 q h g g 3 h V 3 2 3 h B R 2 2 g 4 h U k q 3 2 h V q q q g h 3 O X X X X X X X X X X X X X X X ",
"X X X X X X X X X X X X X X O 3 k g V k x C 3 2 3 q k Y B g j C N s m ..C V g 4 2 2 k C k B h h g 2 X X X X X X X X X X X X X X ",
"X X X X X X X X X X X X X 2 3 x g 4 g R V # 2 q x Y ^ B # 2 N B B A n  .V { R B h 4 2 4 / x q q k q q X X X X X X X X X X X X X ",
"X X X X X X X X X X X X # 3 q h g h g V 3 q k C R #...A e c 3 & 2 q = k C ..*.T U V h g g x h h g x 2 4 X X X X X X X X X X X X ",
"X X X X O X X X X X X X 2 2 B q q q k k x k x { X.*.N  ..   & & - #   & , { [ $.V P A k V g h g 4 h h 2 # X X X X X X X q X q 2 ",
"# 3 3 # 3 2 X X # X O # 2 U g 3 3 h C E T  .[ C =.-.N # & - 7 v j 0   @ 7 &  .T o.#...E / T B q 2 4 x 4 2 X X O 2 X X V 2 4 4 O ",
"O 3 2 2 2 2 # X # q 3 2 x g h k V T / ( R #.-.&...E 7 3 2 @ p M M a 0   - & { T ;.-.%.^ ~ ( ~ C B k h h q 2 q h X X g 2 2 # # 2 ",
"# # # q 2 2 4 O O 4 B g q 3 q g V U U E ) %.-.;.;.$.q - 8 o   w 0     @ X e I &.-.;.*.' E x x T k g 3 4 q h V 2 O 3 # q 3 3 # 2 ",
"# O 3 4 q 4 2 h g g 4 2 # # # q g h Y / ~ *.-.;.;.*.3 X e 0 M > > M a o X v V ;.;.;.%.~ x g q 4 V 2 # 2 2 3 q k q q # # 2 x # O ",
"X # 2 3 O 2 O q g 4 # # # O 2 2 # h T ) ^ ` -.;.-.o.a - 8 X 9 0 0 0   X X m B -.%.X.Y k V ~ V 2 O g O O # 2 2 q U # 3 O 3 O 3 O ",
"X # X 2 X O O # 2 O O O O 2 # # 2 k R ) #.' =.-.-.c 4 q - 8 p     p @ X & M b U B k x ..O.^ V 4 # 2 3 # O # O 2 q X 3 X O 2 O 2 ",
"3 # 2 X X X 2 O # 3 # 4 k 2 # 3 k k T ) $.&.*.-.n n g k 2 - 9     9 o 9 p I S h q q P #.o.^ C k 4 2 2 3 g 2 # 3 O O 3 X X # # 2 ",
"h 4 X X X X q # # # O 3 g 2 q B q k U E / #.&.s S s 4 k I 3   < <     S I L h k A x P ^ ^ R V h k h 3 4 B # # O O 2 # X X X O q ",
"g # X X X X 3 2 2 2 # 2 h q B ~ h g V Y R %.7 $ s b b e S M L I | K Z K S x 3 n N P P Y Y U k q V k g g x X 2 # # 4 X X X X X 4 ",
"O 2 O X X X X 2 2 2 X X U B 4 3 V g k V / { $ 6 A M b w v : : w v w : : p h O # O h T C k x h h g 2 k k q X 2 2 # q X X X O # # ",
"X X 2 2 O X X q # # X X 4 h 2 2 3 k h B R s n Z Z L M v s L K p b w I | s % 6 5 # B V V B h g k # 2 4 C O O X g 3 # X X # # X X ",
"X X X k 3 3 # 3 4 X X X 3 3 # # 2 h q k C ; M Z M L M v v S w p M w b { a $ O 6 2 q p N h q k 2 # 2 2 k O O O # x X 2 3 3 O X X ",
"X X X O g 3 2 k # O O # h # O 2 2 # g g h f : d K Z N v p ] M L @.L M ..a # O % 3 m c ; + 4 h 2 # # # 2 3 X X X q B 2 3 h X X X ",
"X X X X h 2 C k # O 2 V # O # # 2 2 g q q h K f D N M s Z N W I L I W S K h o o M G : z g h 2 # # O O O 4 g O # 3 U q q O X O X ",
"X X X X 4 g k h 4 # V 2 O O O # 2 2 3 h 4 k M W z t n b w K 0 & w & 0 Z j m 2 2 l t Z h q g 2 3 # O # O # k 3 2 x g C 2 X X X X ",
"X X X X q 4 # # 2 k U 4 O O # # 4 q q x 4 k K Z L f i w K L M , a , M L W w g 4 r K U h k g 4 h 2 O O O 2 g k q # O # q O X X X ",
"X X X X 4 # # # O O 3 g 2 # O # k x k T 4 k M K Z b ; b S   & N 8 A &   S A g 4 k I C V g B k h q O O O q B O O O # # 3 # X X X ",
"X X X X 2 # # O O O O 4 q 4 # 2 # q k C g h K L m p 1 Z N A c Z +.Z c A n L k 2 h Y E B q C g 2 # # # q h X X O O O # # 3 X X X ",
"X X X 2 # O # O O O X O g 3 q 3 # 2 q x k k Z L Z 9 , ] Z u o m J m o u Z { h 2 h R Y k q x 3 2 2 q 3 3 X O O O O O # # # X X X ",
"X X X # # # O O O O X O X q 3 3 h h x h x C m Z Z * 8 L v , , w L w , , v L h 2 g T C k g h q g q 3 2 2 X X O O O # # O # 2 O X ",
"X X # # # # # O O O X X X X 2 4 x C T g g U B L m w a v M P [ } | } [ P M v k q g U C k g C Y B h 3 4 X O X O O # O O O O # O O ",
"X O # # # # # # # # O X X X O 4 g V R g h x B B 0 2 3 3 2 e q H Q H n e w 2 V g h B C k T ^ U x q q X X X X # O O O # # # # # X ",
"X # # # # # # # # # # O X X X X 3 g B x V k L M x q 2 # 3 q k H H H , n b e k q x V V Y ^ U k q 2 X X X X X 2 2 O # # # # # # O ",
"O # # O # # # # # # # X X X X X X 2 h h n S { A [ & < 0 p 4 q 4 a j j q g h g 4 x C U ~ R V 4 # X X X X X 2 2 2 # # # # # # # # ",
"# # # # O # # 2 2 2 2 q X X X X X O 2 k s a s 0 o.0 a d : h k k M M M z : f x q k U U T V q O X X X X X # 3 3 2 # # O # # # # # ",
"# # # # # # # # # 2 2 3 x X X X X # k k e v c 0 o.7 c M K h h F Z m y l B V k g g R B ] Y V 3 O X X X h g 3 2 2 2 2 # # # # # # ",
"# # # # O O O 2 2 2 2 q R k q 3 q g C k e e w e P w c m Z x k t f : b Z x V x h q ] P #...C x g 4 q x Y B 3 2 2 # # # # # # # # ",
"# # # # # # O O O 2 4 B g g 3 3 q q B ^ w 8 9 A ;.P N N x B V g ; : m Z M I B h 4 ..{ =.#.C g 4 4 q q g h q 2 # X O # O # O # # ",
"# # # # # O O O O X X 2 4 4 q h q h x #. .[ { ;.;.e p A V B x g q w M V K Y V x 4  .#.-.&.R h g g g 4 q 4 O X X X X # # O # # # ",
"# # # # # O O X X X X X X 4 4 3 g Y Y ) =.;.;.;.S q g h V B k q   k Y M K U C x q  .#.-.*.~ V k q 3 g O X X X O O O # O # # # # ",
"# # # O O # O O X X X X X 3 g 3 4 V ..E O.*.#.U k g x B B x h q - k m I K B Y B g V #.-.%._ E g 2 q B X X X O O O O O O # # # # ",
"O O # # O # O O X X X X X R x q q Y o.*.%.R Y X.=.q k k B k g 4 7 4 Y L I I M V g V %.-.&.o.T g 3 g V q X X O O O O O O # # O # ",
"# O O # # O O O O X X X B B h 4 q E #.=.;.;.;.;.*.h h B x k g g = 4 Z V B ! I M g [ / o.X.{ C B 2 h C h 2 X O O O O O O O # # # ",
"O O O O # O O O O X # g 4 g g X 3 T %.*.;.;.-.;.*.x x B B h q q 2 4 N Z W V k q c &.&.~ R Y B g O # g q q 3 O O O O O O O # O # ",
"X O O O O O O O # 3 4 4 4 q 2 O # Y #.*.;.-.;.;.;.E x B x h q 3 4 4 M P I L ~ B Y ;.&.E T B h 4 O X q q 4 3 4 2 O O O O O O O O ",
"X X O O O O 2 3 3 2 2 4 4 q X O 2 U O.%.=.=.-.;.{ 4 h V B h 4 # 2 h g L ] L U h 4 O.E E Y Y V q # X 2 q 3 3 3 3 2 2 # O O O O O ",
"O # 2 2 2 2 2 2 3 3 3 3 3 4 O O 4 C / #.&.*.-.=.h N k U V h 4 # 4 k q x Y U V g 4 h E / Y / V g 2 X O q 3 3 2 2 2 2 # 2 2 # # O ",
"O O O # # 2 # 2 2 3 2 2 q 2 X 2 q C ~ ` %.*.#.V { X.k C C h 4 # 2 B q k x V x k 4 B x U C R B h 4 O O h 3 3 2 2 # 2 # # # O O X ",
"O O O O # # # O # 2 2 2 3 2 X # q k T ~ _ ^ U Y -.$.h V V x q 3 4 V g h B C k h q k o.E T Y x g 3 # O g 2 2 # # # # O O O O X X ",
"X O O O O O O O # # 2 # 2 O O O 3 g V R R / ^ ( o.X.g h x h 4 q g B g x T C k g x x V V R V h 4 # X X 4 2 # # # O O # O O X O O ",
"X O O X O O O O O O # # # O O X O 2 g x V V C E ) -.g h k g 2 g h h g k R U U g x V C V B k 4 # O X O # # # # # O O O X O O O O ",
"X O O O O O O O O O # O # O X X O O 2 q g k T ` ` T h h h q 2 k h q g g V U Y T U U C h g 4 # O O X O O O O O O O O O O O O O X ",
"X O O O X O O X O O O # O O O O O X X O 3 B Y / ) Y B x g q 2 B g 4 g g V C U Y E R Y g 2 X O X X X O # # O O O O O X O O X X X ",
"O X X O O O O O O # 3 # 2 # O X O X X X 3 h k U R ( U h q 4 4 C h g h h x T T ^ T x h k O X X X X X O 2 # 2 3 O O X X X O X O X ",
"X O X O X O O # 2 O O O O O X X X X X X O 4 O x V T ) U g 3 g U x x V V C ^ ^ U V 4 2 g X X X O O O O O O O O # 2 X X X X X X X ",
"X O O X O O # O O O O O O O O O X X X X 2 2 X 3 V V U ( T C U R C U R Y E E V Y h O # 4 X X X O O O O O O O O O O O # X X X X X ",
"X O X X O O O O O O O O O O O O O O O O q # X # x x x g h 2 x Y C C ^ C V g C g 3 X O O 3 X X X O O O O O O O O O O O # X O X X ",
"X X O O O O O O O O O O O O O O O O O q X X X 3 3 4 h k 2 3 2 C g 4 4 g k h g X q # O O 2 # X O O X O O O O O O O O O O O X X X ",
"X X O O O O O O O O O O O O O O O O O O O X # O X X X X X # X 3 # X X X X X X X X # X X X 2 X O X O O O O O O O O O O O O O X X "
};
