/* XPM */
static char *a67af3ee4a284de8d72928b7b7a9bd68ZbJAhN6SqxwGuV2P[] = {
/* columns rows colors chars-per-pixel */
"64 64 171 2 ",
"   c #533634",
".  c #553835",
"X  c #553A38",
"o  c #593C38",
"O  c #5A3D3A",
"+  c #5B3E3A",
"@  c #5C403B",
"#  c #5D423D",
"$  c #5F443E",
"%  c #60423D",
"&  c #62443E",
"*  c #594242",
"=  c #5F4642",
"-  c #5B4444",
";  c #5B4747",
":  c #5C4645",
">  c #604640",
",  c #634640",
"<  c #624742",
"1  c #634841",
"2  c #664942",
"3  c #654B43",
"4  c #674D44",
"5  c #684B43",
"6  c #6A4D45",
"7  c #684C47",
"8  c #6D4F46",
"9  c #624B49",
"0  c #634D4A",
"q  c #624D4C",
"w  c #6A4F49",
"e  c #695147",
"r  c #67534F",
"t  c #6A5349",
"y  c #6F5148",
"u  c #6F534B",
"i  c #6F544E",
"p  c #705349",
"a  c #70554B",
"s  c #73554B",
"d  c #73574C",
"f  c #715B4F",
"g  c #76584D",
"h  c #74594E",
"j  c #775A4E",
"k  c #775C4F",
"l  c #655350",
"z  c #625356",
"x  c #6F5852",
"c  c #6F5A55",
"v  c #675758",
"b  c #765A50",
"n  c #735C55",
"m  c #765E57",
"M  c #7B5D51",
"N  c #795E51",
"B  c #776254",
"V  c #7A6053",
"C  c #7A6254",
"Z  c #7A6455",
"A  c #7D6456",
"S  c #7E6657",
"D  c #776058",
"F  c #76605A",
"G  c #7E645A",
"H  c #7B635C",
"J  c #7A665D",
"K  c #77685E",
"L  c #7B6858",
"P  c #7E6858",
"I  c #7D6A5A",
"U  c #7E6C5B",
"Y  c #7D6C5D",
"T  c #665C60",
"R  c #6D6265",
"E  c #6F6466",
"W  c #6D696F",
"Q  c #7A6C63",
"!  c #7E6E63",
"~  c #7B6A66",
"^  c #706869",
"/  c #736969",
"(  c #736A6B",
")  c #766B6B",
"_  c #746D6C",
"`  c #776D6C",
"'  c #79716F",
"]  c #6F6B70",
"[  c #6F6D74",
"{  c #706D72",
"}  c #736F73",
"|  c #767175",
" . c #777377",
".. c #7A7371",
"X. c #7E7975",
"o. c #777578",
"O. c #73757E",
"+. c #79777A",
"@. c #7E7778",
"#. c #7A797B",
"$. c #806A5A",
"%. c #85685B",
"&. c #856A5F",
"*. c #816C5C",
"=. c #826E5D",
"-. c #84705F",
";. c #856B61",
":. c #8A6E60",
">. c #857260",
",. c #847262",
"<. c #857461",
"1. c #877663",
"2. c #807064",
"3. c #897061",
"4. c #897663",
"5. c #8D7465",
"6. c #877966",
"7. c #897965",
"8. c #807368",
"9. c #847769",
"0. c #8A746A",
"q. c #85796A",
"w. c #84796C",
"e. c #8C7C68",
"r. c #897C6E",
"t. c #937A6E",
"y. c #857C73",
"u. c #857B7A",
"i. c #867D7B",
"p. c #857D7D",
"a. c #93816D",
"s. c #94836F",
"d. c #8F8376",
"f. c #88817E",
"g. c #8A817F",
"h. c #938371",
"j. c #9A8173",
"k. c #988672",
"l. c #9A877D",
"z. c #A38979",
"x. c #A7917F",
"c. c #767A83",
"v. c #7B7D84",
"b. c #868485",
"n. c #858487",
"m. c #888382",
"M. c #8A8789",
"N. c #948E8C",
"B. c #99918D",
"V. c #A38F83",
"C. c #A49185",
"Z. c #A99182",
"A. c #AB9783",
"S. c #A69688",
"D. c #A0948C",
"F. c #A3968D",
"G. c #A79889",
"H. c #A6988B",
"J. c #A4988F",
"K. c #B09988",
"L. c #B29A88",
"P. c #B39C89",
"I. c #B29C8B",
"U. c #A39891",
"Y. c #B5A08C",
"T. c #B6A28E",
"R. c #B2A092",
"E. c #B2A295",
"W. c #B7A597",
"Q. c #C1AC9A",
"!. c #C6B09C",
/* pixels */
"g g g g g g g g g 8 o         + y k -.7.7.-.N g g p O O e e + .       & U 7.7.-.V k s k s k s k g 8 +                 < L ;.V g ",
"g g g g g g g g g y & o     o 2 s S -.*.-.U J m m c q q h h 5 @ . . @ t Z -.-.P M k M V V k g k g 8 +             . @ t U >.V g ",
"g g g g g g g g g s p 2 o o 2 g S *.H C S B `  .| | { ( ! -.P h $ @ n Z V V Z V g k *.-.-.$.M k g 8 +             & h U 1.>.V g ",
"C N g g g g g g g d y 2 o o 8 N $.*.k b m ~ p.M.M.n.v.+.w.6.6.L > $ B U V g g d k V -.7.7.-.$.k k 8 +           + 5 C =.=.P P V ",
"-.$.N g g g d g g y & o   o p g N N g F ` p.F.E.E.U.n.+.q.7.7.P & @ s k d d g g s N >.7.7.1.-.P k y o         o 2 s N N V S P >.",
"7.-.N s p 8 8 y y 5 & @ & 6 b N C Z m ~ p.B.W.Q.W.B.X.] ! H =.Z 5 & y s s y s g k N *.;.1.7.7.-.g & o     . o & y g N C V S >.7.",
"7.-.V p & o + + o @ 3 u B U =.>.>.;.' p.D.W.Q.W.B.@.v ; = 5 g k s y s y & & y g g k k S -.7.1.U 5 o .     X 2 s s N P >.>.>.1.7.",
"-.P d 2 o         o 2 h P ;.1.7.4.w.#.n.U.E.E.B.u.v *     o e h g s y 2 + o y g d g V P 1.1.-.B &   o % > r H -.>.:.4.7.7.7.7.7.",
"A g & + .         . o & g S -.7.w.w.#.v.n.M.M.u.v * o     + y s g y & o . o y s k k $.-.1.-.P s + o 2 a T y.B.K.K.x.a.7.7.6.7.7.",
"y & +             . o & h P -.1.>.;.' } }  .} E 9 O O o   o 8 s y 2 o   . + e M %.:.q.q.6.-.V y < < x ~ i.B.R.Q.W.F.d.8.U P =.>.",
"o o               o 2 h *.-.1.-.$.M N m m m m n s w 8 , o + p y & o       o y %.z.C.g.u.q.-.V s y x ( p.U.W.Q.W.B.b.p.( r 3 h C ",
"@ o + + .       o & g P -.1.-.*.N g g g M g b b g g g p + o 3 3 o         o 5 H B.F.b. .Q S k g g m ` i.F.E.E.U.b.c.c.] ; o 2 y ",
"p 8 8 & o     o & d P -.1.-.P N g k g g g g g g g g g p o . o o   .         o l ' b.v.[ l 6 y d g b m ~ p.M.M.n.v.c.c.] ;   o @ ",
"d g k 8 @   o & s V >.1.-.*.N g g g g g g s y p p g d 8 @   o o .   o o @ @ & l ` +.] T - o y g g g g m ` }  .} { W W T *   o @ ",
"k g k y + o & p d V -.-.P N k h g g k s g y & & 8 g g 8 o o 2 2 o o 2 y y s B U >.Q l * X o y d g g g b m m m n 9 ; ; -   o 5 t ",
"g s y & o + y k g V -.-.S V V N g g g s y 5 o + 8 g g p & & 2 2 o @ e g N S -.1.7.U 6 o @ $ y h g g g g g g g p , o + + + & p p ",
"g 8 & o . @ e h d V -.1.-.-.-.*.N d g y & o   o y s g s y 2 & o . @ y V P >.1.7.7.*.s 8 8 y s g g g g g g g g s y 8 8 8 8 y s g ",
"8 8 3 $ $ e g V V S -.7.7.7.1.-.V g s y & @ @ & y g g s s 2 o . o & s P 1.7.7.1.=.$.k g g g g g g g g s y y s g g g g g g g g g ",
"+ & k L P U U -.-.1.1.7.7.1.1.-.V d d s y y y y s g g y & o . o 2 g $.-.1.7.6.>.%.M k g g g g g g g g y & & y g g g g g g g g g ",
"  & N ;.1.7.7.7.7.7.7.1.1.-.U Z d y y y 6 y s g g g g y & o o 2 x U t.h.e.' >.P k k g g g g g g g s y 2 o + 8 g g g g s y 8 8 8 ",
"  @ s P -.7.7.7.7.7.7.-.P g 5 $ @ + @ o o & p g g g g s y y y x ( i.S.G.m...J N d k s g g g g g g y & +   + 8 g g g g y & + + + ",
"  o 2 f -.1.7.1.-.-.-.P h 2 o         . o & p g g g g g s g m ~ p.N.U.U.b.| c y y y s g g s y 8 8 2 o     + 2 y 8 8 y 2 o   o + ",
"  . o 4 U 7.7.-.S V V h & o .         o & y s g d g g g g m ) p.F.G.N.n.v.{ 7 + + & y g g y & + + o         + + o + + +   o 2 y ",
"    . $ P 1.>.P s 6 y 1 o         . o & y s y y y y s g g m ) i.V.B.y.W ] v *   + & y g g y +   o + + +                 o & y g ",
"      $ L -.P d & @ o o .         o & p g p & + + & p k s g V H ;.$.8 ; ; * X o 5 y s g g y + o 5 8 8 5 o             o 2 y s g ",
"o o . $ P -.P d & @ .             + & y y & o     . & 8 y y s g g 8 < o O O + > y g s g g y & & y k d y & +         o & y g g g ",
"y 2 o = L 1.1.P h 2 o   .           @ @ + + .       + & @ & y k g p p 8 8 8 8 p s g g g g s y y s s s s y 5 o     o 2 y s g g g ",
"s e @ 1 P 7.1.-.P f 4 $ $ $ @ o + o .                   o & d V M N g g g s y y s g g g g g g g s s y 8 y 2 +   + & y g g g g g ",
"h y @ & P 7.7.1.-.-.U P L B s y y & .                 o & k $.;.;.*.N g g 8 > , y s g g g g g g k y & + + o   o 6 y s g g g g g ",
"V s & 3 U 7.7.7.7.1.1.1.-.U k s y 4 +               + & s M >.7.7.>.M g g 8 O o 5 y s g g g g s y 5 o   o o + & y g g g g g M M ",
"-.P g d -.7.7.7.7.7.7.1.P k k y & +               + & y s k =.7.7.;.M g g 8 +   o & y g g g s y & o   + 3 y y y s s g g g N $.=.",
"1.-.U S -.6.7.7.7.7.7.-.S k s 2 o                 + 8 N k $.=.4.-.U N g g y +     + y g g s y 5 o     + 6 g g g g g g g N $.>.5.",
"7.1.-.1.6.7.7.7.7.7.7.1.>.C 5 o .                 @ 8 N P 1.4.>.P N k g g 8 o     o y d g y & o .     o y g g g g g g V $.-.1.7.",
"h.h.r.q.6.7.7.7.7.7.7.7.6.P &                   X & s S *.;.>.I N g g g g p +   . o y s y 2 o     . o > y s g k k M V $.-.e.s.k.",
"T.G.f.X.6.6.7.7.7.7.7.7.6.L %                 o 2 g P =.S N C N g g g g s y +     o t y & o       o 6 y s k g k $.-.-.-.1.s.A.T.",
"!.W.B.m.y.q.6.7.7.7.7.1.=.B &           O + o & y V U P N g g g g g g s y 2 o     o 2 3 o         + y s k g V P -.4.e.1.1.s.G.W.",
"!.Q.W.F.m.X.w.7.7.7.7.-.$.s +         O 2 8 8 y s g N N g g g g g g g 8 & o .     . o o .         + y h s N *.-.1.7.7.7.7.r.f.M.",
"W.E.W.B.X.( K S >.;.-.U s 5 o   O + + > p g g g d g g g g g g g g g g 8 o           .         . @ 5 g V V S -.7.7.7.7.7.7.q._ W ",
"M.M.M.X.v ; $ 3 d V V d & +   o 2 8 8 p d d g g g g g g g g g g g g g p +                     @ f P -.-.-.-.1.7.7.7.7.7.6.U r ; ",
"| | ] v * . o & s k d y & + + & y s y 8 8 p d g g b m B m m b g g g g p & + + o .         X $ t =.7.7.7.6.7.7.7.7.1.>.=.>.Z 6 o ",
"D c 9 * X o 2 p s g g s y 8 8 y s y & + + & y g g m ` | | ) m g g g g s y 8 8 5 o         $ x U 4.7.7.7.7.7.7.7.7.;.U k V g s y ",
"g y & o   + < y s g g g g s y 8 8 2 +   o & y g g D | c.c.{ c s s g g g g s y & o     o @ t U 6.w.w.w.q.-.-.-.-.-.*.k g g g k s ",
"g d p 5 +   o & y g g g g y % + + o   o 5 y s g g D  .c.c.{ 0 & y g g g g y & o       @ g U 4.q.X.#.+...I C M M Z V k d g d d k ",
"t e 8 < +     + 8 g g s y 5 o         + 8 g g g d B '  .{ T * o y g g g g y +         & B -.-.~ +.O.{ E m g g g d s y y y 8 8 8 ",
"@ o @ o       + 8 g g y & +           + 8 g g g d V ! Q l * o o 8 g g g g y +         @ g N C Q | ] z 0 y g s g g y & + + + + + ",
".       @ & + & y g g 8 +   o o       + 8 g N M V H 7.U t $ & 5 y g s s y 3 +   o + o & y h g N ) E 9 & y g k g g y & + + o     ",
"      $ f Z g y s g g y + o 5 < +     + 8 N $.-.>.>.1.1.U L P Z g s g y & o   + 2 p 8 p s k g g m n y y s g g g g s y 8 y 5 +   ",
". . @ t U ;.N g g g g y & & y y +   o & p A =.7.7.7.1.7.7.1.-.$.h y y 2 o     o p s s g s g g g g g g d y y s g g g k s y % o   ",
"  @ n U 7.-.V g g g g s y y s y @ o 2 y s V -.7.7.7.7.7.7.-.$.s & + + o       + 8 g g g g g g g g d d y & & y g g g g y & o     ",
"= t U 1.;.$.k g g g g g g s y 2 o o e s y d P -.4.7.7.1.-.$.k y & + + o       O 8 g g g g g g g g d y 5 o + y g g g g y & + & , ",
"I Y -.-.$.b g g g g g g d y & o . @ y u & & d S -.7.7.1.U k g s p 8 8 2 +     O 8 g g g g g g g d y & o   + 8 g g g g s y u A H ",
"k.k.s.s.5.%.M g g g g s y 2 o   . o & 1 o o 3 g -.7.7.*.d y s g g s y 5 +   O , 8 g g g g d y 8 8 2 o     o 8 g g g g g V S -.7.",
"T.T.T.Y.P.z.I d g g g y & o .     . o o . o o 6 P 6.7.U 5 & y k g y & o   o 5 8 g g g g g y , o o o .     + y g g g g V P -.1.7.",
"E.W.Q.!.!.P.0.B g g g y & o .           .   o 3 U 1.-.B $ @ y s y 2 +   o , y g g a y 8 8 2 o             O 5 p s k d V -.7.7.7.",
"M.B.W.!.!.E.f.) N g d s y 2 o             o & g *.-.P s @ @ e y & o   o 2 y s g g y & + + o               . o > y g d V -.7.7.7.",
"#.m.J.E.E.J.b. .c p 8 y s y +             o y N U $.k y o o & 6 & + + & y s y 8 8 2 o o w i d p > O + + O o . + 8 k N $.-.7.7.7.",
"w.y.n.M.M.n.v.{ 0 o + & y y o             X y g g N g 8 @   o > 5 8 8 y s y & + o o   w t.Z.Z.j.N y y y y & o o 8 k *.-.1.7.7.7.",
"q.>.( ] W { { v * . + & y y & o .     . o & y g k g g 8 +     o 2 y s g g y & + = ; t ;.K.Q.!.I.0.m g g h y @ @ y $.-.7.7.7.7.7.",
"7.I l ; : ; : * X + < y s s y 2 o . . o 4 y s h k k s y +       o & y g g g p a E +.l.K.Q.Q.Q.R.g.` m d g y @ > V -.4.7.7.7.7.7.",
"7.U 5 O O o + + O > p g g s y 2 o . o & h N V N g s g p +         + 8 g g g g ~ | n.U.E.E.E.E.U.n.] x y s y o $ f P L U 1.7.7.7.",
"7.=.g 8 8 8 8 8 8 y a g g y & o . o & s P -.-.*.M k s y @         o y h g g *.' #.v.n.M.M.M.M.n.v.} q = y e o . @ $ 1 t U 7.7.7.",
">.*.N g g g g g g g g g 8 5 o   . @ s P -.e.1.-.N k g 8 o         X 2 y b P :.7.X.#.o.| ] W ] ] ] v * o 3 1 o   . . . $ L 1.7.7.",
"N N g g g g g g g g g 8 & o     . $ Z -.1.7.7.-.M g g 8 @           o 6 C 1.4.7.q.! J c q ; ; ; ; * X   o o     .     = L 7.7.7.",
"M g g g g g g g g g g y +       . $ P 7.7.7.7.;.N g g 8 O         .   $ L 7.7.7.6.;.C 8 o                   .         & L 7.7.7."
};
