/* XPM */
static char *result[] = {
/* columns rows colors chars-per-pixel */
"128 128 60 1 ",
"  c black",
". c #040404",
"X c #0C0C08",
"o c #100C10",
"O c #141010",
"+ c #1C1414",
"@ c #181818",
"# c #201C18",
"$ c #28201C",
"% c #242020",
"& c #2C282C",
"* c #302420",
"= c #342C28",
"- c #3C302C",
"; c #383434",
": c #541004",
"> c #601404",
", c #701808",
"< c #403430",
"1 c #483C34",
"2 c #403C3C",
"3 c #4C4038",
"4 c #4C4848",
"5 c #544440",
"6 c #5C4C44",
"7 c #585050",
"8 c #64544C",
"9 c #6C5C50",
"0 c #60585C",
"q c #786458",
"w c #6C6064",
"e c #746C70",
"r c #801C08",
"t c #8C200C",
"y c #9C240C",
"u c #AC280C",
"i c #B82C10",
"p c #C83010",
"a c #905C3C",
"s c #A06C48",
"d c #806C60",
"f c #8C7468",
"g c #807478",
"h c #947C70",
"j c #9C8478",
"k c #A88C7C",
"l c #887C80",
"z c #94888C",
"x c #988C90",
"c c #AC9484",
"v c #B49C8C",
"b c #A09498",
"n c #A89CA0",
"m c #ACA4A8",
"M c #B0ACAC",
"N c #B8B0B4",
"B c #C0A494",
"V c #C0B8B8",
"C c #C8BCC0",
"Z c #CCC4C8",
/* pixels */
"7eelglgzjl009wzwhlVmcccjjzhlhzhhbbbbbbmmmmmMNNNvmccccmmmmVmmMmmcccjzzzzzhzzzzzzzzzhhhhllzzzzzzzzxxbbxzzzzzzllb0qdh0w00%qwwwww009",
"5452222;;;989qjwgzNwwwfddlddddfwwwddwddwwwwwdddfdddddddwdwdwwwwwwwwww0ww9edewewwwweqq9q9ddqdwwwwwwwwwwwdwwwwlm0qwjq999%24444477e",
";2;&%&%#&#d00qcdgzM7ww79e0989qqq9q9qqqqwwwwwwqqde9qeweq9weq0wgbbbmbbgw799weeeqwwwwwedqqdqwwzdwwwzwwewwwe9wwwgz0wwmq00d#2;222257e",
";4;%&&&X%@d99dh0gzM0we7eqdq99qqdqq9dqwwqwwwwww9e99w9w9qwewd0ebzbxzzzbw4qwewwqqeewwwwe9eweqwddqwwwdwwewdwq7elgzwwwhwwww@&X&&&%<7e",
";4;&&%&#&.h999z9eln0geeeeeeeweeeeewweeeeeeegegggeegegggggge7ezbxbzlzzw;weweeeeggggeeeggeggegggeeegggggglglgz0w0w9ze9wz.&#&%&&;7w",
";3;&&&&%X&#@@@@@@90&elxbnnbxnnnnnnnNnnnnnnbbnbvnvvmmmmmmmmmwebxxlbzbzw4ggzxxxxxbzzbbbbbbbbzzxbbbxxxxxxxxxbbb7#9@&@@&@@oX%&&&&;7w",
";<;%&%&@X##@@@@@@w&%egllgggggllglllgllgggllllllllllzzllllll7exxlblbzlw0lhggglgglflhhgggfggflgglfggglgglfgghg&&w@@&@&@@oX@&%&%;6w",
";2;&&&&oo%#@@@@@%h@;q99wwwwddw99999qd0qdd9eee9w9eqdwwdd999e4ezlzllzlzw4wdwwww9wwwwwww9wwwqwweewwwwwwewqwwwww;@b%&&@&@@o@o&&&&;5w",
";4<&%&%%w%#@@@@@&d@&ww9deeweqdeqdd9d9ed9wwewwwwwew99d9qw9qw2wlglzlgzzw4q99dw0qeeewewwww9ewwwwwweewwwweeeweww&@w&@&@&@@o;&#&#&<7w",
";2<&#%&05@@@@@@@@9@%9ewwwwwewq00999q90089wq9qww9ew900990q9q4wggzlgglzw2wewweqweweweweeweq9wewwwwewewq9wwwwew%@9@@@&&@@o&4&%#&;5w",
";<<%&&%442#o;7exe72weqwweww9eqqqe9w9q9qq90wqwqe0w9q0qq90qqq44llzlglzz4;qww0q9qwwwwweweww09wwwwwwwwwewqdqwqwew27exe7;o@o;7&%%%;4w",
";;;&&&#44&%o;gwml72wwee909qq9qee0e9ww90900wq9wwe90q909w09q97;42424244;4ww9wq99eqqeweweweee0qwwwwwewwewedd99ww27lmwg;o%&462&&&;5w",
";;;&&&#40;@.;leZg72qwww9e9e0e9q9909ee099q00wewe9999w9ewwwwe04%&%&&%&%20wew9qq0q99weeweewew09dewwwwewwwwwdwwww27gZel;.@;784&&&<5w",
";;;;;&&40&@.2xeNl72ddqeewweq9e99www99e00qq90qwq909wewwwwewqqq04222447wwweew90e9qeeweeeweeew0qewwwww9eewew9qwd27lNex2.@&w64&;;;5w",
";;;;;&%70;%.2leml72dded0wqe9qe9wwqwfeeeddgeeeeeegggeegeeggeeeeeeeeeeeeeegeeeeggeegeegggeefqewqww9q99wwwwq9q9d27lmel2.%;w74&;;;5w",
";&&&;;&49&@.;eebl72999e9qq909w9w9fzzjzzjzzzzbzzjzzzzzzzzzzzzzllzzlzlllllzzlzlzllzzllzlzlzllggf9w9w909qq9eqqq927lbee;.@&e04;;&&2w",
";;;&&;&40;%.;gwnlw2dqdq0wqew9wwwlNxxxxbxbxxvxnbnnnnnnnbbjjxlzlzlzzlzzlxzzlzzzlzzlllllzzlxxbxbmlwww9weqw0qq90w2wlnwg;.%;w04;&&;5w",
";;&&;;&70;%.;ewMl02qq0d9wqeww9edb7oooo@ooo@w0woooooooo@@w0woooooooo@@@w0woooooooooow0wooooooo;xge9wweqw9dw90q20lMwe;.%;e04;;&&5w",
";;;%&&&70&@.;weCz02ew9weweewwewcz&@o@oo@o+@00e@ooooo@@@%00e@ooooo@@@o@00e@ooooo@oo@00e@ooooo@o7xeewweewewwqq920zCew;.@&w04&&%;5w",
";;%&;&&70&%o&0wVzw2eweweweeweqjb&@@o@@o@oo@0wl@+oooo@@@&0w4@+oooooo@@@0wl@+oooooo@%0wl@+ooooo@@glqeweeweweww92wzVw0&o%&w04&;&%5w",
"&&;;;;&70;@.&70Mgw2w9weww9eqwec7@@@@@@@@@+@wew%ooooooo%$w7w%ooooooo@%@wew%ooooooo@*wew%oooooo@@;zgwqe9wwewwew2wgM07&.@;e04;;;;2w",
"&%&&&;&70&%.&40nlw2weeww9qeq9cl&@%@%&;;&&%@ww0%@@%&%%&%%ww0%@@%&%%&&%@ww0%@@%&%%&&*ww0%@@%&%&%@%7zdqeq9wwewe02wln04&.%&ww4;&&&2w",
"&&&;;;&79&@o&4wnl02e9wweeww0fb&%&@%&;1;;;&%000%@=&2422%$w00%@=&4224;&@000%@=&4224&*000%@=&42;&@@%lb0wweew990920lnw4&o@;ww4;;<&2w",
"&&&;;;&40%%o%4wbl0;ewqwewwqdB8%%%%;444;<1&&00w%@&;0880%&00w%@&;08802;%00w%@&;0880&&00w%@&;0882%@@;blqwwew9ewe;0gbe4%o%&ww4;;;&2w",
"&&&&;;&70&&%%20le7;wewww990cd%%&%;3407244;&0w0%%&279w9&&ww0%%&;79w942%0w0%%&;79w9;&0w0%%&;79w9;%@@0ne99wwww9727elw4%%&&ww4;;&&2w",
"&%&;;;&80%%&gllllMg709qw09hc2%&%&240752452;0ww%%127w90;;w0w%%127w9042&0ww%%127w90<&0ww%%127w904&%@@ll90wq79q7gMllllg&%%ww4;;;&2w",
"&&&;;;&60%%&qwwegMg4090ww9n0&&%&24777741542ewe&&540w002;ewe&&540w0074&ewe&&540w0042ewe&&540w0072&%%4xgww00994gMgewwq&%%0w4;;;&2w",
"&%&&;<&40&%&990qgng4990qqcl&&%&247007w07042wew&;247w0q;;wew&;247w0q74;wew&;247w0q7<wew&;247w0q442&%;7bew00ww4gngq099&%%0w4;;&&2w",
"&&&&;;&70@%&wwwglbg4909elb2&&&;47000q90w044wew&;477qw04;wew&;447qw077;wew&;447qw072wew&;447qw0074;&&;exew90q4gblgwww&%@7w4;;&&27",
"&&&&&<%40&%%w0qwgxg49909m0&&&24770w0q00ww74eew;;1490004;eew;;149000772eew;;14900074eew;;14900007742&&;bgw09w4gxgwq0w%%%7w4<&&&27",
"&&%&;&&40%&%7009wbg49q9cg&&&&42090w9q900074eeg;5477ww974eee;5447ww9072eeg;5447ww907eeg;5447ww909024&;&4be9qq4gbw9007%%%7e4&<&%27",
"&&&&&&&40&%%w70wezg79qjl7;;;2370qe9ww90w007weg51570w0w04wge51540w0w004weg51540w0w07weg51540w0weq0732&&;lgqqw7gzew07w%%&7e4&&&&27",
"&;&&&;%49&%&ww700xg79wle&;;;4409e0eewe0ww77wee45470www07gee45440wwww04wee45440www00wee45440www0w9044;&;0gwwq7gx007ww&%%7e4;&&&27",
"%;%&&&%60;&%oo@@o%g499ej&&&&399qe909e98w007wwe55000q0000ewe55000q00ww4wwe55000q0000wwe55000q009wq904&%&weq9d4g&%;%%%%&&0g4&&&%27",
"%;;&&&%60&&o%@@@%%&790wl03<23999eq99990w007ewe505779ww00ewe505779www07ewe505779ww00ewe505779wwqw9904&&;gdw097;&%;%&@%%%0g4&&&<27",
"%;%;&&%60;;&;;&<30449qqgl33229e98qqwww0www0wwe77777qqw00wwe77777qqww07wwe77777qqww0wwe77777qqwq89w02&&8g9qqw4403<&%@&%&0e4&&<%24",
"%;&&&&%500900w999ww9998wl3;239q900w9ww90w00www75087wqww9www75087wqww90www75087wqwwwwww75087wqw009q92&;we989ew0999wwwwe0eg4&&&&24",
"%%&&;@&60099e909qw9wq9qqlw3330q909q0090www0www78050w9900www78050w99ww0www78050w99wwwww78050w99909q0;&4gwqq9wwewq9w9eweweg4&<&&24",
"%&&%&;&49qqq9909999qqq8qel33&3q98099999w9w0www08770099w0www08770099w99www0877009990www08770099089q7;&wg9q8qedww9909wwwwdg4;&%&24",
"%#&&%;&40999q909909999q99l03309098089q9990w00098809q089w00098809q089w000098809q080w00098809q0889094&3ge99q990w90909q999eg4;%&&;4",
"%&&&&<%499q9e909099099999el33099q9qq0999w000000097w999000000097w99909w0000097w999000000097w999wq994&4g999999we90e0999q9wg4<&&&24",
"%%&&;;&4033lgegeeggggglbw9l73309q980qq000w008007790999w008007790999w990800779099990080077909990q902&we9wblgggggeegegl37wl4;;&&24",
"%&%&&;%793%4zglggllzlzmg0qgg;3q9q099q9q0908w009w880w9908w009w880w990w0w009w880w9909w009w880w99wq903;gwq0gmzlzllgglgz4%3wl4;&&%24",
"%&&&&;&793%27mlzzlzlxmge09ql7;9q9qqw0wq99009ww08899w99099ww08899w9999w9ww08899w999w9ww08899w99qqq0;4gq90egmxlzlzzlm72%20l4&%&&24",
"%&%&&&&403%22gMNVMmmmlgg009ge30q99q99e999999qq9499qq0q9ww9907qqwwqqw0099099qqq0eq99909990ew99q99q73we900gglmmmMVNMg22%;0l4%%&%24",
"%%&&&&%68<%244weeewebeeg099wl4377d4qw9e0qq00qq00ewlllglglggggllgggggggeeeggeggge000qq00qq0e9wq4d74;g9990geebeweeew442%<7l4@@&&24",
"%&&%&&+50;%224ewwwewbege7q99lw&w07700777707007740gnnbbbbbnbbbbbbnbbnnnbbbnnmVmbnl477007077770077007g99q7egebwewwwe422%;0l4&&%&24",
"%#@&&&&60&%23&3&<;<<w3eg0999el0l0weeggewegeggew7&ggeeeweeeweeewweeeewwwegeeeggggx7weggegeweggeew02we9990ge3w<<;<&3&32%&0l4&&&%;4",
"%&%&&&%40X%7&yautrtust0l7qq9qlw&ebbxlzxxbnxnxxl0;eww4<<<<<<<<<<<<<<<<<<<<<<<<<7gl0lxxnxnbxxzlxbbe7gq9qq7l0tsutrtuay&7%X7l4&&&%24",
"%&&&&&%30#%7&tautrtusy0z49099wl&wwq7q09w00w07872&990<ttyuuuiuuyyyytttttttyuuu<0gg27870w00w90q7qwwwh99094z0ysutrtuat&7%#7l4&&&&24",
"%&&%;&%26@%7;&4<<&&2w2ze7qqq99l7eq9qww98e0w09472&909<uuuyyttrrrrr,,>>>::>>,tp<9gg27490w0e89wwq9qewd9qqq7ez2w2&&<<4&;7%@0g4&<%&=4",
"%;&&&;%24#@247geeggzNlwe49q9q99e2%%%%@@%%%@@@%@@;9qf<<<<<<<<<<<<<<<<<<<<<<<<<<fgg@@%@@@%%%@@%%%%209q9q94ewlNzggeeg742@#7e4;&&&54",
"%&%&%;%27#%422w0w07wxeww4099q98953;;;2;;2;&;&;&&;9ezzzzllzzzzzzzllllgggelzzzzleeg&&;&;&;2;;2;;;3589q9904w0exw70w0w224%#4g4&@&%<4",
"%&&&&&%;0%@272ww0e7wgwww4wq8084889414776884041;%;290990999www9wq909099qq99q9wqee4%;140488677414984808q0474wgw7e0ww272@%4e4&&&@=4",
"%&%&&&&;0%%227ww00w0g0ww2w09802998459970qq09w5;;2&&&&@&&&&&&&&&&&&&&&&&%@@#@%%&&&;;5w90qq0799548920890024w0g0w00ww722%%7g4&&&#<4",
"%%&&&&%;6%@;2&@@@@@@@@2029808808098942207880qq94444414144444422444444442;;;;24444480788700000700q000q07202@@@@@@@@&2;@%7e4%%%%24",
"#%&%&&%;4@+&@@@@@@@@%@OX29000098888820029090q9969770787088445<555665466<53444444qe09dq990q99079092q08882XO@%@@@@@@@@&+@7g4%%%%24",
"#%&&&&%26=%&;;;;;&&;&&22;700edfqdgdddgggggdfggdfggfggggffffdgqddgggfdgggfggfggeggggffgdggddgdgggqgge007;22&&;&&;;;;;&%=7e4&&&&24",
"%&&%&&&272<733<$**477<;407wbxxbbbbbbbxbbxbbbbxbbbzxzjjjjjjjhjjjjjjjjjjjjlllllgglzxxxzzzzzzzxzzxxbbxxbe904;<242;*$<337<27e4&&%&27",
"#&&&&;&24513331**&20712107be<343433332333222424234333223;;;222222;;;22222224442222444244443334333430lz001217072**1333157g3&%%%27",
"%#%&%%%209www074151100978lb2%&&&&&&&&&&&&&%%&&%&&&&%%&&&&&&&%@%@@%%%&&&&&&&&&&&&&&;<&&2&<&<@&%%%%%%@2kl07049882&2709w07wg4&%&%;7",
"%&#%&&%203099w025=050970eb7@@&&&&&%%&%&%%%&%%%%&&&&%&%%%%%@@%@@@@@@%%%%%%%&&;&&<&&&&&;&&&&&%%%%%%%%@@6xw0789004;;0q097<eg4&&%#27",
"%#%&&&%274800904;;4e7070be&@@%%%%%&%%%%%%%%@@X%%%%%%%%@%@%%@%@@@ooo%%%%%%%&%&&%&&&&&&&&&&%%%%%%%%%%@@;hb0880044;4090975eg4&&&%;7",
"%&%&&%%20q007870404w570lb&@@@@&&%%@@%%%%%@@%@%@@@%%%%@%@%%@@@@@%@@@@@@@%%%%%%%%%%%%%%%%%%%%%%%%%%%%#@@0vl09907442097079el4&&&%27",
"#&&&&&%40990007750w000gb2&@@@@oooooooo...oo o..oooo.......ooooooooooo.oooooo..ooo..o..o............o@@%0cd009950470w008el4&&&&20",
"%&&%;&&400q90977007704bw&@o@ 444224222224244244442444244422474774444747444244442422422;2;;22;;;2224 @@@<ec700070779w997el4&;%%2w",
"&;&&&;&40009904449700gb&%@@ %20777700770000ww0w0wewwwww0w007707707077707000007000070774442422222401&.@@@3cg90045170e950el4<&&&1w",
"&&%&%;%74974w9777900eb2@@@ o;22lgeeegegeegegeglggggeewewweeeeegegwww0weeeeeeewwwwwweeeww07777740g422@o@@@8Bw0w00479q879wg4<%&@2w",
"%&&&&&%7090e2w908908zw&@@o &2220VbbxxmCnzbxbbxbbnnxxmzxxzzzzzzzzxxnnxbmCNnnnbbbmbbnbxxbxxzxxxbnN0222; o@@<jz08887900809dg2&&@&=0",
"&&#&&%%790792290q9wlb&@@%.@;2;2gcgwweeweewwwwelwewww0007707w0wwgeglllggzlggwwwweelggggggggghgglce2;&&@ @@@wnl00w0w07978dg4&&&#20",
"&%&&&&%70000ew4990eb8@@@.@&2;2eB99ewwewwwwewewwlwwwwww0044e000fewweggllgweeeewweeexggllgflgflggxh2;2&&@ @@%gbw0ww0ww000dg4&&&&=w",
"%%&%&&%70q088ee80wb8@@@o.&2227cl8d2XXooooooooowgloooooooooooooow0woooooooooooooowwgooooooo..%gggm022;&& o@@2lz080w99089eg4@@%&20",
"%%%&&&%709448e88wlb&@@%.@;;239v99g&@Xoo@oo@oo@eweo@oo@oo@@o@oo@00e@ooooo@@@@o@@owxeo..oooooo.4ggjc222;&&o@@%4hg0w990079eg4&&&&27",
"&&&%&&&ewwwwwwwwzb4@@@.o;;230nf0e;@@@@@@oooo@@eewo+@#+%@@o@@%@@0wl@+ooooo@@oooo@new@.@o@oo@o.%wg0nd22;;@&o@@&djlglggggedg5&&%&=7",
"%&&&&<%0gllzzgzzg0&@%o.&<<2<lb9e0*@@%%@@@@%$@@welo@%%%%%%%%%%%%wew%oooooooooo@@@ewwo.o@oo@@@oo2e0qn022;&%@o@@24;;;&;;2;;w&%@&@=7",
"&#%&%&&13334244742%@#.@;;43wcf9w&@&&&&%%%@@%%%ele@%%=*&;<;;;<&*ww0%@@%&%%&%&%&%%gwwo@o%&%&%&@oo0e9jx22;&&%oo@&;;&&&%%%%%2%XX@X;7",
"&&&&&<32<<<<&;%&@;%@Xo&<727zz0w2@@%@&2323;*&*%zew@%=&=2432422<<000%@=;4224424;&%e00@o@24343<&@o@wwwne2&;&%#o@@;@&%%@@%%%&2%@@@27",
"&&&&&<<&%&<&&%%#@&%XX%<4;4dxw4q&@%;&422707--&%g0w%&;2450007702<00w%@;408800742&%w0w@@&7004032&@%;w0gv02&&&%@o@&@@%%%%@&%%;<&&@27",
"&#%%<<&#&##X#X##X%&X@;<444xl0q&@%;;320e2w724&&www&;2240w00980220w0%%;7w9w97w04;&200%&%700w0042&%%7e0zx2;&&&%@o&@%%@o@##X#&;;%X;7",
"&&%###%X.@oooooXX@XX%;343flwe0@&&;24070gw741=&0we&-22400w9000320ww%%2www97e004;4l7w%&;000909002%%&wwwce;&&&%%oo  ooooo@  X###%27",
"&%@##@#oo .oo .o.#.%<2434ce9w@%&;24777000w41-&eww&;2149wwwww033ewe&&50w00www042&0gw&&2w99w0w774;%%3e9gv0;;&&%%%@o   o  oo####X24",
"&###@##o..........%@&<22jb0e4@&;2470079w0041;&wwe<1;4299w0w094<wew&;20ww0qqw972;ewe;;470000w0744;%%7e0zl4;;;%%@         o#@@##;4",
"%&&%07w077777077740<&33gbewe%&;;470000w9ew412;wew<22270e00w0043wew&;400qw0w0074&www;210q0w0000774;%&wwebe2;;20000077777777w7%&24",
"&&&&&gwew007777700w0<32ll9w&%;24470w000007452;wee242477ww00w973eew;27ww0w0wqw74;w002247ww07ww00704;&;e9gv0;20w0wwweweweeee9@&&24",
"&&%&%;zegeeww000wweegwbbe04%&24409000009074642ege224247ww0wq004eeg;2400ww90qw07;w0024500w0e4ww00074&&7ewlx0eeeeeeeeeeeggzw;%&#24",
"&&&&&&2mzzlllgeggglzzjvl7w%&;23707ww900007454;eeg2444400qq09004weg2140ww0ww0w872w002440we0weww000004&&0ewxlggeggggllllgbe2&&&&24",
"%&%&&&;7mmbnnmmMnNnMnzzw42%;2470000w0000975772ewe454544wqw0e004wee257w00wweqq972w0042470weq0900007072&2wwebxxmMnnllbxgbl0;&&&%44",
"&&%%&%&4geggegggggggggge<%;2477700w0w0wqw04774ewe47740009qww004wwe4700wq00w0w904w004770000w000w0000074&7w4w077790ww0907g4&%&%%27",
"#%&&&&&2ww90777w4400w970&;44777700w0w989905877eew707470ww7e9007ewe570w79wwqqw9040004077000e0008000w00w750w7070ww00w0wwwe4;&&&&24",
"#&&&%&%2037077744444w99047777000000w9000w08787ew0787000w4gw9007wwe47777qqww0999700w7040909w00wwq009900074w0090000wwww07e4&&%&&24",
"%X%&&&%2037827447777700777700000800009w0w97080w0w0970799w090w07www75087wqwq90w97w0w0800w9q0w0009we9w970707w09q00ww00w77e2&&&&%27",
"##%@%&%2700744442877788877000000;e00900000770909e085077q999w990www78050w99w0099990w09680999009q0wqw0000008700007700070002&&%&%;7",
"#%%&%&o467448443444444080000020;4290ww0wq07700w9w904787q9w09900www087700990w9999wdw9008999990099qwqqww07000000w2007087702&&&&%24",
"#@&#%&%4707704444444077880000044l7w0009090w080www8009099908090000098809q0880w9w0w9w8709999w9999qqq0ww0w00000700w7070784w4&&&#%=4",
"%%&&&&%47474lewwwewwe4748000000e0e709009q009wwwww0908899w99w0000000097w99999w9w9www0080w99990090qq9e00w07wlewwwewwe4904w2&&&&@=7",
"%&&%&%&40772gzgllglg7;408008000889w9w98w009000w9w0000909q99w00008007790999w9q9w9ww9908890890999099w8000w00gzgllglg7;w70w4&%&%%=0",
"#&;&%&&47042wlee0wee4;74800000000ww0909000008ww9w998889wqq9w999w009w880w99999999w9990689999909q999w8w09ww7wlee0wee4;e0002&&&&&27",
"%&&&@;%4074;ele00egw2;70w0770008999w000w090899ew999889wq099w9999ww08899w9990w999ww99807009899q090990000078ele00egw2;w77w4&<%%%=0",
"%%&&&&%4744;wz00weww2<4770700780000w0q0w90009wew99008950qww099990e99889w090999999990098q90089w009w09009907wz00weww2<737w2&&&&@=0",
"%&%@&&%4634;el0wew0q2<7400700008w80009ww008809w990090000999www0ww908700ww00909999990099099999990009809we9wel0wew0q2<w4702&%%@@20",
"%&%%&&%5704;ez09007q2<0000007000wq00w000w099w9709w00w400090wwqwwwww0900w0990ww9909098000900090900990880ew0ez09007q2<040e2&&&%%27",
"%&%&%&%542;;%%%%%##%%%77907ww00980q000ww0909070we9900w90wwqw9999www09w9000099w0w99900ww00099000000090ww0ww%%%%%##%%%274w2&&%&%20",
"%&&&;&&5033;%%%%%%#%%%40090w79ww0099w009999997wlg99eww990w9w9w9w9w99909w09w0909w999ww0wew0900000088907eqw0%%%%%%#%%%234e2&&;&&20",
"%#&%&;&4407;%%%%%%%%%%777070w00wq099000w99999ew0wee99q099q9w00w0qww80ww9w90w9999w09wqww0qwww0000988009wew0%%%%%%%%%%270w2&;&%&20",
"%%@&&;&4032;#o;7exe72ww0we0www0e9wwq9wq009099q0ww9099w99q99w99www0w9wwqwq99w999qw99809wew0w0ww0w0809900007w27exe7;o#223w2&<&&&20",
"%&&%;;%4707;%o;gwml720wwww4ew7gw9qwq99999999wweew90999909999w999009q9q0ww9999999w999w0www0wqww00888809ww00027lmwg;o%&400;&&&%&20",
"%&&&&;&4000;@.;leZg7209w00e9we97q99999909999990990q999999w9w9w99q9w9ww099qwwq0w0879900qw00wq00qw900009qwww027gZel;.@;47e;&&&&&27",
"%&&%&;&4002;@.2xeNl7;99w0ewww0w0qq990ww9099w9q0www999999qqqw0999q99www0090090099qq9902gww9qwww0wwqqq090007927lNex2.@&47w2&&&%&10",
"%&&&;;&4742#%.2leml7277000w0wwweww9wwe9qw99w999999q9q9999q99qw0q9q9w09070www0w098q9wwlwqw0009e0w9qqqw00q00727lmel2.%;740;&&<&&27",
"%&&&%<&4002;@.;eebl7;000wewewwewew0wew97w90089ww9989q909qw09099909909008000907w499099e9q000000ww9w000ww0ww027lbee;.@&40e2&&%&&20",
"%%&&&&&574;%%.;gwnlw2w0ww0ew0wwe0w9w007g9ww0w9w99w09q00099999089999w0998007w079g40990w999099q0wqw0w0www000w2wlnwg;.%;77e;&&&&&20",
"%&%&%;&444&&%.;ewMl0;0wwwww0www000w009ew0w09ww00q99999900099q990qw99w90000070909e79999w9qqw09q90eew9ww0eew020lMwe;.%;40e2&&%&%20",
"%%&&&;&544;&@.;weCz0;w00w07w00ww0009q99099080wwwq9q999q9w9w9990009ww9ww9w0w90wq99w999qqqww999099w007007wwww20zCew;.@&77w;&&&&&20",
"%&#&%&&4772%%o&0wVzw207w07w0w0wwww97990989999w00q99w9090090999990079q0wwww907ww09q9990999qw7909q9w00w000ww02wzVw0&o%&47w2&&&&#<0",
"%&&&&;&474;&@.&70Mgw;w79079w09990900998000999w999w0qw000070000ww000wwww09w000999999w990w9099070909ww0ww00ww2wgM07&.@;77e2&&&&&27",
"%@&&%;&274;&%.&40nlw;000908790900009098898099900qq90eeww0ww0000790790007900ww9q0999ww99999097979wwww000www02wln04&.%&47w;&&%&&20",
"%&&;;;&244;%@o&4wnl0;0448449478079w990999899ww999999w000w0094wwww0ww047078000099qq9q0qw9899000e9qww0eew0ww020lnw4&o@&24e2&&&&&20",
"%<;<;<&752;&%o%4ebl0;0798488800080w0888848999qw0qwqq90ew007;wmzlzlllbw240090099999990e9099979w7079w0wwww770;0lbe4%o%%<20;&&&&&50",
"&%&%<%o71;;% o@%&;24;&%39088807809898988888090999w9909www77;4gw00777w2&27000w9090w99qw99980997w799wwwww044&;42;&%@o &;2w2&&;&&2w",
"&&&&&@<432;% o@%;&;0;&&307987904099488880890990q9909ww9970424l00777004&200w0w700007ww000090w0w7007ww00ww74&;0;&;%@o &;2w2<%&&&2w",
"&%%#&%;7w;;% o@%&;27;&&490090048098099008909999990799009074;4z007700w2&277000w7000000w0790000w780900www072&;72;&%@o %;4l2<&&#&2w",
"&;&&&%&;l2;% o@%&;24;&@4ewweewweeddeeeeeeeeeeweeeedewdeeee724g707707w2;7weedwedeeeeweeeeeeeeeeddeewweewwe4&;42;&%@o &;7l;&%&&&5w",
"&;;%&&%@;0;@ o@%&&24;%7wgeggegggqggggllggllggllllllglgllggw;4e777777w24wellglgllllllggllggllggggqgggeggegw%;42&&%@o %2d4&%&&%;5w",
"&;;;;&&@@&2;2lgeegglxbeqgzzzlllzllzbzlllzzlzxxbMzbblxxxxzll44e700777w;0gzxxxxlbbzMbxxzlzzlllzbzllzlllzzzgebxlggeegl2;7w&%&&;;;5w",
"&;;;;;&&@@@@4eww0wgglz023342333333442442222222;;3422;;;;22;X4e000770w;%&;;;;;2243;;22222224424433333324337zlggw0wwe4@4%;&&;;;;5w",
"&;;;;;%&%@@@2ww7wewegz3ooooooooo@oooo@@ooo@oo o.ooo@. Xo@o@@4g0007770;@@@@@@o@@X@@@@@@@@@@@@@@@%@@@%@%@@%7zgewew7ww2o&&%&%;;;;5w",
"&<;;;<;;&;@%2ewwwwgwlb0oo#o@@ooooooo@ooooooo%ooo@@@@@.X.@@X@&2;;;;22;&@@@@@@X@X@@X@@@@X@@@X@@X@o@@@%@##%%7blwgwwwwe2&#<&;;;;;;5w",
"%2222222;2;2O702424277;;;;;;;;;;;;2;;2;;;;;2;;;;2;;;;;;;;;;&&O%@#X#OO;&;;;&;&;;&&&&&&&&&&&&&&;&;;;;;;;;;;;772424207O;;2;22222227"
};
