/* XPM */
static char *_4a3f6459da04ba5deb7dfbaf15a2d2dWnpbuBr4qkVFIpp1[] = {
/* columns rows colors chars-per-pixel */
"64 64 187 2 ",
"   c #11041F",
".  c #0F0B28",
"X  c #0F0D2A",
"o  c #100520",
"O  c #110721",
"+  c #100722",
"@  c #100824",
"#  c #120B25",
"$  c #130D27",
"%  c #100D29",
"&  c #130E28",
"*  c #120E29",
"=  c #0E102E",
"-  c #171127",
";  c #161129",
":  c #14102A",
">  c #14132D",
",  c #15142D",
"<  c #191328",
"1  c #1A1428",
"2  c #1C162A",
"3  c #18162C",
"4  c #19172C",
"5  c #1B1A2E",
"6  c #1F1B2E",
"7  c #0E1130",
"8  c #0F1331",
"9  c #0E1332",
"0  c #0E1534",
"q  c #0F1735",
"w  c #121733",
"e  c #161A31",
"r  c #161B33",
"t  c #101835",
"y  c #111A37",
"u  c #151E37",
"i  c #191B31",
"p  c #1F1E32",
"a  c #181E34",
"s  c #111B38",
"d  c #121D39",
"f  c #211D30",
"g  c #192037",
"h  c #1A2036",
"j  c #162038",
"k  c #15203B",
"l  c #14213C",
"z  c #15233E",
"x  c #17243D",
"c  c #182138",
"v  c #1A2339",
"b  c #19243B",
"n  c #1E2439",
"m  c #18243D",
"M  c #1B273C",
"N  c #18273F",
"B  c #1D273D",
"V  c #1E293B",
"C  c #1D2A3E",
"Z  c #252C37",
"A  c #212D3C",
"S  c #202D3E",
"D  c #25303B",
"F  c #24303E",
"G  c #26333E",
"H  c #2D363A",
"J  c #29333C",
"K  c #29343D",
"L  c #2D373C",
"P  c #2E393D",
"I  c #2C393E",
"U  c #182840",
"Y  c #1A2B41",
"T  c #192A42",
"R  c #1C2A40",
"E  c #1D2D42",
"W  c #1B2E45",
"Q  c #1F3143",
"!  c #1C3046",
"~  c #1E3146",
"^  c #1F3348",
"/  c #1E3449",
"(  c #202E40",
")  c #203042",
"_  c #223044",
"`  c #223444",
"'  c #283640",
"]  c #283741",
"[  c #273A46",
"{  c #2C3A40",
"}  c #2A3E47",
"|  c #2C3C44",
" . c #233748",
".. c #20374B",
"X. c #253749",
"o. c #21384A",
"O. c #253B49",
"+. c #273B4A",
"@. c #233A4C",
"#. c #293D4C",
"$. c #323C40",
"%. c #323D41",
"&. c #323F44",
"*. c #2C4047",
"=. c #2E4146",
"-. c #2B4049",
";. c #29404F",
":. c #2F444D",
">. c #334347",
",. c #324445",
"<. c #354644",
"1. c #374744",
"2. c #344446",
"3. c #384945",
"4. c #31464F",
"5. c #36494B",
"6. c #384A4B",
"7. c #3C4D49",
"8. c #3E4F4B",
"9. c #3D494C",
"0. c #394C4D",
"q. c #3B4D4C",
"w. c #2D4351",
"e. c #2F4653",
"r. c #334951",
"t. c #344D57",
"y. c #384A52",
"u. c #3D4D51",
"i. c #395057",
"p. c #3A5357",
"a. c #365059",
"s. c #3D5358",
"d. c #40524D",
"f. c #41534F",
"g. c #434F52",
"h. c #435551",
"j. c #415653",
"k. c #405254",
"l. c #405455",
"z. c #425457",
"x. c #445754",
"c. c #455951",
"v. c #465953",
"b. c #475C53",
"n. c #435955",
"m. c #475A55",
"M. c #495C57",
"N. c #4A5F57",
"B. c #435658",
"V. c #455A5B",
"C. c #475C5D",
"Z. c #4B5F5B",
"A. c #485D5C",
"S. c #4D6259",
"D. c #4C605B",
"F. c #4E625D",
"G. c #50655F",
"H. c #4E6663",
"J. c #506561",
"K. c #526661",
"L. c #546963",
"P. c #556C63",
"I. c #516964",
"U. c #566C65",
"Y. c #586F65",
"T. c #597067",
"R. c #5B7269",
"E. c #5D756B",
"W. c #5C796F",
"Q. c #607C6D",
"!. c #627D6D",
"~. c #627C6F",
"^. c #647F71",
"/. c #668273",
"(. c #678373",
"). c #678573",
"_. c #638275",
"`. c #648374",
"'. c #698673",
"]. c #698575",
"[. c #6B8875",
"{. c #6B8877",
"}. c #6E8D79",
"|. c #708F7B",
" X c #72927D",
".X c #779881",
"XX c #7A9C83",
/* pixels */
"1.8.D.L.L.E. XXXXXXXXXXXXXXXXX XE.Z.8.1.1.8.D.L.L.L.L.L.L.g.f o o   o o o o o @ = 0 0 9 0 d W / / O.>.3.1.1.1.1.1.,.O.E d d W ^ ",
"{ >.l.A.D.P.!.[.}. X XXXXXXXXX X/.P.D.c.b.S.T.R.P.L.L.L.Z.h.f o     o @ $ - < 2 a c l a c C ` +.+.-.,.3.<.<.,.,.,.=.O.` M M / ^ ",
"c C +.4.q.8.c.D.P.(. XXXXXXXXX X X}.].).'.}.}.'.R.L.L.D.h.P < o   o $ t u ( J L I I I P P { ,.,.,.,.,.3.1.,.| O.} } *.=.{ ] O./ ",
"0 s U Q ] { I >.s.L.W.'.'.]. X X X X.XXXXX X X'.R.K.G.h.>.Z - o   o w U _ +.>.1.3.<.3.1.<.<.3.1.<.<.<.3.3.=.-.[ / *.,.3.3.,.*.O.",
"0 0 s d k k c R #.4.s.b.b.D.T.E.E./. XXXXX X`.R.L.G.h.>.A e @ + o - x ! ^ ..>.3.3.<.1.1.1.1.1.1.<.1.1.1.1.<.,.,.,.,.1.1.1.<.1.=.",
"0 9 9 X = = X w g A J L P ,.8.l.V.H.W._._.W.H.V.B.u.1.F u 9 . @ o ; C O...+.#.>.*.>.<.1.1.1.1.1.1.1.1.1.1.1.1.1.1.1.1.1.1.1.3.3.",
"0 w . o . + + # : - < 3 h k C F O.e.t.a.a.t.e.@.( C c u t 9 X X o 4 K =.O./  .+.+.} <.1.1.1.1.1.1.1.1.1.1.1.1.1.1.1.1.1.,.1.3.3.",
"0 9 . o         o o o + % X w w M C W W W W W C d q t d t 0 0 9 . 5 %.5.*.O.+.[ [ | >.1.1.1.1.1.1.1.1.1.1.1.1.1.1.1.1.1.1.3.,.1.",
"0 9 9 X o o     o o       + . + - , q d d d d t 0 s U U s 0 0 9 = n 8.b.0.>.,.,.=.,.<.1.1.1.1.1.1.1.1.1.1.1.1.1.1.1.3.1.1.1.1.1.",
"0 0 9 9 X $ - - 1 1 1 1 1 1 1 1 1 1 c c c c k d q d W ! z d 0 0 0 C z.H.m.b.b.c.d.8.1.<.1.1.1.1.1.1.8.8.8.8.8.8.8.7.8.7.8.7.1.1.",
"0 0 9 9 = w l C J H H H H H L H J L I P I G Q U d d ! / ! U s 0 t R z.L./.(.'.!.G.b.7.1.1.1.1.1.1.8.m.D.D.D.D.D.D.D.D.Z.D.m.7.1.",
"d d c c c M ` -.,.1.1.1.1.1.1.3.3.<.3.1.<.,.=.~ x z / / / ! d 0 0 B y.I./. X.X X/.T.S.b.b.b.b.b.N.D.Y.E.E.R.P.L.L.F.L.S.Z.s.,.P ",
"W ~ ] I P { | >.1.1.1.1.1.1.1.1.1.1.1.1.3.,.,.I / W ~ / / / d 0 0 d X.i.I.^. X.X X}.'.'.'.'.'.'.'.'.}.}.|.].R.L.L.D.s.q.4.O.R c ",
"^ O.>.3.1.1.3.3.1.1.1.1.1.1.1.1.1.1.1.1.3.3.3.=.#.O./ O./ / x s s s U +.z.L./. X XXXXXXXXX X X X}. X|.|.|.`.P.Z.Z.s.1.' / ~ z u ",
"/ O.=.3.1.1.1.1.1.1.1.1.1.1.1.1.1.1.1.1.1.1.3.>.,.=.@.O.@./ ! U s s s R >.m.L.^. XXXXXXXXX X~.E.E.E.E.E.E.P.b.q.>.O.C M ~ / ~ W ",
"/ +.*.,.1.1.1.1.1.1.1.1.1.1.1.1.1.1.1.1.1.1.1.3.3.=.^ ! / / / ! d s t u A 3.x.Y.'. X X|. X[.R.L.D.D.D.Z.A.s.>.I +.` M V ` +...+.",
"/ @.O.-.=.3.3.1.1.1.1.1.1.1.1.1.1.1.1.1.1.1.1.1.1.{ C x ~ / @./ ! U d 0 g V >.c.P.E.E.E.E.R.P.D.h.8.8.8.4.O.C V I =.P { ,.,.,.,.",
"O.O.O.] ,.3.1.3.1.1.1.1.1.1.1.1.1.1.1.1.1.1.1.1.3.] c d U ! / / / C l 0 0 k D >.l.V.D.D.D.D.D.c.0.,.] ' Q x z M | 3.1.1.3.1.3.,.",
",.=.,.,.<.1.,.1.1.1.1.1.1.1.1.1.1.1.1.1.<.<.1.1.<.P M 0 d z W / / / d 0 w 0 d C +.r.q.8.8.8.8.7.-._ B u z l C ` ,.,.1.1.1.1.1.1.",
"3.3.3.3.1.1.1.1.1.1.1.1.1.1.1.1.1.1.8.8.8.8.8.8.<.I c 9 9 d U ! ! U d 0 0 0 0 s N ~ K H H H P K E C t 0 s k / -.,.1.1.1.1.1.1.1.",
"1.1.1.1.1.1.1.1.1.1.1.1.1.1.3.3.1.d.m.Z.D.D.D.m.7.] k 9 9 q s d d q q 0 9 0 9 0 d t 4 1 4 - - 1 ; : > d U / | >.1.3.1.3.1.1.1.1.",
"1.1.1.1.1.1.1.1.1.1.1.1.8.8.8.8.8.l.D.L.L.G.D.m.5.I C d q q s c l c g k g z M c g a > % + +       . % t ~ | 0.8.8.8.8.7.1.1.1.1.",
"1.1.3.3.1.1.1.1.1.1.1.d.b.Z.D.D.Z.K.L.L.L.Z.h.6.O.O.~ N s s N Q ] I P I ] P ] P ] ' ` n w X + o     + 4 K 5.c.D.A.S.S.c.8.3.1.1.",
"8.7.8.8.8.8.8.7.8.8.8.l.D.K.L.L.L.F.D.Z.Z.s.1.{ O.O.O.Q M N ` -.>.<.3.3.3.3.1.*.1.=.| Q M g , $ +     < P 8.S.L.R.R.E.Y.D.c.8.8.",
"S.S.A.S.D.D.D.D.D.D.D.G.K.L.L.L.L.S.h.q.4.@.C M ^ [ *.*.I { ,.,.1.3.1.1.1.,.I O.+.#.=.=.P G C c #     < L 8.D.R.].}.}.}.[.!.L.D.",
"E.E.E.W.E.E.E.R.P.L.L.L.L.L.L.K.K.h.>.' Q C l x ^ *.<.<.1.1.3.<.3.3.1.1.1.,.-.O.O.=.=.1.3.<.*.F > +   < Z 1.l.L.(. X.XXXXX X/.E.",
"|.|.|.|.|.|.|.].R.L.L.L.L.L.L.D.k.3.C a d l N ^ { =.<.1.1.1.1.1.,.,.3.<.3.,.,.=.=.>.1.1.3.,.,.G u % + @ e A 3.c.P.^. XXXXX.X X}.",
"'.'.'.'.'.'.].!.L.Z.Z.Z.C.C.l.u.>.F u t d x ` #.,.1.1.<.1.1.1.1.3.3.3.<.3.3.3.3.1.1.1.1.3.<.3.I z % % @ % e Z >.B.K.W._.).'.'.'.",
"b.b.N.b.b.b.c.c.d.8.8.q.e.#._ C g u w d x _ -.>.3.3.1.1.1.1.1.1.1.1.1.1.1.1.1.1.1.1.1.1.1.1.3.{ g = #   @ # u C O.e.t.p.n.b.b.b.",
"P P ] I I P L H P H P G C M t X 0 t d k / -.5.7.1.<.1.1.1.1.1.1.1.1.1.1.1.1.1.1.1.1.1.1.1.<.3.{ g = @     @ % w C E U ` ' { { { ",
"g c c c k a 4 4 - 2 a a , $ # X > s U ~ | 0.m.m.7.1.1.1.1.1.1.1.1.1.1.1.1.1.1.1.1.1.1.<.1.1.1.] k 9 @       @ # % > t d k c c c ",
"d d 0 0 9 9 # + + O % % + o   # e C +.e.7.8.M.m.7.1.1.1.1.1.1.1.1.1.1.1.1.1.1.1.1.1.7.8.8.8.>.P u X @         + # > e d d d d d ",
"W x d 0 0 0 9 % o o o o +     < Z 1.s.Z.D.m.d.d.1.1.1.1.1.1.1.1.1.1.<.1.1.1.1.1.1.8.c.D.D.l.4.W u X . o o     $ g C C W W ! U ! ",
"[ ` C k k g d t % # o o       < $.f.Z.L.L.Z.9.1.1.1.1.1.1.1.1.<.7.8.8.d.8.8.8.8.d.h.D.L.G.l.+.U s w % < < 1 1 5 G O.#.[ O.O.O.@.",
">.=.P I P ' Q x t % +         6 d.D.L.L.L.D.d.1.1.1.1.1.1.1.1.8.c.Z.D.D.D.D.D.D.Z.D.L.D.h.>.S s t t z S K H H P =.,.,.,.,.,.,.=.",
"3.3.<.3.3.>.| ` n a > $     + f g.L.Y.R.Q.P.f.d.8.d.8.8.8.8.d.h.Z.L.L.L.L.L.L.L.L.L.D.l.1.A u 0 s B ` +.,.1.1.1.3.<.<.<.1.1.3.3.",
"<.<.<.1.1.<.,.,.{ ' E g $     f g.T.].|. X(.P.Z.Z.Z.D.D.D.D.D.D.K.L.L.L.L.L.L.L.P.S.j.<.V c q d U ~ I >.1.3.1.1.1.1.1.1.,.1.1.1.",
"3.<.1.1.1.1.1.1.3.>.#.( i $ # f g.L.].|. X X~.Q.E.E.E.E.E.E.E.E.E.E.P.L.L.G.G.D.D.s.1.F h = = w ( #.<.1.>.3.1.1.1.1.1.1.3.1.1.1.",
"1.1.1.1.1.1.<.<.1.,.1.| ` m t a &.m.L.^. XXX X|.|.|.|.|.|.|.|.|.}.{.R.L.L.D.d.q.>.@.N c # + + 3 K >.3.<.3.,.3.<.1.1.1.1.1.1.1.1.",
"1.1.1.1.1.1.1.3.8.8.8.q.4.X.u u F 1.h.K.!.[.}.|.|.|.|.|.|.}.].'.].^.K.V.B.8.%.J V x q X + o + 3 P 1.8.8.7.7.3.1.1.1.1.1.1.1.1.1.",
"1.1.1.1.1.1.1.8.m.D.D.Z.A.y.B t u A 3.d.v.Z.U.E.E.E.E.E.E.Y.D.Z.h.s.5.#.` n 5 < - # # @ o + X h J 8.m.D.Z.N.8.3.1.1.<.1.1.1.1.1.",
"1.1.<.3.1.1.7.d.D.L.L.L.D.u.B 0 w u A { P >.u.z.h.s.B.l.B.u.&.{ { { / U t & +         + + % = d ` >.b.D.K.D.d.8.8.8.8.7.1.1.1.1.",
"1.1.1.3.1.8.b.F.K.L.L.D.h.>.g 9 0 s u u c c C A C E E C ( B c u c c d w # +           @ % = = q u A <.h.D.K.D.D.S.A.D.c.8.1.1.1.",
"b.c.8.8.8.h.F.K.G.D.D.l.1._ N u s d d s t 0 0 0 0 0 0 0 0 t s u c c a u 4 1 4 - 2 < < < h c l d t u F >.c.K.Y.E.E.E.E.R.S.b.b.b.",
"].!.L.D.D.F.L.D.l.8.8.3.A x U W W W W U s 0 0 0 0 0 0 0 0 q N Q ' { P I P H H H P J H P P F Q N t t u A 3.N./. X}.}.}.}.'.'.'.'.",
"}.].E.K.D.C.V.B.>.{ P F u d U W / ....~ U s d s s d q q t M / *.>.1.<.3.<.<.1.1.1.1.1.1.3.1.@.! z d d B F 8.Y.].}. XXXXXXXXXXXXX",
"E.R.L.C.r.e.e.+.R c c u 0 t s U ~ / ../ W W W W W U d t U / ] ,.1.>.3.<.<.1.1.1.1.1.1.1.3.=.+./ ! ~ U U C C 8.D.T.^. XXXXXXXXXXX",
"V.Z.V.p.w.O.O.E B c c c c u u z T W W W W W W W W x s c ~ =.,.3.3.3.3.<.1.1.1.1.1.1.1.<.>.*.[ ^ O.[ +. .x C I 0.l.H.W._._._._.'.",
"e.w.w.;.@.+.*.=.P I I I I G Q W z d d d d d d d d t q k ] ,.,.1.1.1.1.1.1.1.1.1.1.1.1.,.-.O./ [ *.>.*.<.P { O.O.w.e.t.a.a.a.a.a.",
"+.+.O./ O.O.*.=.=.,.,.3.3.,.*.` n N c c d t 0 0 0 0 0 k I <.3.3.1.1.1.1.1.1.1.1.1.1.1.,.| @.O.| >.3.<.<.1.,.*.O.~ U C E / / O.O.",
"=.=.>.*...^  .O.-.O.=.3.1.1.=.=.{ { P K ~ N d 0 0 0 w c I 3.<.3.1.1.1.1.1.1.1.1.1.1.3.<.,.*.<.<.<.1.<.<.1.<.>.P x w , e E  .=.>.",
"3.3.3.>.=.O.O.[ O.-.=.<.<.1.3.3.1.1.1.,.*.` M c l d q c I ,.,.3.1.1.1.1.1.1.1.1.1.1.,.3.3.3.1.1.1.1.1.<.,.3.3.P g : . - C #.,.3.",
"3.3.1.1.,.=.,.,.,.=.O.-.,.1.1.1.1.1.1.<.>.=.] P ! x d c ! *.,.3.1.1.1.1.1.1.1.1.1.1.1.1.1.1.1.1.1.1.1.1.1.1.1.L 4     1 J ,.3.3.",
"1.<.1.1.1.1.1.1.3.=.-.I ,.1.1.1.1.1.1.1.3.3.3.>.*.Q x z x Q *.3.7.7.1.1.1.1.1.1.1.1.1.1.1.1.1.1.1.1.1.1.1.1.1.H 1     1 H 1.<.<.",
"1.1.1.1.1.1.1.1.3.,.,.,.<.1.1.1.1.1.1.1.<.3.1.,.=.I / N z M I 7.c.Z.7.1.1.1.1.1.1.1.1.1.1.1.1.1.1.1.1.1.1.1.1.H 1     - H 1.1.1.",
"1.1.1.1.1.1.1.1.1.1.1.1.1.1.1.1.1.1.1.1.<.<.1.1.3.,.=.Q l c ' 0.Z.S.c.7.1.1.1.1.1.1.1.1.1.1.1.1.1.1.1.1.8.8.8.P 4   o 1 H 1.1.1.",
"1.1.1.1.1.1.1.1.1.1.1.1.1.1.1.1.1.1.1.1.1.1.1.1.3.1.,.K z u ` 4.Z.K.D.m.d.3.1.1.1.1.1.1.1.1.1.1.1.<.3.9.m.D.Z.9.6     1 P 3.1.1.",
"1.1.1.1.1.1.1.1.1.1.1.1.1.1.1.1.1.1.1.1.1.1.1.1.,.1.3.L x u N +.s.D.L.D.M.c.8.8.1.1.1.1.1.1.1.1.8.d.d.h.G.G.D.d.6     - H 3.1.1.",
"1.1.1.1.1.1.1.1.1.1.1.1.1.1.1.1.1.1.1.1.1.1.1.1.1.1.<.>.' U k C 1.h.D.R.!.!.I.m.8.<.1.1.1.1.1.d.c.Z.Z.D.K.D.z.L 2     1 H 1.1.1.",
"8.8.8.8.1.1.1.1.1.1.1.1.1.1.1.1.1.1.1.1.1.1.1.1.1.1.8.6.#./ u u A 1.x.L.(.[.!.T.D.b.b.b.b.c.d.f.G.L.L.L.G.h.>.Z -     1 J >.7.8.",
"D.D.D.N.8.1.1.1.1.1.1.1.1.1.1.1.1.1.1.1.1.1.1.1.1.7.m.b.9.J > & a S >.b.P.!.[.}.].].'.'.'.!.F.K.G.L.L.G.l.1.A e . o   ; A :.n.S.",
"I.L.L.D.h.8.8.8.7.7.3.3.1.1.1.1.1.1.1.1.1.1.1.1.1.8.D.D.h.P 2   . e Z %.s.L.E.[.}. X X}.|.].E.F.D.Z.m.k.1.A u 9 $ o . - M [ l.A.",
"L.L.L.K.D.D.D.S.S.c.7.1.1.1.1.1.1.1.1.1.1.1.1.1.1.8.D.K.G.9.5 + + @ 4 p [ 4.x.D.P.E.E.E.E.R.L.K.z.8.4.+.C u 0 0 9 X = 9 d C >.8.",
"L.L.L.L.L.L.I.L.L.S.8.1.1.1.1.1.1.1.1.1.1.1.1.1.3.8.D.L.L.h.6       o ; C +.,.8.S.L.L.L.L.L.K.Z.8.>.+.W d 0 0 0 0 0 0 0 0 k P 1."
};
