/* XPM */
static char *result[] = {
/* columns rows colors chars-per-pixel */
"128 128 9 1 ",
"  c magenta",
". c #C8BCC0",
"X c #CCC4C8",
"o c #D4CCD0",
"O c #D8D4D8",
"+ c #E0D8DC",
"@ c #E4E0E4",
"# c #ECE8EC",
"$ c #F4F0F4",
/* pixels */
"ooooXX    XXooooooooXXXX  XXXX                                                                                          XXXXXXXX",
"ooooXX    XXooooooooXXXX  XXXX                                                                                          XXXXXXXX",
"ooXX    XXooooooooXXXX    XX                                                        XX                                XXXXooooXX",
"ooXX    XXooooooooXXXX    XX                                                        XX                                XXXXooooXX",
"XX      XXooOOooXXXX    XX                                                    XXXX                                  XXXXooOOooXX",
"XX      XXooOOooXXXX    XX                                                    XXXX                                  XXXXooOOooXX",
"      XXooOOooooXX                                                          ooXX                                  XXXXooOOooXXXX",
"      XXooOOooooXX                                                          ooXX                                  XXXXooOOooXXXX",
"    XXooooOOooXX                                                          XXXX                                  XXXXooOOooXXXX  ",
"    XXooooOOooXX                                                          XXXX                                  XXXXooOOooXXXX  ",
"  ..XXooOOooXX                                                          XXooXX                                XXXXooOOooXXXX    ",
"  ..XXooOOooXX                                                          XXooXX                                XXXXooOOooXXXX    ",
"  XXooOOooXX                                                          XXooXX                                XXooooOOooXXXX      ",
"  XXooOOooXX                                                          XXooXX                                XXooooOOooXXXX      ",
"XXooOOooXXXX                                                        XXooXX                                XXooOOooooXX          ",
"XXooOOooXXXX                                                        XXooXX                                XXooOOooooXX          ",
"XXooOOXXXX                                                      XXXXooXX                                XXooOOooXXXX          XX",
"XXooOOXXXX                                                      XXXXooXX                                XXooOOooXXXX          XX",
"ooOOooXX                                                      XXXXooXX                                XXooOOooXX            XXoo",
"ooOOooXX                                                      XXXXooXX                                XXooOOooXX            XXoo",
"ooooXX                                                      XXooooXX                                XXooooooXX              oo++",
"ooooXX                                                      XXooooXX                                XXooooooXX              oo++",
"ooXX                                                      XXooooXX                                XXooXXXX                oo++oo",
"ooXX                                                      XXooooXX                                XXooXXXX                oo++oo",
"XX                                                      XXooooXX                                XXXXXX                  oo++oooo",
"XX                                                      XXooooXX                                XXXXXX                  oo++oooo",
"                                                      XXooooXX                                XXXXXX                  XXooooooXX",
"                                                      XXooooXX                                XXXXXX                  XXooooooXX",
"                                                    XXooooXX                                XXXXXX                  XXooooXXXX  ",
"                                                    XXooooXX                                XXXXXX                  XXooooXXXX  ",
"                                                  XXOOooXX                                XXXXXX                  XXooXXXXXX    ",
"                                                  XXOOooXX                                XXXXXX                  XXooXXXXXX    ",
"                                                XXOOooXX                                XXXXXX                    XXXXXX        ",
"                                                XXOOooXX                                XXXXXX                    XXXXXX        ",
"                                              XXOOooXX                                XXXXXX                    XXXX            ",
"                                              XXOOooXX                                XXXXXX                    XXXX            ",
"                                            XXOOooXX                                XXXXXX                                      ",
"                                            XXOOooXX                                XXXXXX                                      ",
"                                          XXOOooXX                                XXXXXX                                        ",
"                                          XXOOooXX                                XXXXXX                                        ",
"                                        XXOOooXX                                XXXXXX                                          ",
"                                        XXOOooXX                                XXXXXX                                          ",
"                                      XXXXXXXX                                XXXXXX                                            ",
"                                      XXXXXXXX                                XXXXXX                                            ",
"                                    XXOOOOooXX                                XXXX            XX                                ",
"                                    XXOOOOooXX                                XXXX            XX                                ",
"                                  XXOOooooXX                                XXXX          XXXX                                  ",
"                                  XXOOooooXX                                XXXX          XXXX                                  ",
"                                XXOOooooXX                                XXXX          XXXX                                    ",
"                                XXOOooooXX                                XXXX          XXXX                                    ",
"                              XXOOooooXX                                XXXX        XXXXXX                                      ",
"                              XXOOooooXX                                XXXX        XXXXXX                                      ",
"                    XX      XXOOooooXX                                  XX        XXooXX                                        ",
"                    XX      XXOOooooXX                                  XX        XXooXX                                        ",
"                  XX      XXOOooooXX                                  XX        XXooXX                                          ",
"                  XX      XXOOooooXX                                  XX        XXooXX                                          ",
"                oo    XXXXOOooooXX                                  XX        XXooXX                                            ",
"                oo    XXXXOOooooXX                                  XX        XXooXX                                            ",
"              ooXX  XXXXOOooooXX                                  XX        XXooXX                                              ",
"              ooXX  XXXXOOooooXX                                  XX        XXooXX                                              ",
"            ooXX  XXXXooooooXX                                              ooXX                                                ",
"            ooXX  XXXXooooooXX                                              ooXX                                                ",
"        XXooXX  XXXXoooooooo                                            XXXXXX                                                  ",
"        XXooXX  XXXXoooooooo                                            XXXXXX                                                  ",
"      XXooXXXXXXXXoooooooo                                            XXooooXX                                                  ",
"      XXooXXXXXXXXoooooooo                                            XXooooXX                                                  ",
"    XXooXXXXXXXXoooooooo                                            XXooXXXX                                                    ",
"    XXooXXXXXXXXoooooooo                                            XXooXXXX                                                    ",
"    ooXXXXXXXXoooooooo                                            XXooXXXX                                                      ",
"    ooXXXXXXXXoooooooo                                            XXooXXXX                                                      ",
"  XXXXXXXXXXoooooooo                                          XXXXooXXXX                                                        ",
"  XXXXXXXXXXoooooooo                                          XXXXooXXXX                                                        ",
"XXXXXXXXXXoooooooo                                        XXXXXXooXXXX                                                          ",
"XXXXXXXXXXoooooooo                                        XXXXXXooXXXX                                                          ",
"XXXXXXXXoooooooo                                        XXXXXXooXXXX                                                          XX",
"XXXXXXXXoooooooo                                        XXXXXXooXXXX                                                          XX",
"  XXXXoooooooo                                      XXXXXXXXooXXXX                                                          XXXX",
"  XXXXoooooooo                                      XXXXXXXXooXXXX                                                          XXXX",
"  XXXXooooooXX                                  XXXXooXXXXXXXXXX                                                        XXXX    ",
"  XXXXooooooXX                                  XXXXooXXXXXXXXXX                                                        XXXX    ",
"XXXXXXooooXX                                XXooooooooXX  XXXX                                                        XX        ",
"XXXXXXooooXX                                XXooooooooXX  XXXX                                                        XX        ",
"XXXXXXooXX                                XXoooo++ooXX  XXXXXX                                                                XX",
"XXXXXXooXX                                XXoooo++ooXX  XXXXXX                                                                XX",
"XXXXXXXX                                oo++++++ooXX  XXXXXX                                                                XXoo",
"XXXXXXXX                                oo++++++ooXX  XXXXXX                                                                XXoo",
"XXXXXX                                oo++++++ooXX  XXXXXX                                                                XXooOO",
"XXXXXX                                oo++++++ooXX  XXXXXX                                                                XXooOO",
"XX                                  oo++++++++XX  XXXXXX                                                                XXooOOoo",
"XX                                  oo++++++++XX  XXXXXX                                                                XXooOOoo",
"                                  ++@@@@@@++XX  XXXXXXXX                                                              XXooOOooXX",
"                                  ++@@@@@@++XX  XXXXXXXX                                                              XXooOOooXX",
"                                ++######++XX    XXooXXXX                                                              XXOOooXX  ",
"                                ++######++XX    XXooXXXX                                                              XXOOooXX  ",
"                              ++######++XX    XXooXXXX                                                              XXOOooXX    ",
"                              ++######++XX    XXooXXXX                                                              XXOOooXX    ",
"                          XX++$$$$$$++XX    XXooooXXXX                                                            XXOOXXXX      ",
"                          XX++$$$$$$++XX    XXooooXXXX                                                            XXOOXXXX      ",
"                        XX++$$$$$$++XX    ooooooooXXXX                                                          XXOOXX          ",
"                        XX++$$$$$$++XX    ooooooooXXXX                                                          XXOOXX          ",
"                      XX++##$$$$++XX    ooooooooooXX    XX                                                    XXOOXX            ",
"                      XX++##$$$$++XX    ooooooooooXX    XX                                                    XXOOXX            ",
"                    XX++####$$++oo    ooooooooooXX  XXXXXX                                                  XXOOXX              ",
"                    XX++####$$++oo    ooooooooooXX  XXXXXX                                                  XXOOXX              ",
"                  XX++@@####++oo    oo++++++ooXX  XXXXXX                                                  XXOOXX                ",
"                  XX++@@####++oo    oo++++++ooXX  XXXXXX                                                  XXOOXX                ",
"                XX++++@@##++oo    oo++++++ooXX  XXXXXX                                                    XXXX                  ",
"                XX++++@@##++oo    oo++++++ooXX  XXXXXX                                                    XXXX                  ",
"              oo++++++@@++oo    oo++++++ooooXXXXXXXX                                                    XX                      ",
"              oo++++++@@++oo    oo++++++ooooXXXXXXXX                                                    XX                      ",
"            oo++++++++++oo  XXoo++++++ooooXXXXooXX                                                    XX                        ",
"            oo++++++++++oo  XXoo++++++ooooXXXXooXX                                                    XX                        ",
"          oo++++++++++oo  XXoo++++++++ooXXXXooXX                                                    XX                          ",
"          oo++++++++++oo  XXoo++++++++ooXXXXooXX                                                    XX                          ",
"        oooo++++++++oo  XXoo++++++++ooXXXXooXX                                                                                  ",
"        oooo++++++++oo  XXoo++++++++ooXXXXooXX                                                                                  ",
"      oooooo++++++oo  XXoo++++++ooooXXXXooXX                                                                                    ",
"      oooooo++++++oo  XXoo++++++ooooXXXXooXX                                                                                    ",
"    XXoooooo++++XX  XXoooo++++ooooXXXXoooo                                                                                      ",
"    XXoooooo++++XX  XXoooo++++ooooXXXXoooo                                                                                      ",
"  XXXXooooooooXX  XXooooooooooXXXXXXoooo                                                                                        ",
"  XXXXooooooooXX  XXooooooooooXXXXXXoooo                                                                                        ",
"XXXXXXooooooXX  XXXXooooooooXX  XXoooo                                                                                          ",
"XXXXXXooooooXX  XXXXooooooooXX  XXoooo                                                                                          ",
"XXXXXXooXXXX  XXXXooooooooXX  XXoooo                                                                                          XX",
"XXXXXXooXXXX  XXXXooooooooXX  XXoooo                                                                                          XX",
"XXXXXXXXXX    XXooooooXXXX  XXoooo                                                                                          XXXX",
"XXXXXXXXXX    XXooooooXXXX  XXoooo                                                                                          XXXX"
};
