/* XPM */
static char *_545dfa7d3bd4e5ddf2e7f54ca138db699R0iyZPbgSmfhdC[] = {
/* columns rows colors chars-per-pixel */
"64 64 150 2 ",
"   c #406B81",
".  c #416E83",
"X  c #437489",
"o  c #45778B",
"O  c #46798D",
"+  c #4C7B8E",
"@  c #4A7E8F",
"#  c #477D91",
"$  c #4B8091",
"%  c #498093",
"&  c #4A8295",
"*  c #4B8699",
"=  c #4F8999",
"-  c #4D899B",
";  c #518292",
":  c #508496",
">  c #5A8394",
",  c #5C8595",
"<  c #558B9A",
"1  c #5E8C9C",
"2  c #618797",
"3  c #65909F",
"4  c #4F8FA1",
"5  c #5192A3",
"6  c #5496A5",
"7  c #5896A6",
"8  c #5599A7",
"9  c #5398A9",
"0  c #579CA9",
"q  c #559CAC",
"w  c #569EAD",
"e  c #6892A1",
"r  c #659BA9",
"t  c #669EAC",
"y  c #59A3AF",
"u  c #5CA0AE",
"i  c #5EA5AD",
"p  c #5BA5B1",
"a  c #5EAAB3",
"s  c #68A1AD",
"d  c #6DA2AF",
"f  c #61A7B2",
"g  c #69A4B1",
"h  c #63ACB1",
"j  c #64AFB3",
"k  c #60ACB5",
"l  c #62AEB5",
"z  c #65AEB6",
"x  c #6AA8B4",
"c  c #6CAAB5",
"v  c #6FAFB8",
"b  c #74A7B4",
"n  c #71ACB7",
"m  c #73ADB9",
"M  c #63B1B7",
"N  c #65B3B9",
"B  c #67B5B9",
"V  c #6AB5BA",
"C  c #68B8BB",
"Z  c #6ABABD",
"A  c #6DBFBF",
"S  c #73B1B5",
"D  c #76B3BB",
"F  c #75B4B8",
"G  c #78B0BC",
"H  c #78B4BD",
"J  c #7DB8C0",
"K  c #79BDC0",
"L  c #7ABFC1",
"P  c #6FC2C1",
"I  c #74C3C2",
"U  c #7DC4C4",
"Y  c #7FC6C5",
"T  c #8FB3BB",
"R  c #91B6BD",
"E  c #94BABF",
"W  c #80B9C2",
"Q  c #86B8C0",
"!  c #89B9C1",
"~  c #93BCC3",
"^  c #90BEC6",
"/  c #A5BFC3",
"(  c #80C1C3",
")  c #82C3C5",
"_  c #85C8C7",
"`  c #87C6C8",
"'  c #89C7CA",
"]  c #87CAC8",
"[  c #8CCDCC",
"{  c #8ECFCE",
"}  c #95C0C5",
"|  c #96C2C7",
" . c #98C4C7",
".. c #9AC7C9",
"X. c #90CBCA",
"o. c #95CDCB",
"O. c #97CFCD",
"+. c #9BC9CB",
"@. c #9ECECD",
"#. c #9CD2D1",
"$. c #9FD3D2",
"%. c #A6C2C6",
"&. c #ADC7CB",
"*. c #A9C8CB",
"=. c #AACCCE",
"-. c #ACCECF",
";. c #A0D0CF",
":. c #A6D2D0",
">. c #AFD3D2",
",. c #B1D0D1",
"<. c #B1D0D3",
"1. c #B1D5D3",
"2. c #B3D3D4",
"3. c #B6D7D5",
"4. c #B8D4D6",
"5. c #B6D8D7",
"6. c #B8D8D7",
"7. c #BFD8D7",
"8. c #BBD6D8",
"9. c #BFD7DB",
"0. c #B8DAD8",
"q. c #BDDCDA",
"w. c #C1DAD8",
"e. c #C7DCDA",
"r. c #C0DADD",
"t. c #C0DDDC",
"y. c #C9DDDB",
"u. c #C8DFDD",
"i. c #CEE0DF",
"p. c #C7DFE2",
"a. c #C5E1E1",
"s. c #C6E4E2",
"d. c #C9E1E4",
"f. c #CEE3E5",
"g. c #CCE5E4",
"h. c #CCE6E6",
"j. c #CEE9E8",
"k. c #D0E2E0",
"l. c #D5E5E4",
"z. c #D8E7E5",
"x. c #D7E9E7",
"c. c #D3EAE9",
"v. c #DCEAE9",
"b. c #DDEBEB",
"n. c #DFECEA",
"m. c #DEEDEC",
"M. c #E4EFEE",
"N. c #E6F1EF",
"B. c #EBF4F3",
"V. c #EEF6F5",
/* pixels */
"P _ 1.e.e.e.e.k.M.V.V.V.V.V.V.j.[ h $ O 5 n *.e.e.e.e.e.e.e.e.1._ P P ] 1.i.w.-.m q q 4 o     2 / k.M.M.k.e.e.k.M.B.V.M.k.e.e.e.",
"P _ 1.e.e.e.e.i.v.N.B.V.V.B.N.a.` i # O 6 F -.e.e.e.e.e.e.e.e.1._ P P ) ;.1.>...x q q 4 o . X e &.l.M.v.k.e.e.k.M.V.V.M.k.w.4.4.",
"P _ 1.e.e.e.e.y.i.z.N.V.V.N.z.2.H 8 O @ f ( 1.e.e.e.e.e.e.e.e.1._ P P P Y ] _ H a q q 4 o o * b w.M.k.p.y.e.e.k.M.V.V.M.k.5.o.` ",
"_ o.3.e.e.e.e.y.i.z.N.V.V.m.t. .s & X ; n o.3.e.e.e.e.e.e.w.5.;.Y P P P P P P Z p 9 5 * X O r ^ k.M.k.y.e.e.k.z.N.B.N.v.i.1.` A ",
"1.3.w.e.e.e.e.i.v.N.B.V.V.c.$.F < X . > E 5.w.e.e.e.e.e.e.3.o.Y P P P P P P P Z p 5 @ X   > T 9.b.M.k.e.e.k.v.N.B.N.z.i.y.1._ A ",
"e.e.e.e.e.e.e.k.M.V.V.B.N.a.` i @     2 %.e.e.e.e.e.e.e.e.1._ P P P P P P A Z M p 4 O . X 3 &.l.M.x.k.e.e.k.M.V.V.N.k.w.3.;.) I ",
"e.e.e.e.e.e.e.k.M.V.V.N.z.2.H 6 O     2 / e.e.e.e.e.e.e.e.1._ A P P P P P Z a y q 4 X o * b w.v.k.p.e.e.e.k.M.V.V.N.i.5.o.Y I A ",
"e.e.e.e.e.e.e.k.M.V.V.m.t. .s * X . X 3 %.e.e.e.e.e.e.w.3.;.( I P P P A Z M y 8 5 * X @ r ~ f.M.k.e.e.y.k.l.N.V.B.N.i.1._ I Y _ ",
"e.e.e.e.e.e.e.k.M.V.V.c.$.F < X . X * g *.y.e.e.e.e.e.5.o.U I P P P P Z a y y 4 % X . > T 3.v.N.k.e.y.k.x.N.B.V.V.N.i.1.] ) ;.1.",
"e.e.e.e.e.y.i.z.N.V.V.h.' i @     o 6 F -.e.e.e.e.e.e.1.] P P P P P P Z p q q 4 o     1 %.i.v.v.y.e.y.k.N.V.V.B.N.x.i.>._ _ 1.e.",
"e.e.e.e.e.i.v.N.B.V.V.d.W 6 O     @ i Y ,.e.e.e.e.e.e.1._ P P P P P P C p q y 4 O .   , %.e.i.i.y.y.y.k.N.B.V.N.z.i.i.3._ _ 1.e.",
"e.e.e.e.e.k.M.V.V.B.N.9.b * X     @ h Y ;.1.1.1.1.>.>.$.Y P P P P P P C p 6 4 * X . X 3 %.e.e.e.y.y.y.z.N.B.B.N.k.w.3.;.[ o.3.e.",
"e.e.e.e.e.k.M.V.V.N.z.&.e X .     $ h I Y _ _ _ _ _ _ Y I P P P P P P C p 5 % X . X * s *.e.e.e.y.y.v.N.B.V.V.N.i.3.o.X.;.3.w.e.",
"e.e.e.y.i.z.N.V.V.m.t.E ,         $ i Z A P P P P P P P P P P P P P P C p 4 o . X & s T ,.e.e.e.e.k.N.B.V.V.V.N.k.1._ _ 3.e.e.e.",
"e.e.e.i.v.N.B.V.V.c.$.S ;         O 6 h Z P P P P P P P P P P P P P P C p 4 o X * s ~ ,.7.e.e.e.y.k.N.V.V.V.V.N.k.1._ _ 1.e.e.e.",
"e.e.e.k.M.V.V.B.N.a.` i @         X * 5 i M C C C Z A P P P P P P A Z M y 5 % % 4 n -.e.e.e.e.y.y.z.N.V.V.B.N.v.i.3.o.o.3.e.e.e.",
"e.e.e.k.M.V.V.N.x.3.H 6 O         . X O @ < 0 p p a Z P P P P P P Z a u q q 5 5 6 v -.e.e.e.e.i.N.N.B.V.V.N.z.i.y.w.3.3.w.e.e.e.",
"e.e.e.k.M.V.V.m.q. .t * o         . X o o # 5 q q y C P P P P P P C p q q q q q x T ,.e.e.e.e.k.M.B.V.V.V.M.k.w.3.3.w.e.e.e.e.e.",
"e.e.e.k.M.V.V.c.#.F < X .         o * 4 4 5 9 q 9 i C P P P P P P C p q q q q x ! 2.w.e.e.e.e.k.M.V.V.V.V.N.k.3.o.o.3.e.e.e.e.e.",
"e.y.i.z.N.B.N.a.` i @         . X # 5 q y p p p y y C P P P P P Z M p q q q q n -.y.e.e.e.y.i.z.N.V.V.B.N.v.i.3.o.o.3.e.e.w.3.1.",
"e.i.v.N.B.N.z.2.H 6 O         X * 5 9 y M C C M i i B P P P P Z a p q q q q q V =.e.e.e.e.i.v.N.B.V.V.N.z.y.y.w.3.3.w.e.e.3.o._ ",
"e.k.M.V.V.m.t. .s * X     . X $ 5 q q p B P P B 0 0 C P P P P C a 0 q q q u x T ,.e.e.e.e.k.M.V.V.V.V.M.k.w.3.5.w.e.e.e.e.3.o._ ",
"e.k.M.V.V.c.$.F < X .     X * 5 9 q q p C P P a : = M P P P P C p q q q q g } ,.9.e.e.e.e.k.M.V.V.V.V.M.k.4.o.o.3.e.e.e.e.w.3.1.",
"e.k.M.B.N.a.` i $         o 4 q 9 y p a Z P I h $ @ a Z A P P C p q q q q n -.e.e.e.e.e.e.k.M.V.V.B.N.v.k.1._ _ 1.e.e.w.3.3.w.e.",
"e.k.M.N.z.2.H 6 O         o 4 0 q p M Z P P P a $ O 6 a Z P P C p q q q q V =.e.e.e.e.e.e.k.M.V.V.N.z.i.y.1._ _ 1.e.e.3.o.o.3.e.",
"e.k.M.m.t. .s * X     . X & 8 p p a Z P P P C i $ X * 0 B P P Z a y y q q x =.e.e.e.e.y.i.z.N.V.V.N.i.e.e.3.o.o.3.e.e.3.o.o.3.e.",
"e.k.M.c.$.F < X .     X * 8 k C C C P P P Z a 9 O . X = M A P A K M y q q c =.e.e.e.e.i.v.N.B.V.V.N.k.y.e.w.3.3.w.e.e.w.3.3.w.e.",
"e.i.v.s.[ h $         o 4 p C P P P P P P C p 5 & X . $ h P P P P N y y x Q <.e.e.e.e.k.M.V.V.V.V.M.i.w.3.3.w.e.e.w.3.3.w.e.e.e.",
"e.y.i.0.] h $         o 4 p C P P P P P P C p 9 5 * X $ h P P P I N p g ^ ,.w.e.y.e.e.k.M.V.V.V.V.N.k.3.o.o.3.e.e.3.o.o.3.e.e.e.",
"e.w.3.@.L i @     . X & 8 k Z P P I Y _ I Z a y p 6 & = M P P P K L V R 2.e.e.e.y.y.i.z.N.V.V.V.N.x.y.3.o.o.3.e.e.1._ _ 1.e.e.e.",
"e.3.o.L z 6 O     X * 8 k Z A P P ) $.@.Y K C C C M 6 0 B P P P P I +.,.w.e.e.e.e.y.v.N.B.V.V.N.x.y.y.w.5.3.w.e.e.1._ _ 1.e.e.e.",
"e.1._ B 0 * X     o 4 p C I P I Y [ @.:.Y P P P P C p p C P P P P _ 2.e.w.e.e.e.e.k.M.V.V.V.V.M.k.y.y.y.e.y.i.y.6.;.Y _ 1.e.e.e.",
"e.>._ M * X X     O 4 i C P P Y ;.$.[ Y I P P P P C p p K P P P P _ 1.e.e.e.e.e.e.k.M.V.V.V.V.M.k.e.e.e.e.u.v.s.#.Y I _ >.e.e.e.",
">.@.K i $       X $ 8 M Z P P _ 3.>.` I Y ` ` Y P C p p N P P P Y o.5.e.e.e.e.e.e.k.M.V.V.B.N.v.i.e.e.e.f.l.M.i.[ P P _ 1.e.e.e.",
"] K M 6 O     X & 0 M C A P A ] 1.1._ Y $.,.3.;.I P a y C P P Y #.5.7.e.e.e.e.e.e.k.M.V.V.N.z.i.y.e.e.i.b.m.l.5._ P P _ 1.e.e.e.",
"P C i 5 X     o 5 p C P P P _ X.;.;.Y ] 1.e.w.1.I N a y K P P ' >.e.e.e.e.e.e.y.i.z.N.V.V.M.k.e.e.e.e.k.N.m.7.$.Y I Y o.5.e.e.e.",
"P C y 5 O     o - y B P P ) ;.;.o.) A _ 1.y.y.=.K a N K A P P Y 3.e.e.e.e.e.e.f.v.N.B.V.V.N.k.e.e.e.e.k.N.x.#.` I Y ;.3.w.e.e.e.",
"P C q * X . X $ q M Z P P _ 1.1.` I ) O.t.y.y.=.c p M K P A C I >.e.e.e.e.e.y.u.M.V.V.B.N.z.k.e.e.y.e.z.M.p.[ P A _ 1.e.e.w.5.1.",
"A M = X . X * 8 M Z A P A _ 1.1._ Y ;.q.x.v.p.=.N p C P A C a D -.e.e.e.e.e.y.u.M.V.V.N.z.k.y.e.e.i.v.v.l.5.] P I _ 1.e.e.5.o._ ",
"M i @     X 5 i C P P P _ X.;.;.Y ] 1.k.M.v.9.^ z y C P K K y v =.e.e.e.e.e.e.l.M.V.V.M.k.e.e.e.e.k.M.M.7.;.) P P _ 1.e.e.1._ P ",
"f 6 o     o 4 p C P P Y ;.;.[ Y P ] >.i.N.h.} x y p C P P C p v =.e.e.e.e.e.e.k.N.V.V.M.k.e.e.e.e.i.N.c.#.Y I P P _ 1.e.e.1._ P ",
"i 4 o   X & 0 a Z P P _ 1.1._ I ) O.q.l.n.q.H 0 y k C P P C p c =.e.e.e.e.e.k.z.N.V.V.M.k.e.e.e.i.l.n.s.{ P P P P Y ;.>.1.;.Y P ",
"q 4 o X * 8 M C A P I _ 1.5._ _ ;.q.n.n.l.>.m u M C A P P M p M =.e.e.e.e.k.z.N.B.V.V.M.k.e.e.k.n.n.l.6.] P P P P I Y _ _ Y I P ",
"q 4 % % 5 p C P P I ) X.;.;.) ] 1.i.N.v.0.} x p C P P P K M k K -.e.e.e.e.k.N.V.V.V.M.z.k.e.e.k.N.N.f.1.) P Z C C C C Z A A Z C ",
"q 9 5 5 6 p Z P P Y ;.$.[ Y I ] 1.f.M.h.! x p p C P P C k a M U >.e.e.e.e.u.N.B.V.N.z.y.y.y.e.k.N.M.i.>.` Z h y p p p a Z Z a p ",
"q q q y y a Z P P ` >.1.` I _ o.w.l.v.d.J a p f C P P C p h F o.3.e.e.k.k.z.N.V.V.M.k.e.y.y.p.k.n.x.q.;.) B 0 5 q q q p C C p 0 ",
"q q q y M Z A P P ] 2.3.) Y ;.7.c.M.l.5.) B Z Z A A P C p S +.5.w.e.e.k.v.N.B.V.V.M.k.y.y.k.v.M.l.q.o.Y I M * @ 5 q 0 p C C p 0 ",
"q q q p C P P I ) o.;.;.[ o.3.k.M.v.q.@.Y P P P A K K M a G -.e.e.e.e.u.N.V.V.B.N.v.e.y.e.k.M.M.i.1._ A C f @ @ r n n V B N p q ",
"q q q y C P P ) ;.;.X.X.;.3.w.k.M.c.$.Y I A I P P Z a a B ) >.e.e.e.y.k.N.V.B.N.x.i.e.e.y.i.M.N.i.1._ Z k 6 o > R =.=.| m w p 9 ",
"q q q p C P P _ 1.3.o.X.3.i.i.l.n.l.#._ _ Y I A Z M u a G o.5.e.e.e.e.k.N.V.B.N.i.e.e.i.y.f.M.x.q.;.H M q * @ e &.y.y.&.g 5 9 0 ",
"q 9 q p C P P ] 1.w.3.3.w.i.v.M.l.u.4.1.>.;.Y C a u q c ..3.w.e.e.e.e.i.M.B.B.N.i.e.w.i.N.v.l.0.o.U C 8 & # = b r.v.p.%.e @ 5 q ",
"q y p a Z I ) X.:.3.w.i.e.i.M.M.k.e.y.e.e.>.Y M p q 0 V -.e.e.e.e.e.y.k.z.N.N.x.i.e.y.i.M.n.7.$.I h 8 * o + r ! k.M.k./ , X * 4 ",
"q p B Z A Y ;.;.X.o.1.w.e.k.M.M.k.e.e.e.e.=.F p q q q V =.w.e.e.e.e.e.y.i.i.k.i.i.e.e.i.M.x.:.U z 8 @ O . > R 9.b.M.k.%.2 . X o ",
"n B Z P P ] 1.3.o.o.3.i.i.l.M.v.z.y.y.e.e.-.m q q q u F <.e.e.e.e.e.e.e.e.e.i.e.e.e.e.i.v.a.` a 8 * X . o 3 &.l.M.l.4.R 3 # > 2 ",
"=.+.Y I P ` 1.e.3.3.7.i.z.M.k.l.M.v.y.y.e.-.b q q p N Y ,.y.y.e.e.e.e.e.e.e.e.e.e.e.e.e.u.2.G q $ X . O & b 9.v.l.3.Q g 7 r R / ",
"e.1.( I Y [ @.5.w.e.i.k.M.N.z.z.N.N.f.8.2.! t 5 9 f H O.4.w.e.e.e.e.e.e.e.e.e.e.e.e.e.w.3. .s * o     O r ^ h.M.u.,.Q m b Q ,.w.",
"e.1._ Y ;.:.X.o.3.e.e.k.M.N.N.N.B.M.f.,.R s & & 5 x ..3.w.e.e.e.e.e.e.e.e.e.e.e.e.e.e.3.o.F < X .     + R r.v.M.l.w.,.&.=.,.w.e.",
"e.1._ Y ;.:.X.o.1.i.i.k.M.M.B.V.V.N.k.*.c 4 o O 6 F -.e.e.e.e.e.e.e.e.e.e.e.e.e.e.e.e.2.U i @       o e &.k.v.M.u.w.e.e.e.e.e.e.",
"e.1._ I Y X.:.3.w.y.M.M.l.z.N.V.V.N.k.-.v 5 o @ i ( >.e.e.e.e.e.e.e.e.e.e.e.e.e.e.e.e.-.G 6 O     o * b w.v.z.e.y.e.e.e.e.e.e.e.",
"1.;.Y I Y o.3.e.e.k.M.M.z.z.N.V.V.v.8.~ r - # < F o.3.e.e.e.e.e.e.e.e.e.e.e.e.e.y.w.2...c 4 o     + r ^ i.M.k.e.y.y.k.k.e.e.e.e.",
"_ Y I Y ;.3.w.w.i.k.M.B.N.N.B.V.V.f.^ r : # = t  .5.w.w.e.e.e.e.e.e.e.e.e.e.e.e.e.3.o.I g 4 o     + ~ e.v.M.k.e.e.k.z.M.p.e.e.e.",
"A A A ] 1.e.e.i.i.k.M.N.B.V.V.B.N.t.G 4 o O 6 F -.y.y.y.e.e.e.w.3.3.w.e.e.e.e.w.5.@.L a 9 * X . o e &.l.M.v.i.e.u.z.M.M.k.e.e.e.",
"P P I ] 1.e.w.i.z.M.l.z.N.V.V.N.l.,.m 4 o @ i Y ,.e.y.e.e.e.e.3.o.o.3.e.y.w.e.3.o.K m 9 # o . X + b r.M.z.k.y.u.M.M.B.M.k.e.e.e.",
"P P A ] 1.e.e.i.M.M.k.k.M.V.V.M.f.-.b 5 o # h _ 1.e.e.e.e.e.e.1.` ` 1.e.y.y.y.1.` C p 4 o     o 4 G p.M.k.e.e.k.M.B.V.M.k.e.e.e."
};
