/* XPM */
static char *_4aad7d9f5a44adbf6b4c85092a8f9daA5yv3ChX0CZqSMMQ[] = {
/* columns rows colors chars-per-pixel */
"128 128 40 1 ",
"  c black",
". c #040400",
"X c #040404",
"o c #080804",
"O c #0C0C08",
"+ c #100C08",
"@ c #100C10",
"# c #141010",
"$ c #1C1414",
"% c #181818",
"& c #201C18",
"* c #28201C",
"= c #242020",
"- c #2C282C",
"; c #302420",
": c #342C28",
"> c #3C302C",
", c #383434",
"< c #403430",
"1 c #483C34",
"2 c #403C3C",
"3 c #4C4038",
"4 c #4C4848",
"5 c #544440",
"6 c #5C4C44",
"7 c #585050",
"8 c #64544C",
"9 c #6C5C50",
"0 c #60585C",
"q c #786458",
"w c #6C6064",
"e c #746C70",
"r c #807478",
"t c #9C8478",
"y c #887C80",
"u c #94888C",
"i c #988C90",
"p c #A09498",
"a c #A89CA0",
"s c #ACA4A8",
/* pixels */
"#;:;:>::::::::::;;;::,;:;>;::::::::;>,:;>;;:::,:>:,:;:;:;:::::::;:,:::;;:;::::;;p0747%:>::,:::;::::;;;>;:-,:>:*;*&;&$$u7646;;&$$",
"#;::::::,:,,:;;;;;;::;;:::>;:,::;::;>,:::;;;:;>:>>::;::;;>;:>:::>:>:::;;;-:;:;>;i7070%;,-:,>;;:;>;,>;>::>:-::*;;-;=;$$i0676;-;$$",
"X*::,::::,,,:::;;;*;>,>::>;-;,>;:>>;:-,:>;;,>;2>=:::;;;:-::::;::>,:::;;;:-;>>:;>u0707%;>:,-:;>>:;>,;-;>::>,>;****;;;&$i0767=;=&$",
"X=-:>:,,>,,,::;  ..oo+###$$$&&&&&*&&&&$$$####+++++ooo++##$$&  ,,,,  &$$##+$##++op0970%#$$$&&&&*&&&&&$$$###+oo..  ;:;$$u0777;;;$$",
"X=::::,>:,,,-:-. ..oo+###$$$&&&&&*&&&&$$$####+++++ooo++##$$&  ,>>,  &$$##+$##++op0976%#$$$&&&&*&&&&&$$$###+oo.. .;;;$$i7770=;=$$",
"X-::,:,::>,:,:-XX;;*::>:,>:;:;-,2:;&;><>,>:,,>2=>=,;::,>,>,,X ,,,, X,,>,>,::;:;:p9744%>,><>;&;:2,-;:;:>,:>::*;;XX-:-&%i7070=:=&$",
"X-::::,:::>,::*%%;;;:,::>:;2;:2>:>;;*:2,2::->,-,-,;;-,::>:<2%@,,,,@%2<:>::,;:;>;s8831%:2,2:*;;>:>2:;2;:>::,:;;;%%*:*$%i7077*;*$$",
"X*--;::,,>>::-;%%:-;X% XX@@@%%===%%%@@@XX X@%=%%%%,:;-->>:,,%@,>>,@%,,:>>-->>X% sw651& XX@@@%%%===%%@@@XX %X;-:%%;:;%%i6606;:;%$",
"X---:-:,,,:>--*==;::%X%@X XX@@@%%%===%%@@@XX  XXXX-,;,->::,,=$,2,,$=,,::>-,;,%X%a8w56=@@@%%===%%%@@@XX X@%X%::;==***$%p8675***$$",
"X*-:>,,,2,,>::;@@:;;%%,,:-,,:-,,>,::;;*:,,;:-,,:%=,-::,>::2:@O,,,,O@:2:::,::;%%,pw515%,:-,,>,::;;*:,,;:-,,%%;;:@@;$;$%u0775;$;$$",
"X-;;:>:>,,,,,:=@@;,;==-,:-:,:,,:;&:-:;:;:;:;,--;,=-:;-,,,;,-@O,>>,O@:,;,,,-::==-p7535%,:-:,:::;;,;:-:;;,;,==;,;@@=:=@@p8606=:=@$",
"X---;,:>:,,,,:=@@:;;,-,-::--::,>;*:,:;,;,:::,-::-%:-::::-,::@O,,,,O@,>:-::,:;,-,i0513%-::-,,::,;,:;,-;;>::-,;;:@@=:=$+pw06w=:=$$",
"X:::>,::,,,,,:-@@;-:2->,;--,;,:,;;,::;,:-:,;,:-:,%:,:,:,::,:@O,,,,O@:,:;,:,::2->p8635%,;--,::;:;::;-:*;::,-2:-;@@-&-&+u80w8-&-&$",
"X-::>,>:,,,,,,-@@-:;2-:-:-:*,,,:::,,:;;:::,:,,-:,=,;:,;:;,,:@O,>>,O@,,,;:;,:*2-:p9515%;::,:-:::,::::;:-:-:-2;:-@@-:-$#pww0w-:-$$",
"X-:::,:>,,,,,:*@@;-:4,-,-,-*,;,::,,:::;,;:,-:&-*,,*,,:::,;,;@O,2,,O@:,::;,-,,4,-p9613%:;,-::::,::,;:;-,:,-,4:-;@@*:*$$p0rw8*:*$$",
"X-->:,::,,,>,-&%%-,-74;-;-;;:*:;:-,--;,,:;,,;&*&4,-::::::,,,%@,,,,@%,,,::,::;74;s8831%;:,,;--,-:;:*:;;-;-;47-,-%%&:&$#pw0w0&:&$$",
"X-::,,:::,,,>,&%%-;:w7ew000700wweyyyrreeww77477777*;*;:*,-,-$@,>:,@$-,-,*:;*;w7esw651&wweerryyyeww007000we7w:;-%%&%&$#a0e0r&%&$$",
"X:,::,:>,:,,,:&==&::7w477wweerryyyeww007000werwwww,-:*;;:,:,$$:,::$$,:,:;;*:-7w4a8w56=00700wweyyyrreeww774w7::&==&=&%#p7wrw&=&%$",
"X-::,,::,:,>,:&--&;,-*;-,-,:-;,,:*;*-::-,::;;:;--,-*:;--:;,-%%,,,,%%-,;:--;:*-,-p085w%:,-::-*;*:,,;-:,-,-;*-,;&--&:&&$p04e9&:&&$",
"X*::,:;,,:,,,>=--&;-::;:;,:,::-,-;*&::,,:,:;:;:;,-:;:*,:;--,%%,,,>%%,--;:,*:;:-,pw060%,:,,::&*;-,-::,:,;:;::-;&--=*=&#p709w=*=&$",
"X-:;,::,>:,,,:-,,*;,:,-::,,-:;,,:*;;::,>,,-:,:;:--:-;**::,,-==,,,:==-,,::**;-:--p0858%,,>,::;;*:,,;:-,,::-,:,;*,,-*-$$p9998-*-$$",
"X*::,>>,>>,,:>=,,*;-,-,::,-,;*,-:*,;-:,-,:-:,::;-:;&;&;::,-,==>,:>==,-,::;&;&;:pq99,:@:,-,:-;,*:-,*;,-,::,-,-;*,,=;=&#p7w09=;=&$",
"X*:::,:,::,,,:&22;-,:,,;,:,>;&-,-*,*,::,,-::-,;:,-:&-*;;,:,>==,,,,==>,:,;;*-&:s9w953*%-,,::,*,*-,-&;>,:,;,,:,-;22&;&&$i68ww&;&&$",
"X-:::>>:,,>,>,;22*:,::,;,,,>*&:-;;:*:;:-,--;,,:;,,;&*&;;,,,>==,,:,==>,,,;;&*&i988553%--,-:;:*:;;-:&*>,,,;,::,:*22;:;&$i0588;:;&X",
"X=::>>>>,,,>::-77wweryuyyyrrrew007444222447777700000wwww0744,,,>>,,,4470wwwwi96866<$4744222444700werrryyyuyreww77-:-*$i6158-:-*X",
"X*;::>,:,,,,::-7774470wwww000007777744222444700werrryyyuyrew7,,;:,,7weryuyyuw88553&4444222447777700000wwww0744777-:-*$u1537-:-*X",
"X*:,:>:::,:,>:--:&;:-:;:,>:>,:->;:,:-;;;--,:,;>::;*&&**:,>:>,:>>>::,>:>,:*u07866>@*,:,--;;;-:,:;>-:,>:>,:;:-:;&:----&$u3316---&X",
"X*:::,,>>:,,>,:*;:,>,:,,:>,:,;:,:,-:,*;*,-,:,:-:,;**&**,:>,:,;,,,:;,:,>:,iw7066>@-:,:,-,*;*,:-,:,:;,:,>:,,:,>,:;*:-,*%u6535:-,*X",
"X-::::>,,,,,,:- ====%%%%%%%%%%======%%%%%%%%%%=======%%%@@@@%%>,,:%%@@@@t98656:O*=%%%%%%%%%%======%%%%%%%%%%==== ---&%u3613---&X",
"X*:>:>::,,,,:>;XXXX      @@@@@@@%%%%%%===-%%@@@@@%%%%%%===-%%@:,,:@%%-=uw0852*% @@@@%%-===%%%%%%@@@@@@@      XXXX;;-&$u6336;;-&X",
"X=::>>:,,,,,,:;X;-;-,>,,,;,>>:;,:,-,,;;*:-:,-;:>,:&&;:;,,;,>%@;,,:@%>,u90735;%*,>:;-,:-:*;;,,-,:,;:>>,;,,,>,-;-;X;-;$%u6335;-;$X",
"X=>,:::,,,>,:,;%*:;,-,-:,>:>>;:,;,:->,:*-,--:;;,::&*;:::,>:>=$:,,:$=>u808ww*O&::,;;:--,-*:,>-:,;,:;>>:>,:-,-,;:*%;;*&%u6631;;*&X",
"X=:,>:>,,,,>,,*-47777000wwerrrrw000077742222,,2--;**::,:,>,,=$>,,:$=uw6687;@&*;--2,,222247770000wrrrreww00077774-*-;&%i8515*-;&X",
"X-:::>::,,>,::*-2,,22224777000000000777744422,---:*;,-:>,>,,=$,,,:$uw0888>%***:---,22444777700000000077742222,,2-*;*$%p8510*;*$X",
"X*:,:::,,,,,::;*;::-,-,:::,>2,>>2,>,>,:;:--,;;:@@:;;-,::,:,2=$>>>>u98860>@*-;;:@@:;;,--:;:,>,>,2>>,2>,:::,-,-::;*;-&$%i0855;-&$X",
"X-:::>,,:,::>::;:-;,-,-:::,>,2,2,2,>,>,-:-,,:;*@@-*:-:;,::,,%$,22t86666>@$;-:*-@@*;:,,-:-,>,>,2,2,2,>,:::-,-,;-:;:;-$%p8535:;-$X",
"X->,::>,>,,,:,;XXXX      @@@@@@@%%%%%%===-%%@:;@@:&;,;::,:>2$$,-tw7765:@$;;,;&:@@;:@%%-===%%%%%%@@@@@@@      XXXX;-*&%sr830;-*&X",
"X-::>,,,:,2,>:;@X%-===%%%%%%@@@@@@@      XXX ;*O@:*;;;,>>:,2%%2u00056>@&:,;;;*:@O*; XXX      @@@@@@@%%%%%%===-%X@;*-$%pw93w;*-$X",
"X-:::>,>>,,,,:;@@,:;,,,:>>>,,2,:,:>>::2-:;*@O;&O@,;-;,;:>>>-%%u000664@&::;,;-;,@O&;O@*;:-2::>>:,:,2,,>>>:,,,;:,@@;,:&=s9936;,:&X",
"X::,,:,::,>:::;@%,::>,:,>2,>2,:>,2:,>--2::*@ ;&@@;;;-;,,-2,2%tw7067,%*,-,,;-;;;@@&; @*::2-->,:2,>:,2>,2>,:,>::,%@;:;-pqw959;:;&X",
"X:>>>:,:,:,,>>:@$,;:,,>2>,2,:,2,:>2,>,2,:;*@O:&@@;-*-;;->,2,t078774%*,,>-;;-*-;@@&:O@*;:,2,>,2>:,2,:,2,>2>,,:;,$@:,,pq99358:,-%X",
"X:,,:>:>,,,:,,:$@-;:-,>,,2,,2:,,2,,:,2,2:;*@@,-$$;*;*;-,,2,i90656:%%,,2,,-;*;*;$$-,@@*;:2,2,:,,2,,:2,,2,,>,-:;-@$:2s9w95305::;$X",
"X:::,::,,::,:::$$,;:,>,2>>,2>2:,,>2>,,2,:;*$@:-%%****-,2>>tw0635:@$*>,>>2,-****%%-:@$*;:,2,,>2>,,:2>2,>>2,>,:;,$$,i988558;&=,-$X",
"X,>:::,,:,,:>>:$$-;,->,>2,,,,,>2>>,:,>,-::;$$,,%%;*-*;->2tw7035*%&*=,-,2>-;*-*;%%,,$$;::-,>,:,>>2>,,,,,2>,>-,;-$-i968666,$=;:;$X",
"X::>,,,,2,2,:-,$$,:,,,>>,,2,2,2>>>:,,,,2:;;$$2,==*&**,;>ue0833,@&,==22,->;,**&*==,2$$;;:2,,,,:>>>2,2,2,,>>,,,:,-uw88558;%=;:,-&X",
"X:>::,,,,,2>>:-$$,;,,,,2,,,2,,>,:>>:,2,,2:;$%,,%%;-;-*,i00655,@*,>==,,,,-,*-;-;%%,,%$;:2,,2,:>>:,>,,2,,,2,,,,;2u078665,$-,,:>,$X",
"X-:::,>,,,:,>:,%$,:>,2,,,>-,2,,>:,:>,,,2,::$%,2%%;-*;-pw7511*o*:,,;=2->-,--;*-;%%2,%$::,2,,,>:,:>,,2,->,,,2,>,iw70665%$-:>,::-$X",
"X-::>>>,,,,,:,-%%:;,>,>,2,2,,,>,:::2,2,,,:;%=-2==*&*-pq9611* %:,,>-=,2,2,,*-*&*==2-=%;:,,,2,2:::,>,,,2,2,>,>2t986563@&->::,:,:&X",
"X-:>::,:,,,::::%%,;-,>,>,2>>:,>,:::,2,,2,,:%=,2%%*&&pqw611*@O*>,,>;=:>2,>-,-&&*%%2,=%:,,2,,2,:::,>,:>>2,>,>2uw0852<%&->:::,:::$X",
"X-:::,:,,,:::-,=%-:,>,2,22<,;,2,>,>:,2,,:2:%=,4==&&s9w511-%O&=2,,,;=;<22,:;;&&&==4,=%:2:,,2,:>,>,2,;,<22,22u90735<%$*:>>,,::;-$X",
"X:::::>,,,>,,::==,>,>2,2,2<2*,,,>,:,2,,,,-:==<4==*i98813*%$$*=,,,,;=*<2,2--**&*==4<==:-,,,,2,:,>,,,*2<2,22u808ww<$&=->:,,,:-:-%X",
"X-:>>>:,,,,>::,==,:>2,>,,>>2;>>:>,:2,22>,,:==,7%%i96861-@%*&-=>::>;-;>>,,;;;&&&%%7,==:,,>22,2:,>:>>;2>>,2uw6687<@&=::>,,2,,,>:$X",
"X:::,:>,,:,,,:,==>,<,,,>-::2:>>,;,,,>,:;2<:==,7%uw8855-@%$*;2=,,,,;2:::->*:-*&&%%7,==:<2;:,>,,,;,>>:2::,uw08885@@->:,,,,,>:>:;&X",
"X-:>,:>,:,,,:::==,>>,2>,,:>,;>>:,,:,2,;:,,>==>0u07866>%$&*>;4-,>:,-4;>:,,;:;&&&==0>==>,,:;,2,:,,:>>;,>,u988606$@&>,:,,,,:>:,;-$X",
"X:-:,>:,>>>,,:,-=,>>,,:>>;::;,>,::,>->,:>,>=,,iw7066>%O&-;:;4-,,,,-4;:;>>;-;*&&==w,,=>,>:,>->,::,>,;:,t866665$$=-,::,,,,,::,>:$X",
"X-::,:>,>,,,::-42777000wwerrrrw000077742222-,t98656:&*7werrrr2,,,,,rrrreww000777742,-222247770000wrrytw77655=-424-:,,,,,,:>:::*X",
"X-::,:,,:,2,,:,7777444444444777000weeeew0777uw0852;-,00007777,,::,,7777000wwerrrrw,77770weeeew000770u000566&*4777,::,,,:,::,,:*X",
"X-::::,:>,,::,::,,>>:>;:;;;,2,2><2;:>:<>>2>u90735:O&*:*:;;;,2,,,>,,2,;;;:*:;-*;::2,>,>2>><:>:;2<>22u000664%&;>,,::::,,,>,,:>:-=X",
"X--,::,::,:>,:-,-,>>:,:;;;:>2<>><2,;;:,:2>u808ww;$%*;;;;;;:>2<,,>,>2>:;;;;;;;&:>2,2>2>>2:,:;;,2<>1tw70674%&->>,-,,:-,,,:>,::::=X",
"X:;:>,,>>,>,:>-%@@@@@@XXXXX   %%      XXXuw6687:  O@XXXXX%XX  >11,  XX%XXXXX@@@@@@@XXXXXXX      =t078774  @@@@@@%::,:,>::,:,::-X",
"X:>::>>,,,,:,,;$ %%-===%%%%%%@@XXXX     uw0888< %%%%%%===-%%XX,>:2XX%%-===%%%%%%@@@@@@@      XX%i906563%%=&=-%% $:::,>:::,::::-X",
"X::,>::,,,:>::;@ :>:>,:;:,>,22>:,2,:>;>u98860<$$**;:;&:;:,>,@@-:::@@,>,:;:&;:;;,2,-,>,>:,>;>:,4tw06353%$==,>:>: @:-::>>,,::;--*X",
"X::,>:>>>:,>:,;@O:>;,,,:2::2-22:2,,:::t86666<$$&,>;::*-:2::2@@,::,@@2::2:-*::;>,-,>2:>,>22:::2tw7035<@$:*,,,;>:O@:-->:,,,:-:---X",
"X-:>:>:>,,2:>:;@O;,:,2,:,,>,::2,2,2:>tw7765>$%*,>>:,-*::,,>,$%,,,,%$,>,,::*-,:>>,,>,,:>::<>>,ue08334%*--:,2,:,;O@:::>,,2,,,>:-*X",
"X:-::,:,,:,>,:*@@:>>,,>,,:>::<>>:-,2u00056<$@*,,:,;::;;,,:>:$%:>>-%$:>:,,;;::;,:,2,:,,>,::22i006553%&;-,,>,,>>:@@*:,,,,,>:>:;;-X",
"X-::,,1,>,-:>:;$$:>:>,>2:>,>22:::,,u000664$$&,,,;>:::;*2:>,>$$,::,$$>,>:2*;:::>;,,,:2::2-24pw7511<$--->:2>,>:>:$$;:,,,,:>:,;---X",
"X:;::,,,2,-:::;%$>>>>>-,>,>:,>;>:,tw7067,$$&*:,>:>:,,;*,>,>:%%,,>,%%:>,>,*;,,:>:>,:;:,>,24iq9611<@*-->,>,->>>>>$%;:,,,,,::,>:::X",
"X-,,:1<>22-:,,;%%>:>,>,2,2,,,>::;t078774&@&*;>>>>>>,:;;2,2,,%%-::,%%,,2,2;;:,>>>>>>;;:;22u0w611<%**:,,2,2,>,>:>%%;,,,,,,:>,>::-X",
"X-:>>,1,,2-:>:-%%,>>:,,<,,-,2,:;i90656>&$&*:::>,>:>>,;-<,,-,==,>:,==,-,,<-;,>>:>,>:::;:4pw0511:%$=,2,-,,<,,:>>,%%-:,,,,,>:,:::-X",
"X-:::,1>,2-::::==>>>:>2>2>>2:,:tw0635>&$*;;;;:,:>>,-,-;>2>>2==,::>==2>>2>;-,-,>>:,:;;;,pq8513<@$&;,:2>>2>2>:>>>==:-,>,,,::,:>--X",
"X-:::,2,1,,,,,,==>,:>2,>,>2>><tw7035;&$*,;;;:;>:>>>,::->,>2>==,,>:==>2>,>-::,>>>:>;:;:sq9531:$$*>:<>>2>,>,2>:,>==,,>,,,:::,,::-X",
"X-;::><,,:--::-==,,:>,,,2><2<ue0833,$$*<>;;,>;2>:,>-,,-,2><2==>,>,==2<>2,-,,->,:>2;>2se8611,%&-:>>,<2<>2,,,>:,,==-:,,,:,>:,::,:X",
"X-::-,,,,>-::*,==,>>,,>2>,2,i00655,%@*,1>:;>::,>:,,2:-:2>,2,==,,,,==,2,>2:-:2,,:>,:,i9w631,%&-,:,,2>,2,>2>,,>>,==,:,>,:,::,,::-X",
"X-::,,::,:,>,::==,>>,2,,,>,pw7511;%@$>12::;>>:,,>>,2:,;,,>,>==,,>,==>,>,,;,:2,>>,,,pw0w55*@&&;>,>2,:>,>,,,2,>>,==:>,,,:,,;:,::*X",
"X*::,:;,,:,,,>,-=>,<,,>>,>pq9611*$@%*><>,>:,,>2,>>,-::,>,>,,==,,,,==,,>,>,::-,>>,4pww855*@$*&;>2,>;:,,>,>>,,<,>=-,:,,,:>,::,;:-X",
"X-:;,::,>:,,,:,==,:>2,,:>pqw611*$%$&*:2,2::->,,,<,>,:,::>:<2--,,,,--2<:>::,:,>,<2pw08634@*-*&;>,,2:;2<:>:,,2>:,==,>:,,>>,>>,::*X",
"X*::,>>,>>,,:>:,,,>,>2,>s9w511-$&**&;>,22>>,,>,2>:,,,,->>:,,,-:>>:-,,,:>>-,,,,:>se93w3,@-,>;&;>,>,2>,,:>>,2>,>,,,>:,,,::,:,:::*X",
"X*:::,:,::,,,:;24000wwei98813*%2wuuuyyyrrreeewww007777777700w4,,,,4w007777777700p9936,=0ryyyuuuiiuuurrreeeww00042:,>,>,,:>>:::-X",
"X-:::>>:,,>,>,;ww00777i96861-@,7eeerrryyyuuuiiuuurrreeeww00000>,,:00000wweeerrrup9959&eyyyrrreeewww007777777700ww-::>,,,>>>>::=X",
"X=::>>>>,,,>::-:>;;:>uw8855-%&:,::;*;>2,>>2,>,>,-;,:,:-,::,22,>,,,,22,::,-:,:,;-pw858&>>,2>;*;::,>,22,::,,,>:;;>:,::,,,,:,>::;*X",
"X*;::>,:,,,,:::,:;::u07866<%&,,::;;*:>,2,2,2,>,>,;:>:-,>:;:,,,,>:,,,,:;:>,-:>:;,s8869%2,2,>:*;;::,,,,:;:>-2,::;:,::>,:,:::>:,:*X",
"X*:,:>:::,:,>:->,:;iw70663%&,,:,>>:*:>22,->,,,2,>:,:,,,>:::,2,>,,:,2,:::>,,,:,:>p8850%-,22>:*:>>,:,2,:::>,,,:;:,>,,>,,:>>,,:::*X",
"X*:::,,>>:,,>,:%@@t98656<ooO@@%%%%%%%%=====%%%%%%%%%%%%%%%%%%%>,,:%%%%%%%%%%%%%%p6056@====%%%%%%%%@@@@X@@@@X@X@@%>:,,,,,,>::::-X",
"X-::::>,,,,,,::%@uw0852:O%%%%%%%%%=====%%%%%%%%@@@@X@@@@X@X@%%,,,:%%@X@X@@@@X@@@p8866O%%%=====%%%%%%%%%%%%%%%%%@%>>:,,,,::>:>:*X",
"X*:>:>::,,,,:>:@u90735>o%&::-,->:>:;:,2,,,,2>,>-,;-;-::-:;::@@:>>-@@::;:-::-;-;,i0864%==,2,:;:>:>-,-::;:-,>,:;;@@>:,,,,,,:>>::=X",
"X=::>>:,,,,,,::u808ww:%%$&;:,-,2:>:;>,,,2,>>2,>,:;,;-:;,;*;:@@,,,,@@:;*;,;:-;,;:i7065%=-,,,>;:>:2,-,:;*;,:,-:;;@@:,:,>,,,:::,>=X",
"X=>,:::,,,>,:,uw6687>o%$**;:2,2,;>:;::2,,,2,,>,-:;-:;:,:;*;:XX2,,,XX:;*;:,:;:-;:i7751$--,2::;:>;,2,2:;*;:,,,:;,@@:,,>,,,,>:>,:=X",
"X=:,>:>,,,,>,uw08883o%$,;*;:,,->;:>*;,>2,,,>,>,,:;,:,:,,;*;:XX->>:XX:;*;,,:,:,;:p0621%--2>,;*>:;>-,,:;*;,:,>::,@%:::,>,,::>:::-X",
"X-:::>::,,>,u988603%*&*-;*::2--2:::*;,,,>,>>,:,>::,>-;:-;*::XX:,2:XX::*;-:;->,::p8853%--,,,;*:::2--2::*;-;,,;:,@%:::,,,,,:::,:*X",
"X*:,:::,,,,t866663%&&$;:,*;:-,,,:::*:,,,,>>>:,,,;:,,>;,:,*;:XX,,,,XX:;*,:,;>,,:;u0831%--,,,:*:::,,,-:;*,:;&;;<505::>::,:,,>:::-X",
"X-:::>,,:,tw7765<$4:;*;-:;-,-,--:,:;:,2,>,:>>:,-::-,:;*-:;-,XX:::>XX,-;:-*;:,-::i07w3%--,2,:;:,:--,-,-;:-;*;:005;:,:,,,>,>::,>-X",
"X->,::>,>u000563%;0w5;:;;;,:--,>:;,;:,,,,>:,:>,>,:,::;-;;;,:XX,,>,XX:,;;;-;::,:,i8876%=-,,,:;,;:>,--:,;;;:;5w0<;,::>,2,:,,,>::-X",
"X-::>,,,u000664O-*,003;:,,-:-,-,;>,:>,:,>,:::-,-,;-:;:;:>,>:XX>,,>XX:>,>:;:;:-;,p0886%=;,:,>:,>;,-,-:-,,:;300,*:-::,,,,>>,>:::-X",
"X-:::>,tw7067,O%#::<200:,-,:;:-:,,,;-,:,>,:::,:,-::;*;>;,:,:@@::::@@:,:,;>;*;::-i6688%=;,:,-;,,,:-:;:,-,:002<::#%,:::>,::,:,,::X",
"X::,,:t078774 %%###-::702<::,::,:-,;,,;,2,>,>:,-,;;*-:;,:,:,@@::::@@,:,:,;:-*;;,u0805%=,,;,,;,-:,::,::<207::-###%:>>,,:,:,:>>>:X",
"X:>>>i90656<%&:%@%##;:<7w0,,;:-,-,,:,:*,,,>,:,,,-:;*&:,:,:,:@@:;::@@:,:,:,:&*;:-i0866%=-,*:,:,,-,-:;,,0w7<:;##%@%:,,:,,,>:>:,,:X",
"X:,,tw0635<$%,-%@-:##:;,20w2,:,>,:,;,:;>>:>,:-,-,;:*&-;:-,>,%%,>>,%%,>,-:;-&*:;,i8866%=;>;:,;,:,>,:,2w02,;:##:-@%-::,::,,::,:::X",
"X::tw7035:$%:::%@,:-%##-,<7w4<;,,,,:,;:>>,;,,,>,-;-;-,-,,,,:%%:,,;%%:,,,,-,-;-;-u8656@-:>:;,:,,,,;<4w7<,-##%-:,@%:>>:,,:,,:::>,X",
"X,ue0833,$%:>>,%@,->-%##:,240w2,:,:;:,,->:;>::,>:-,-:-:2>,2,==,,,,==,2,>2:-:-,-:i6768@=:-,,:;:,:,2w042,:##%->-,@%,-:,2,2,,,,>::X",
"Xi00655,&%,,:-:%@,>-,2,##;,><0w5,>;*;<,,::;>>:-,->-2:,;,,>,>==2>>,==>,>,,;,:2->-u7850@=;,,<;*;>,5w0<>,;##,2,->,@%::>>2,,,,,::>:X",
"pw7511:$&,2>>:,%@>,<,->>%##,:;7w0<;&;><>,>:,,>2,>-,-::,>,>,,==,,,>==,,>,>,::-,->u0067%*,><>;&;<0w7;:,##%>>-,<,>@%,:>,:,,,>,:::-X",
"q9611;$&,,:,>:,%@,:>2,-:>%##*:220w<&*:2,2::->,,,-,>-:,::>:<2--2,,:--2<:>::,:->,-u7077%=,,2:*&<w022:*##%>:-,2>:,@%,,:,,,,,>>>::-i",
"w611;$&,,,,,:,:%@,>,>2,>>:,%##,>2702;>,22>>,,>,2>:,,,,->>:,,--,,>,--,,:>>-,,,,:>i0660%=,2,>;2072>,##%,:>>,2>,>,@%::::,,,:,::>:u0",
"511-@%,:,,,:::;%@-:,>-<>::-,%##,,>200<<22<2,2,2-,>,-,:,>::-,==,22,==,-::>,:,-,>,i7076#*22<<002>,,##%,-::><->,:-@%:-:::,,,:,::pw0",
"13;@%,:,,,:::-;%@;;:,>,>::2:,-##;::;0w42,<22,2,>,:-:-,;>::2:=->,,>-=:2::>;,-:-:,u0867#*,24w0;::;##-,:2::>,>,:;;@%::,,>,,,>::pq85",
"1-@%::>,,,>,,:-%@;;:>,,,::,22,>%##;*;7e0>>2,>,>,-;,:,:-,::,2-=>,,>=-2,::,-:,:,;-u7656%*>0e7;*;##%>,22,::,,,>:;;@%,::>,,,,:>sq953",
"-$%:>>:,,,,>:::%#;::,2->:;:,,,,:%##*:>2w04470weeryrrreeww00744,::,44700wweerrryru0535&40w2>:*##%:,,,,:;:>-2,::;#%::,,,:,,>se8611",
"X%::,:>,,:,,,:-%%:;:,,,>:::,2,:,>>##;>22,->,,,2,>:,:,,,>:::,2,:,,:,2,:::>,,,:,:>u8658%-,22>;##>>,:,2,:::>,,,:;:%%,::,,,:,i9w63<=",
"X-:>,:>,:,,,:::%%;::,,,,:;::,,,,:,:%##2,2,,,2,,,,;,,>--,:;::,,,,,,,,::;:,-->,,;,p0037%,2,2##%:,:,,,,::;:,,,,::;%%::,,>>>pw0w51%X",
"X:-:,>:,>>>,,::%%:;:->2:;;;:2,,2;,:;%##%%%%%%%%%%%%%%%%%%%%%#%,,,,%#%%%%%%%%%%%%u7836O%%%##%;:,;2,,2:;;;:2>-:;:%%:::,,,pww851%%X",
"X-::,:>,>,,,:::%%;;:,>,-:;::-,->:>:;:,%%%%%%%%%%%%%%%%%%%%%%@%:>>-%@%%%%%%%%%%%%u0855O@%%%,:;:>:>-,-::;:-,>,:;;%%::,,2pw086<,$%X",
"X-::,:,,:,2,,::%%;;:-,:,;*;:,-,2:>:;>,,,2,>>2,>,:;,;-:;,;*;:@%,,,,%@:;*;,;:-;,;:iw616%=-,,,>;:>:2,-,:;*;,:,-:;;%%:,::,e93w3-$&%X",
"X-::::,:>,,::,:=%,;:,,,:;*;:2,2,;>:;::2,,,2,,>,-:;-:;:,:;*;:@%,,,,%@:;*;:,:;:-;:i0515&==,2::;:>;,2,2:;*;:,,,:;,%=>:,>:y876,#=%%X",
"X--,::,::,:>,:;=%,::>,:,;*;:,,->;:>*;,>2,,,>,>,,:;,:,:,,;*;:@%,,>:%@:;*;,,:,:,;:p7515%==2>,;*>:;>-,,:;*;,:,>::,%=:>:,>r362<&&#&X",
"X:;:>,,>>,>,:>;=%,:;,,;-;*::2--2:::*;,,,>,>>,:,>::,>-;:-;*::@%-22-%@::*;-:;->,::u0616%==,,,;*:::2--2::*;-;,,;:,%=:,,:,y3341&&&:X",
"X:>::>>,,,,:,,*=%;,;;&;:,*;:-,,,:::*:,,,,>>>:,,,;:,,>;,:,*;:@%,,,,%@:;*,:,;>,,:;p9613%==,,,:*:::,,,-:;*,:;&;;,;%=-::>:y3345&=&:X",
"X::,>::,,,:>::;-%*:;;*;-:;-,-,--:,:;:,2,>,:>>:,-::-,:;*-:;-,#%----%#,-;:-*;:,-::pw515%==,2,:;:,:--,-,-;:-;*;;:*%--,:>,r7655&=&:X",
"X::,>:>>>:,>:,;-%&:::;:;;;,:--,>:;,;:,,,,>:,:>,,,:,::;-;;;,:=%,>>,%=:,;;;-;::,:,p7535%==,,,:;,;:>,--:,;;;:;:::&%-;::;:y6675&*;=O",
"X-:>:>:>,,2:>::-%*-:;*;:,,-:-,-,;>,:>,:,>,:::-,-,;-:;:;:,,-:=%-,,-%=:-,,:;:;:-;,i0513%==,:,>:,>;,-,-:-,,:;*;:-*%-:::;-u5565&*;;O",
"X:-::,:,,:,>,:,-%;:,;:;;,--:;:-:,,,;-,:,>,:::,-,-::;*;-;,--:-=-::-=-:--,;-;*;::-i6655%=*,:,-;,,,:-:;:--,;;:;,:;%-;;;*&p8675*&;=O",
"X-::,,1,>,-:>:-,%*:-:;*:-,::;::-:-,;,,;,2,>,>:,:,;;***;:-,::,=:--:=,::,-:;***;;,p9535%=2,;,,;,-:-::;::,-:*;:-:*%,:;:&&u0775&&;;O",
"X:;::,,,2,-::::,%*;,::;:,:--;:-;-,,:,:*,,,>,:,:,::;*&*-:,-;-2--;;--2-;-,:-*&*;::i0633%=,,*:,:,,-;-:;--:,:;::,;*%,;:;&&p8606&;;&#",
"X-,,:1<>22-:,,:2%&::,;;:--,-*:,>-:,;,:;>>:>,:-,-,;:*&;;:;-,-2,,>>,,2-,-;:;;&*:;,p6643%=>>;:,;,:->,:*-,--:;;,::&%2;;:*&i0760&;;&#",
"X-:>>,1,,2-:>::2,2224777000wwww00000777444477000wwwweeerrree42;,,;24eerrreeewwwwa0643&44477700000wwww0007774222,2;;;&&i8706*&;&#",
"X-:::,1>,2-:::;7weerrr770444634433222477700000wwww0007774222,2;::;2,2224777000wwu7766=0777444477000wwwweeerrreew7;,:==iw070**:&#",
"X-:::,2,1,,,,,:&&&;--,:;::;:;:;;,-,:::;,>,::,>;>,:,:*;--::::;::;:;:;::;::-:;;,:,i7444%,>,;:,>,-::;:;:-::;;,:-:*&&;;;&&i7006&;;&#",
"X-;::>>,:::;:::;:;;-:-:,::-:;;;,:::;::;,:,::,,::>::;;;:;;;:,;::::;::,:;;;-;:;:,:i0774%::,;::::;:,;:;:;,;::-:-;;;&=;;*&i7464&;;&#",
"O-::::,::::::;;:*;;::>;;:,;-;;:-:::;>-:,>::::::>,-::*;-;:::::::::::::;::;:;*;:;:u0777%::,:;>::,::;:;:::;;;>::;;&&*;;&&i7764&&;&#"
};
