/* XPM */
static char *c58bfedd90ff4b11ed1b6eec166145f6FmhYtpM9IpLXXOxn[] = {
/* columns rows colors chars-per-pixel */
"64 64 211 2 ",
"   c #2B1E2F",
".  c #391C2B",
"X  c #231F31",
"o  c #242033",
"O  c #262339",
"+  c #28253C",
"@  c #2A283E",
"#  c #3D2134",
"$  c #32273F",
"%  c #65171F",
"&  c #7B1419",
"*  c #68221F",
"=  c #7D241A",
"-  c #481F27",
";  c #411B29",
":  c #581A23",
">  c #621D20",
",  c #6A1D2A",
"<  c #7B1A22",
"1  c #4B2226",
"2  c #412129",
"3  c #4D252F",
"4  c #4A3329",
"5  c #4B392A",
"6  c #452531",
"7  c #4F2D33",
"8  c #562F3F",
"9  c #4A3A34",
"0  c #672622",
"q  c #673924",
"w  c #692738",
"e  c #752A38",
"r  c #6D3B3B",
"t  c #723038",
"y  c #5A4738",
"u  c #714A2F",
"i  c #2D2B44",
"p  c #2E2D49",
"a  c #342E49",
"s  c #323145",
"d  c #34344C",
"f  c #3A384E",
"g  c #333353",
"h  c #3C3553",
"j  c #36375A",
"k  c #3A3B5C",
"l  c #4A2D46",
"z  c #512F48",
"x  c #48344D",
"c  c #563449",
"v  c #403757",
"b  c #553B54",
"n  c #6C3B4A",
"m  c #3F4163",
"M  c #584848",
"N  c #46475B",
"B  c #554952",
"V  c #6D4D56",
"C  c #675955",
"Z  c #71635E",
"A  c #414466",
"S  c #464961",
"D  c #494C66",
"F  c #46496A",
"G  c #494D6C",
"H  c #524C64",
"J  c #4C516F",
"K  c #545267",
"L  c #51546E",
"P  c #4D5272",
"I  c #515672",
"U  c #545976",
"Y  c #5C5C75",
"T  c #565D7A",
"R  c #6B5468",
"E  c #745866",
"W  c #5F6376",
"Q  c #5C627D",
"!  c #736966",
"~  c #7D726B",
"^  c #65687C",
"/  c #7C757C",
"(  c #881818",
")  c #951414",
"_  c #A2170F",
"`  c #AA1B0D",
"'  c #B21E0B",
"]  c #A31D12",
"[  c #882B19",
"{  c #9B2512",
"}  c #972518",
"|  c #8D3118",
" . c #9B3817",
".. c #AE2E0E",
"X. c #B1230D",
"o. c #BA2309",
"O. c #BC2A0D",
"+. c #A22410",
"@. c #A42815",
"#. c #A22C1C",
"$. c #A93714",
"%. c #A53A13",
"&. c #B23617",
"*. c #831D24",
"=. c #87282A",
"-. c #912E2B",
";. c #953823",
":. c #A82F20",
">. c #A63825",
",. c #C02608",
"<. c #C32908",
"1. c #C33A0B",
"2. c #C13011",
"3. c #94581C",
"4. c #9D5C1B",
"5. c #AC4415",
"6. c #B24A1D",
"7. c #AA5516",
"8. c #B85816",
"9. c #9C6E1E",
"0. c #A56E1C",
"q. c #B76A17",
"w. c #A6751C",
"e. c #BB7116",
"r. c #964A34",
"t. c #A64628",
"y. c #B84627",
"u. c #B3512D",
"i. c #906927",
"p. c #A66426",
"a. c #A27529",
"s. c #A77628",
"d. c #B27627",
"f. c #A86E33",
"g. c #AB7E31",
"h. c #C3400C",
"j. c #C24B0E",
"k. c #C3520F",
"l. c #CB4916",
"z. c #C65911",
"x. c #D25F1A",
"c. c #C36A13",
"v. c #C47214",
"b. c #C6781E",
"n. c #D96620",
"m. c #863B41",
"M. c #86534D",
"N. c #987B4A",
"B. c #8B6C53",
"V. c #B0715F",
"C. c #897470",
"Z. c #857C74",
"A. c #BC841C",
"S. c #B0822F",
"D. c #BA8A39",
"F. c #C68719",
"G. c #CF801D",
"H. c #C58918",
"J. c #CF8B2F",
"K. c #D38420",
"L. c #CF9320",
"P. c #D39623",
"I. c #DA9C29",
"U. c #DA963C",
"Y. c #E28D2F",
"T. c #E79A37",
"R. c #F09937",
"E. c #F09F38",
"W. c #DEA02C",
"Q. c #DBA034",
"!. c #E5A532",
"~. c #EAAA37",
"^. c #F0AB3A",
"/. c #F2B33D",
"(. c #AB8B4E",
"). c #938578",
"_. c #AD9075",
"`. c #C69642",
"'. c #CC9D4C",
"]. c #D49C47",
"[. c #CFA04E",
"{. c #D7A954",
"}. c #D7A956",
"|. c #FEBE46",
" X c #F5B94A",
".X c #E4B357",
"XX c #CCAA68",
"oX c #5E6682",
"OX c #656B82",
"+X c #696F83",
"@X c #6A7084",
"#X c #6D7488",
"$X c #777980",
"%X c #72788A",
"&X c #7F8187",
"*X c #7B818E",
"=X c #86888A",
"-X c #90918D",
";X c #808690",
":X c #898D92",
">X c #8F9293",
",X c #949592",
"<X c #969996",
"1X c #989C99",
"2X c #AC9184",
"3X c #9DA09B",
"4X c #B0A586",
"5X c #A6A599",
"6X c #A7A99F",
"7X c #ACAEA1",
"8X c #C0B28A",
/* pixels */
"X X X X X X X X X X X + g M a.9.5 + g j j g + X X X X X X X X   X ; & _ o.<.<.1.e.L./.|.|.|.|./.P.v.1.{ 1 X X + g m T oXoXJ s o ",
"X X X X X X X X X X X + g M a.9.5 + d j k g + X X X X X . . ; - - > ) ` o.<.1.k.b.L.!./.|.|.|./.P.v.h.{ 1 o O p k F U U I N @ o ",
"X X X X X X X X X X X + g M a.9.5 + g j k g i X X X X . , ( } ] { +.X.,.<.1.z.b.A.H.H.W./.|.|.^.P.v.h.{ 1 O p j J P G k f $ O X ",
"X X X X X X X X X X X O p M p.4.4 + g j g p o X X   2 : ) ` o.<.,.2.y.y.y.u.D.D.S.S.a.S.`.].~.T.I.b.z. .7 p g m P J k p O X X X ",
"X X X X X X X X X X X X O 7  . .1 + g g i O o X X 2 = +.X.o.<.<.<.1.V._._.2X_._.).Z C C C M.6.n.R.!.G.4.M g j k m k p O o X X X ",
"X X X X X X X X X X X X X 1 { { 1 + g g + X X   . > ] 2.:.>.>.>.y.V.2X7X7X7X7X>X^ J g g g b =.u.T./.Q.g.M g g g j g i O o X X X ",
"X X X X X X X X X X X X X 1 { { 1 + g g + X X . % ( X.&.M.M.E C.V.2X5X7X6X3X*XOXJ k p i g k b M.].|./.J.y + + i g j j p O X X X ",
"X X X X X X X X X X X X X 1 { { 1 O p p O X X ; ( ] #.r.R Q #X%X>X7X1X1X,X*XW G k p O + d k k C '.|.|.`.y o X O s g g g + X X X ",
"X X X o X X X X X X X X X - { { 1 X o O o X X 1 ( :.M.R D L ;X>X%X#X#X+XY D f i @ O o O g j j C [.|.|.`.y o X X O p g g + o X X ",
"+ + + + @ O o X X X X X X 1 { { 1 X X X X X . * +.>.V I D Y ;X:X#XoXI F j a O o X X o @ g k k C D./. XU.u 4 1 ;   O g g i + + + ",
"g g g g d p O X X X X X X 1 { { 1 X X X X . % ( X.:.n F I Q @XOXI k g i i O X X X o X O g j k M S.W./.~.A.4. .= . O g j g g g g ",
"j j k j g p O X X X X X X 1 { +.> .   X X 2 [ { { =.z A T oXQ P k a O X X X X X X o o O g j g M a.W./. X!.K.x.6.u 5 8 c d g g d ",
"j j k j i O X X X X X X X 1 { X.( % . X X 4 3.4.q 6 f m T Q F k i O X X X X X X X X o O g h i 9 9.L./. X/.^.^.Y.d.9. .=.6 + + + ",
"z x g p O X X X X X X X X - { o...| q 5 5 u w.9.5 + g A U U k p O X X X X X X X X X o O g f 4 u 9.v.Y.R.R.E.^.!.I.K.x.t.q 5 5 5 ",
"< , 6 X X X X X X X X X X 1 { 1.8.e.0.9.9.w.A.9.5 + g m U I d O X X X X X X X X X X X O g B u 4.%.&.l.l.l.n.K.I.!.^.E.Y.d.9.9.9.",
"$.[ q 7 . .   X X X X   . * %.k.G.P.L.L.L.L.H.9.5 + p k J D s X X X X X X X X X X X X O p M 9.8.@.] #.#.>.t.f.D.'.}.}.'.S.s.q.e.",
"q.q.0.3.[ > . o X X X . % [ 8.G.!.^././.^.!.L.9.5 X O s k k @ X X X X X X X X X X X X o O 6 [ @.X.} t V V ! ! C.C.Z.).! C M  .@.",
"q.e.b.e.5.| u y y y y u ;.8.b.I./.|.|.|./.!.L.w.q .   O a i O X X X X X X X X X X X X   . : ( ] @.=.z m P U I L L P U I F B e =.",
"@.5.e.F.e.d.D.U.`.`.U.U.T.T.~. X|.|.|./.W.L.H.e.5.= 2 o O O X X X X X X X X X X X X X . % ( X.#.t c h k m k d s s d k G P Y R R ",
"=.;.q.v.F.L.Q.~.T.U.'.[.}.}.}.}.[.].].Y.H.H.H.v.h.{ 1 X X X X X X X X X X X X X O O X ; ( ] } -.B m j g g p O X o O p k P T oXOX",
"R M.y.k.v.H.L.G.6.t.V Z ~ C.C.~ E M.t.y.v.H.H.v.1.{ 1 o X X X X X X X X X X X O p p O - ) #.e b L G d @ + O o X X X O p k G T OX",
"oXE ;.O.8.q.0.3.=., z A P oXoXU F H m.u.f.g.q.c.h. .1 o X X X X X X X X X X O i g h # : =.-.b F G S $ X X X X X X X X O p k U oX",
"OXR -.` +.| q 4 6 # g k m F oXoXT ^ ).C./ M.;.5.q.4.5 X X X X X X X X X X O p g j l , < w b H G h i o X X X X X X X X X O d I oX",
"Q R =.) ) & . X X X p g g k G oXoX%X1X1X*XC.M.u.v.w.q 2   X X X X X X X O i j j g l & =.b F oXP s X o X X o O O O X X X X a P OX",
"oXR =.) ) & ; X X X X + + p j G T %X1X6X3X<X2X(.D.q.$.= 2 o X X X X X O p g j g $ ; < *.R oXoXP s X X X X O p p O X X X X s J OX",
"U V *.) ( % . X X X X X X O a j G OX:X3X6X7X6X4X(.d.8.$.0 .   X X X O p g j g a # : ( *.b oXoXP d O o o O i g g O X X X X s P oX",
"A z *.( : .   X X X X X X X O p k J OX;X3X7X6X5XZ.B.d.8.$.= ; X X O p g j g i # % & ) *.z P oXP k p O O p g j g + X X X X s L oX",
"z w *.( ; X X X X X X X X X X O a k J @X<X6X3X>X*XC.N.d.k.%.0 1 1 6 a g g a # : ( ) ( w x A oXP J k p i g j g p O X X X X p D T ",
"< *.) & . X X X X X X X X X X X O i k W -X3X;X*X>X>XZ.B.d.8.$.{ { [ 3 + + # 0 ( ) ( w x k m U oXT J k g j g i O o X X X X @ k A ",
"_ ) ( > . X X X X X X X X X X X X + p N -X<X@X^ :X>X*X/ N.d.8.1.<.+.* 1 - % ) _ ) *.l j g m U oXT P A j g p O X X X X o O i g j ",
"' ] , #   X X X X X X X X X X X X o O B =X-XW J OX*X>X-XZ.B.d.z.1.X.+.{ { +.` ` _ *.z g i d I T G m k g i O o X X X X O p g j k ",
",.] 6 X X X X X X X X X X X X X X X X N =X-XL m G W ;X=X+X! N.p.&.o.,.<.<.<.o.X.( w l a O i D P m k g p O X X X X X o + g j g g ",
"<.} l a O X X X X X X X X X X X X X o M =X-XL g d f H U oXOX! M.#.` o.<.<.<.<.#.w l $ O X @ k A k g i X X X X X X X X + g g i + ",
"h.5.c g O X X X X X X X X X X X X X @ K -X-XK i O + i k U oXoXR t ( ` O.o.,.o.} z g O X X O p g k g i X X X X X X X X + p p X X ",
"v.p.M g + o X X X X X X X X o X X @ S ^ ,X=XB X o o + d P oXoXY H w ( ` o.o.` *.6 X X X X X O i g g X X X X X X X X X X X i X X ",
"H.a.M g i O o X X X O @ O @ s s @ N W *X,X/ N o X X o i S P T P F b e ) X.X.) % . X X X X X X + g g i X X X X X X X X X X X . ; ",
"F.a.M j g i + X X O i g g j S J P ^ &X1X*XW d o X X X O i g k F I P b e @.+.% .   X X X X X X + g g + X X X X X X X X X X . , & ",
"F.s.u x k g + X O @ p g g j D J L W &X*XQ D @ o X X X X X + a k J P A c #.{ 1 X X X X X X X X i g g O X X X X X X X X   . : ( _ ",
"H.q.-.w x g + X p p i + + i p s s f D L S k @ X X X X X X X + p k m k c } { 1 o X X X X X + p j j g i X X X X X X X X . % ( ` o.",
"P.b.&.*.x g i i j i O o X X X X X + s d j g + X X X X X X X X X g k k c } } 1 X X X X X O p k A m k a i i O O O X   . : [ &.O.1.",
"/.Y.l.-.z j g p i o o X X X X X X o O i g g @ X X X X X X X X i g j k z =.( ;   X X X X i k P T T U U D k g g a O . % [ 7.v.v.v.",
"|.E.x.5.t x v g p O X X X X X X X X X O p p O X X X X X X X X i g j g l < & . X + + i g k F I U L L L D k d x l 1 0 [ 5.e.H.P.P.",
"|.^.K.8.| w x k j s O X X X X X X X X o O O X X X X X X X X p j j j i 6 & & . X s k D I U I F k d s i i + 6 , ( }  .8.e.F.P.!.^.",
"|./.W.b.5.;.r B f p @ o X X X X X X X X X X X X X X X X i i j j j j   ; [ [ > 6 a k P U T K b l 3 1 - - - 0 [ $.j.x.K.P.P.I./.|.",
"|.|./.!.b.q.s.i.# i d p O X X X X X X X X X X X X X X X p g k j k g i 4 3.7.[ > # p k A A b e *.} { { { { $.8.b.Y.E.^./././. X|.",
"|.|.|./.T.P.P.s.u 4 d s O X X X X X X X X X X X X X O i g k g g g s 6 q 0.q.5.| q 5 M M B u } ] } #.#.#.#.>.f.D.'.{.{.{.{.{.{.{.",
"|.|.|.|./.~./.Q.w.i.y O X X X X X X X X X X X X X O i g k g i + X 6 [ %.e.A.e.q.0.i.s.s.a.p.&.} e c c c c M E ~ Z.Z.Z.Z.Z.Z.Z.Z.",
".X.X{..X X|./.!.L.w.5   o X X X X X X X X X X X X O p g g p o   6 0 $.j.G.P.P.P.P.L.H.F.v.q.y.-.B A A A k m P T T T oXOX%X%X%X%X",
"8X4X)._..X/.W.P.P.w.| % . X X X X X X X X X X X X X O O + + O ; = %.8.K.!./.^.^./.!.L.v.j.&.M.R Y Y U P A k A A A F U #X>X1X1X1X",
"7X7X*X).XX{.D.S.A.e...( : .   X X X X X X X X X . ; 1 1 4 5 y u 6.x.K.W./.|.|.|./.!.L.v.y.M.E OXOXQ T J j g g g g j D ^ &X<X6X7X",
"7X6X3X3X4X4X).B.A.v.&.X.( % . X X X X X X X X . % ( }  .3.s.D.U.T.^.^./.|.|.|. XW.L.H.S.B.E ^ OXOXT G k i + + + O @ i f D ^ <X6X",
"-X<X6X7X7X1X=X/ N.p.&.o.` ( > 1 1 1 4 5 5 4 1 0 ( _ {  .p.g.`.'.'.].'.'.'.`.`.J.F.v.b.g.! T T T oXT G k i X X X X o X O a D / -X",
"L ^ <X7X7X6X1X-X/ M.-._ o.X.+.{ {  .4.9.9.4. .{ X.+.* 7 M M C C C C C C C C y u 5.k.v.a.C A A G T oXT D i X X X X X X X O s D L ",
"k L =X3X6X7X7X1X%XR m.} X.o.o.O.1.j.c.e.0.9. .{ { =.9 f H L K J F m k k k g i 6 = %.8.p.M j g k G T oXL s X X X X X X X X O p d ",
"k F Q :X1X7X7X1X%XoXY M.} ' o.1.z.c.j.%.q 4 1 3 8 b H ^ =X>X-X=XOXJ A k j k g s 6 0 %.;.c d i a k G T I s X X X X X X X X X O + ",
"k S OX*X3X7X1X:X#XoXoXR t } ..z.G.b.5.= 1 + s f D W ^ *X-X>X>X*XY F k g g g g s O 1 { #.z p O o p k F S s O X X X X X X X X X X ",
"k J *X3X7X3X*X#XOXOXOXY b n p.b.W.J.u 6 d j G W &X>X>X-X%X+XY F f a @ + + O + O X - { { 7 O o o X i p a g p i X X X X X X X X X ",
"m W >X6X3X<X#XoXoXoXT P F C g.I.~.D.y p k J +X*X>X<X,X=X^ F k p O X X X X O O + O 3 { { 1 X X X X X X X g g X X X X X X X X X X ",
"Q ^ 3X3X*X#XoXoXoXoXF F I ~ ].~.I.S.M k J ^ :X>X*X@XY D f i p + X X X X X O p g d c @.{ 1 X X X X X X i g g X X X X X X X X X X ",
"oX#X:X:X#XoXQ U P G m m T Z.{.^.K.p.V F Q +X&X/ W D m h i O X X X X X X O i g j f c } +.* -   X X X X X p p i X X X X X X X X i ",
"oXOX#X#XOXQ F k d d g m T Z.{.E.c.t.E T Q W N N d d g j g p + X X X X X p g k g @ 7 { O.+.= . o X X X X + X X X X X X X X O p g ",
"P P L L J D k i + o s m U C.'.Y.6.-.R oXQ N @ X o + p g g p X X i X i i g j g a 2 0 %.h.h.5.q 4 4 . X X X X X X X X X i d s j j ",
"s s s s s i @ o + o + d J C.D.s.u 7 K Q F k @ o X o O O i X X + p g g g k g i 6 = %.8.c.v.e.0.4. .[ ; X X X X X X + p k D G m j ",
"X X o o X X o X X X o s I ! g.9.5 s L U A g O X X X o o X X X X g j j k k g + - +.h.v.H.H.H.F.v.1.} 1 X X X X X X + g m T T m k "
};
