/* XPM */
static char *result[] = {
/* columns rows colors chars-per-pixel */
"128 128 35 1 ",
"  c black",
". c #040404",
"X c #0C0C08",
"o c #100C10",
"O c #141010",
"+ c #181818",
"@ c #201C18",
"# c #242020",
"$ c #2C282C",
"% c #342C28",
"& c #383434",
"* c #403C3C",
"= c #4C4848",
"- c #585050",
"; c #60585C",
": c #6C6064",
"> c #746C70",
", c #807478",
"< c #887C80",
"1 c #94888C",
"2 c #988C90",
"3 c #A09498",
"4 c #A89CA0",
"5 c #ACA4A8",
"6 c #B0ACAC",
"7 c #B8B0B4",
"8 c #C0B8B8",
"9 c #C8BCC0",
"0 c #CCC4C8",
"q c #D4CCD0",
"w c #D8D4D8",
"e c #E4E0E4",
"r c #ECE8EC",
"t c #F4F0F4",
"y c gray99",
/* pixels */
"<<,,>>>>>>>,,,,,,,,,<<<<111<<<<<<22222222222222221122222231111111113333333333333333333333211111333333333335555533111111111111117",
".<4<<>>>>>>,,,,,,,<<,<<<<<<<1<<122222222222222222222111111<<<111133333333222222222223343221,,,1113333333333333431111<<,,,,,,,,4<",
"..<2<,,,,,,,,<<<<,,<<<<<<<<<1222122222222222222222111<<<<<<<<,11335554333222222212233554221<<<<<<<11111<<<<<111111<<,,,<<<<,,4<.",
"..+:4<<,,,<<<<<<<<<<<<<<<<<<<<1222222211223322331111<<<,,,,,<11335544333222211111112467643<<,,<<<<<<<<<<,,,<<<<11<<<,<<<<<,<2<.+",
"oo..&2<<,,,,,<<<<<,,,,,,,<<<<<<<2222221223333333111<<,,,,,,,<333443222111111<<<<<<<11488444<<,,,,,,,,,,,,,,,,<<<1<<,<<<<<,,4:+++",
"oo..#$<<<,,,,,,,,,,,,,,,,,<<<<<<<<1111133334443311<<,,,,,,,<<344111111111111<<<<<,,<<114442<<,,,,,,,,,,,,,,,,<<<1<<,<<<<,,2&++++",
"ooo..##2<<<<,,,,,,,,,,,,,,,,<<<<<<<111134445544311<<,,,,,<<<<341111222222221<<,,,,,,<<<1111<<<,,,,,,,,,,,,,,,<<<1<,<<<<,,<+++++#",
"oooo.o#+;<<<<<<<,,,,,,,,,,,,,<<<<<111133445554431<<<<,,,<<<<3112222223333221<<,,,,,,,,<<<<<1<<<<,,,,,,,,,,,,<<<11<,,,,,,2++++#++",
"ooooooo#+&922<<<<<,,,,,,,,,<<<<<<<1113334556654331<<<<<<<<2112332223333333211<<,,,,,,,,<<<<<12<<<,,,,,,,,,<<<<<1<<,,,<4;+++###++",
"oooooooO+#;08723<<<<<<,,,,<<<<<<<1113334455555433<<<<<<12222333222222233322221<<<<,,,,<<<<<2111<<<,,,,,,<<<,<11<<<,,29&++++##+++",
"oo+ooooo+#&+qq832<<<<<<<<<<<2<2<<113333331111111333323333333322222222222232222<<<<<<<<<<123333311<<<<<<<<<<<111<<<180;#+####++++",
"oo++ooo++#$&#ww55511<<<<<<<<122212121<12222221213122222222222222222222223332222221111223333333333111<<<111331<<<17qr>:#$$$$#+++#",
"oo+++oo##$$&*58wqqwwwwwwwqqq00998888777888999999887777655554445555555555567777788899900000qqqwwwweeerrrttttyyyyyyyy4:&&$$&$$++++",
"oo+++o###$&**<5q09844422113333333333333333333333333333332222111<<,,,,,1<2<<<<<<<<<<<<<<<<<<<<<<<<<<<<<<<<1214447qwt3**&&&&$$##+#",
"oo+++##$$$$**-,88755431111233333222222222222222222222222221111<<<,,,,,<<<<<<<<<<<<<<<,,,,,,,,,<<<<<<<,,,,,<1235789w==***&&&$#+++",
"oo++###$$$$&*-&985543311111112222211111111122211111111211111<<<,,,,,,,,,<<1111111<<<<,,,,,,,,,,,,,<<<<<<,<11235779w====**&&&$#++",
"oo++##$$$$$#&-&55433334321<<,111111,,,,,<<<112221122222111<<<,,,,,,,,,,,,<12221111<<<<,,,,,,,,,,,,,,<<<<<<22235677w=====***&$#++",
"oo+##$$$$$$##&&443334443211<<,,,,,,,,,,,,,<<<<12222111111<<<,,,,,,,,,,,,<123332111<<<<<,,,,,,,,,,,,,,<<<<<<2335447w====****&$#++",
"oo+########+#&.41111333432111<,,,,,,,<<<,,,,,<<<<<<<<<<<<<,,,,,,,,,,,,,<11234411<<<<<<<<,,,,,,,,,,,,,,<<<<<12334460===*****&$#++",
"o++++++++++##&.511222222432211<<<<,,,<<<<<,,,,,,,,,,,,,,,,,,,,,<<<<<<<<112334411<<<<<<<<<<,,,,,,,,,,,,,,<<<11233449===*****&$#++",
"o+++++++++#$$$.911111112233222111<<<<,<<<<<<<,,,,,,,,,<<<<<<<<<<<<<<<<111222211<<<<<<<<<<<<<<,,,,,,,,,,,,,<<1233449==**&&*&&$#++",
"o..............911<<<<112244222222222221111111111111112222222<<<111111222222221122222111111111111222222,,,,<<123348==*&&&&&&$#++",
";;,<1234578899001<<<<<<<114&&&&&&&&&&&&&&&&&&&&&************&**&&*****&*****************************&&5<,,,,<112338==*&&&&&&$#++",
"==-;;:::>,<<,,<11<<,,,,<<<4:&&&&&&&&&&&*&&&&&&&&&&&&=*****=*****************&******&*****=*********&*:5<,,,,,<<<237==*&&&&&&$$##",
"==-;;::>>,,<><<1<<,,,,,,<<3::&&&&&&&&&&*&&&&*&****&&&*&*&*&&&&&&&&*&&&&&&&&&&&&&&&&&&&&&&&&&&&&&&&$=:,5,,,,,,,<<<17==*&&&&&&$$##",
"==-;;::>,,<<>>,<<,,,,,,,,<3;;:*&&&**&*&**&&&*&*&&&&&**&&*&&&&&&&*&&&&&*****&&&&&&&&*&&&&&&&&&*&&&$&;:<4,,,,,,,,<<16==**&&*&&&$##",
"==-;;::>>,<<>,><,,,,,,,,,,3;;::&&&&&***&&&&&&&&&&&*&*&*&&&&**&&&*&&&****&&*&&&&*&&&&&*&&&&*&&&&&$=-:>15,,,,,,,,,<16==*****&&&$##",
"==-;;::>,><<>,><,,,,,,,,,,3;;;;:&&&&&&&&&*&***&&&&&&*&&*&&&&***&&&*&&&&&&&**&&&&&&&&&**&&&*&&&&$=::>,15,,,,,,,,,,15===******&$$#",
"+++++++++++++6><,,,,,,,,,,3;;;;;:&&*&&&&&&****&&&*&&&&*&&&&&&&&&&&*&&&&&&&&&&&&&&&&&&&&&&&&&&$$;:>>>,<4,,,,,,,<<<15========*&&$#",
"++++++######+6><<,,,,,,,,,3;;;;;;:&&&&&&****&*&*&**&**&*&***&&****&=**=&**=****&*&**&***&****&&;:>>,,15,,,,,,,,<<15--======*&&$#",
"98754311,>:#+611<<<<,,,,,,3;;;::::=,,,,,,,,,,,,,,,,,,,,,,,,,,,,,,,,,,,,,,,,,,,,,,,,,,,,,,,,,,,-:>,,,,<5,,,,,,,,<<14;--=====*&&&#",
"<1<,>:--*&$#+6111<<<,,,,,,3;;:::::-,,,,,,,,,,,,,,,,,<<<<<,,,,,,,,,,,,,,,,,,,,,,,,,,,,,,,,,,,,,>>>,,,,<5,,,,,,,,<<14;;----===*&&&",
"1<<<>:--*&$#+62211<<<,,,,,3;;:::::-,,,,,,,,<<<<<<<<<<<<<<<<<<<,,,,,,,,,,,,,,,,,,,,,,,,,,,,,,,,>>>,,,,<5,,,,,,,,<<15;------==*&&$",
"11<<>:--*$$#$622111<<,,,,,3;:::>::-,,,,,,<<<<<<<<<<<<<<<<<<<<<<,,,,4444556777766666665555552,,>>>,,,,<41,,,,,,<<<15;-----===**&&",
"11<<>:;**$$+$533211<<,,,,,3;::>>>:-,,,,<<<<<<<<<<<<<<<<<<<<<<<<<,,>:222222222<<<<<<<<<<<<<<<,,>>>,>>,<41,,,,,<<<<16;----====**&$",
"11<,>:;**$$+$533211<<,,,,,3;:>>>>:-,,,<<<<<<<<<<<<<<<<<<<<<<<<<<,,-;;;;;;;;;;;;---------====,,>>>,>>,<51<,,,<<<1117;----====***&",
"21<,>>;**$$+$533211<<,,,,,3;:>>>>:=,,,<<<<<<<<<<<<<<<<<<<<<<<<<<,>==-----------------------;,,>>>,>>><41<<<<<<<2117;;---=====***",
"21<,>>;-*&$$$533211<<,,,,,3:>>>>>>=,,,,<<<<<<<<<<<<<<<<<<<<<<<<,,-*$#####################&>,,,>>>,>>><41<<<<<<12118-;;--=====***",
";;--=**&$#++$63221<<<,,,,,3:>>>>>>*,,,,,,,<<<<<<<<<<<<<<<<<<<<<,,=$$$$$$$$$$$$$$$$$$$&&&&->,,,>>>,>>><41<<<<<<22119---;--====***",
"+++++###$$#$$81121<<,,,,,,3>>>>,,>*,,,,,,,,<<<<<<<<<<<<<<<<<<<<,,=*******&&&&&&&&&&&&&&&&;,,,,>>>,>>><41<<<<<221219----;-====***",
"+++++######$$8111<,,,,,,,,3>>>,,,>*,,,,,,,,,,<<<<<<<<<<<<<<<<<<,,-*****=====-------------,,,,,>>>>>>,<511<<<<222219=---;--===***",
";;,<1234578899111,,,,,,<<<3>>,,,>>*,,,,,,,,,,,<<<<<<<<<<<<<<<<<,,,,:::::::::::;;;;;;----,,,,,,>>>>>>,<41111<1222210=----;--===**",
"==-;;:::>,<<,1<<<,,,,,<<<14>>,,>>>&,,,,,,,,,,,,,<<<<<<<<<<<<<<,,,,,,,,,,,,,,,,,,,,,,,,,,,,,,,,>>>>>,,14111111222210=----;;-===**",
"==-;;::>>,,<><<<<<,,,,<<114>>>>>>:=,,,,,,,,,,,,,,<<<<<<<<<<<<,,,,,,,,,,,,,,,,,,,,,,,,,,,,,,,,,>>>>,,,14131111222210=-----;;-===*",
"==-;;::>,,<<><<<<<<,,,<<124>>7766555443311122333445<<<<<<<<,,,,,,,,,,,<<<<<<<<<<<<,,,,,,,,,,,,>>>>,,,<4333111222210=-----;;--==*",
"==-;;::>>,<<><<<<<<<,,,<<14>>><<<<<<<<<<<<<<<<<<<<>,,<<<<,,,,,,,<<<<<<<<<<<<<<<<<<<<,,,,,,,,,,>>>>,,,<4333311112210=------;;---*",
"==-;;::>,><<>><<33111<,,<14>>><<<<<<<<<<<<<<<<<<<<>,,,,,,,,,,<<<<<<<<<<<<<<<<<<<<<<<<<<,,,,,,,>>>>,,,<434333321221w=------;;;---",
"...............53433111,<14>>><<<<<<<<<<<<<<<<<<<<>,,,,,,,,<<<<<<<<<<<<<<<<<<<<<<<<<<<<<,,,,,,>>>,,,,<534444322221w==------;;---",
"o       ..oooo.534444111<14>>=oo. ....ooo++++##$$&&,,,,,,<<<<<<<<<<<<<<<<<<<<<<<<<<<<<<<<,,,,,>>>,,,,<535544332221w===------;;--",
"      oooooooo.435544331114>>=&#.....o+##**=-;:::>>,,,,,;<<<<<<<<<<<<<<<<<<<<<<<<<<<<<<<<<,,,,>>,,,,,<545554333221w===----------",
"      oooooooo.345554333124>>-=$#...##$$*;;;;:::>>>,,,,4>;<<<<<<<<<<<<<<<<<<<<<<<<<<<<<<<44,,,>>,,>,,<545655433221w=====--------",
"    oo..ooo+oo.345655433224>>;-=*#.#*=;;;;;:::::>>>,,,,4<>;<<<<<<<<<1111>>>>>><<<<<<<<<<4<>;,,>>,,>,,<545655433221w======-------",
"   o.....+++oo.445655433224>>:;-=*o;;;;;:::::>>>>,,,,,<<4<><<<<<<<q611>>>>>>>>><<<<<<<<4<>;<,,>>,>>,,1545544433321w==**====-----",
"  o.. ...+++ooo445544433324>>:;;=*#;;;::::>>>>,,,,,,,,<<<4<><<<<5666;;;;===;;:::><<<<<3<>;<<,,>,,>>>,1544444333321w==****===---=",
"  o.. ..++++ooo544444333324>>::;-;&;;::::>>>,,,,,,,,,<<<<<3<><<q6,:****=====*=-::>><<2<><<<<,,>,,>>>,<533333333321w==*****===-==",
" o..  ..+##+ooo533333333324>>>::;;=;:::>>>,,,,,,,,,,,<<<<<<2<>q6:*=--<<<=:<<<<=*-:<>1<><<<<<,,>,>>>>,<533311113331w===****=====*",
" o.. .oo#$&+ooo633311113334>>>::::=;::>>,,,,,,,,,,,,,<<<<<<<1>6:*=-<<<<<=><<<<<<=*:,>><<$$<<,,>,>>>>,<531111111331w====****===**",
" oooooo+$&&+ooo631111111334>>7766555443311122333445,,<<<$$$$86:*=<<<<<<<;,<<<<<<<=*:<>$$$$<,,,>,>>>>,<531111111131w--==*********",
" ooooo+#&&+oooo631111111134>>><<<<<<<<<<<<<<<<<<<<>,,,<<$$$q6:$=<<<$$$$$<,$$$$<<<<=$:,:$$<,,,,>>>>>>,<511<<1111121w--===********",
"ooooo+++&&+oooo711<<1111124>>><<<<<<<<<<<<<<<<<<<<>,,,,<<$$5:-$<<$$$$$$$1<$$$$$$<<$$$,><<,,,,,>>>>>>,<511<<<111111w---===*******",
"oooo+++##+ooooo711<<<111114>>><<<<<<<<<<<<<<<<<<<<>,,,,<<<51:$$$$$$;;<<$31<<>;$$$$$$=:,:,,,,,,>>>>>>,<511<<<<11111w;---===******",
"oooo+++##+ooooo811<<<<11114>>=oo. ....ooo++++##$$&&,,,,,<<1>-=$$$;;;<<<$42<<<<;;$$$$-*<:,,,,,,>>>>>>,<531<<<<<1111w;----===*****",
"oooo++++ooooooo831<<<<<1114>>=&#.....o+##**=-;:::>>,,,,,,-<:=$$$;;<<<<<$62<<<<<>;$$<-;=<:,,,,,>>>>>>,<541<<<<<1111w;;----==*****",
"oooo++oooo..ooo941<<<<<1114>>-=$#...##$$*;;;;:::>>>,,,,,,>>;$$$;<<<<<<<9872<<<<<>;$,,>=;;,,,,,>>>>>>,<5411<<<<1111w;;;----==****",
"ooooooo.....ooo9411<<<<1114>>;-=*#o#*=;;;;;:::::>>>,,,,,,<>;=$;;<<<<<<99862,<<<<<;$$,1;-;,,,,,>>>>>>,<54311<<<<111w;;;-----==***",
".oooo..    ..oo94311<<<<114>>:;-=*#;;;;;:::::>>>>,,,,,,<<,>==:>,,<122487643>;21<,>;==>;=-,,,,,>>>>>,,<533111<<<1110;;;-----==***",
"....        .oo933111<<<114>>:;;=*#;;;::::>>>>,,,,,,<<<<<>>====;>,<1247432<>;:>1<,,>:<;*=,,,,,>>>>>,,<6221111<<<110;;;;----==***",
"..   .  . ...oo8221111<<<14>>::;-;&;;::::>>>,,,,,,,<<<<<<:<==-$$$$$$$$$4<<;$$$$$$$$$$q:*,,,,,,>>>>>,,<6221111111110;;;;----===**",
".. ..oooo....oo722131111114>>>::;;=;:::>>>,,,,,,,,<<<<<<<$,<*-$$$$$$$$$$;;$$$$$$$$$$$6:*,,,,,,>>>>,,,<6222111111310;;;;----===**",
".  .ooooooooooo722233333334>>>::::-;::>>,,,,,,,,,,,,<<<<<$:,:=-,,,,,>-$$2>,,,,,,,,,$6:-=,,,,,,>>>>,,,<6133133333119;;;;----===**",
". .oo++++++oooo713223333334>>776655544331112233344,,,,<<<$:>,*=<<,,,,>-$1<,,,,,,,,,6q:##<,,,,,>>>>,,,<6123214331119;;;;---====**",
"...o+++++++++oo812222333314>>><<<<<<<<<<<<<<<<<<<<>,,,,,,$$:,:*=,,,,,,,$<,,,,,,,,,6q:-=#<<<,,,>>>,,,,<6122211433119;;;;---===***",
"..oo+++##$#$+++912222233314>>><<<<<<<<<<<<<<<<<<<<>,,,,,,$$$><:*=,,,,,,$,>,,,,,,,6q:-###><<,,,>>>,,,,<6122211453318;;;;--====**&",
"..o+++##$$$###+912211123324>>><<<<<<<<<<<<<<<<<<<<>,,,,,,$$1;>,:*=,,,,,$,;,,,,,,6q:-####>,,,,,>>>,,,,<6122211355318;;;--====***&",
"..++++#$$&&&#$$01211<112224>>=oo. ....ooo++++##$$&&,,,,,,$1<;,><:-*=,<<<>=<<<,,6:--;;##;>,,,,,>>,,,,><5123221245317;;;--====**&&",
"oo++++#$$&&&###0111<<<12224>>=&#.....o+##**=-;:::>>,,,,,,2<>,,,>>::-=*=-:=:<<2q:--#;<>;:>,,,,,>>,,,,><5123221245317;;--====**&&&",
"ooo+++##$$&$$$#q111<<<11224>>-=$#...##$$*;;;;:::>>>,,,,<3<>,##<<<>:::;;;;;;;;;--*=##;<>:>,,,,,>>,,,>>,5123321234317;--===***&&&&",
"ooo++++###$$$$#q22<<<<11224>>;-=*#.#*=;;;;;:::::>>>,,,<3<>,####<<<<,>>>>::;;-=*=<###<4<:,,,,,,>>,,,>>,5133321133316;--==****&&&&",
"ooooo+++#######w12<<<<11134>>:;-=*#;;;;;:::::>>>>,,,,<4<><#####<<<<<<;::-----=<<####;:4<:,,,,,>>,,>>,<5133321133316--===***&&&&&",
"oooooo+++###+++q222<<<11334>>:;;=*&;;;::::>>>>,,,,,,,,4><#######<<<<<<<<<<<<<<<######><4<:,,,,>>,,>>,<5133321133315--==***&&&&&&",
"ooooooo++++++++q222<<<11333>>::;-;&;;::::>>>,,,,,,,,,,####,,;#####<<<<<<<<<<<#####;####,44,,,,>>,,>>,<5123221133315--==**&&&&&&&",
"oooooooooooooo+02222<<11334>>>::;;*;:::>>>,,,,,,,,,,,,,##,,,,;######<<<<<<######;,,,###,,,,,,,>>,,>>,<5122221123325--=**&&&*&&&&",
";;,<123457889900<222<<11334>>>::::-;::>>,,,,,,,,,,,,,,,,,,,,,,;;###############;,,,,,###,,,,,,>>,,>>,14221111123325--=**&****&&&",
"==-;;:::>,<<,,<,<232<<11334>>776655544331112233344,,,,,,,,,,,,,,;#############;,,,,,,,#,,,,,,,>>>,>>,14221<<<<13325-===***=***&&",
"==-;;::>>,,<><<,<131<<11235>>><<<<<<<<<<<<<<<<<<<<>,,,,,,,,,,,,,,;;#########;;,,,,,,,,,,,,,,,,>>>,>>,1321<<<<<13325-========**&&",
"==-;;::>,,<<>>,,<<31<<<1135>>><<<<<<<<<<<<<<<<<<<<>,,,,,,,,,,,,,,,,,,,,,,,,,,,,,,,,,,,,,,,,,,,>>>,>>><42<<,,<<12325-========**&&",
"==-;;::>>,<<>,>,<<31<<<<115>>><<<<<<<<<<<<<<<<<<<<>,,,,,,,,,,,,,,,,,,,,,,,,,,,,,,,,,,,,,,,,,,,>>>,,>>>42<<,,<<12327-=====--==*&&",
"==-;;::>,><<>,>,<<31<<<<<15>>=oo. ....ooo++++##$$&&,,,,,,,,,,,,,,,,,,,,,,,,,,,,,,,,,,,,,,,,,,,>>>>,>>>42<,,,<<11227-===----==**&",
"+++++++++++++6>,<<31<<<<<<5>>=&#.....o+##**=-;:::>>,,,,,,,,,,,,,,,,,,,,,,,,,,,,,,,,,,,,,,,,,,,>>>>,,>>41<,,,,<12217-===-----==**",
"++++++######+6>,<131<<<<<<5>>-=$#. .##$$*;;;;:::>>>,,,,,,,,,,,,,,,,,,,,,,,,,,,,,,,,,,,,,,,,,,,>>>>,,>>31<,,,,<12217--=--;;--==**",
"98754311,>:#+6,<<231<<<<<<5>>;-=*# #*=;;;;;:::::>>>,,,,,,,,,,,,,,,,,,,,,,,,,,,,,,,,,,,,,,,,,,,>>>>,,>>41<<,,<123218;---;;;---==*",
"<1<,>:--*&$#+6,<<2311<<<<<5>>:;-=*o;;;;;:::::>>>>,,,,,,,,,,,,,,,,,,,,,,,,,,,,,,,,,,,,,,,,,,,,,>>>>,,>,411<,,<143318;;;;;;----==*",
"1<<<>:--*&$#+6<<12311<<<<<5>>:;;=*+;;;::::>>>>,,,,,,,,,,,,,,,,,,,,,,,,,,,,,,,,,,,,,,,,,,,,,,,,>>>>,,><411<<,<465318;;;;;---=--=*",
"11<<>:--*$$#$63113321<<<<<5>>::;-;#;;::::>>>,,,,,,,<<<<<,,,,,,,,,,,4444556777766666665555552,,>,>,,,>,411<<,1875419;;;----===-==",
"11<<>:;**$$+$531133211<<<<5>>>::;;$;:::>>>,,,,,,,<<<<<<<<<,,,,,,,,>:222222222<<<<<<<<<<<<<<<,,>,,,,,>,311<<<4864319;;--====*=--=",
"11<,>:;**$$+$531333211<<<<5>>,::::&;::>>,,,,,,,,<<<<<<<<<<<,,,,,,,-;;;;;;;;;;;;---------====,,>,,,,,><411<<<4442219;;--===**=--=",
"21<,>>;**$$+$531333211<<<<5:>,,,>:*,,,,,,,,,,,,,,<<<<<<<<<<<,,,,,>==-----------------------;,,>,,,,>><3121<<1112219;--===***=--=",
"21<,>>;-*&$$$5333332211<<<5::>,,>:=,,,,,,,,,,,,,,,,<<<<<<<<,,,,,,-*$#####################&>,,,>,,,>>><3121<<<111110;-===**&*=-==",
";;--=**&$#++$63333332111<<5:::::::=,,,,,,,,,,,,,,,,,,,,,,,,,,,,,,=$$$$$$$$$$$$$$$$$$$&&&&->,,,>,,,>>><11221<<<11110-===**&&*=-==",
"+++++###$$#$$81311232211<<5;::;;;--,,,,,,,,,,,,,,,,,,,,,,,,,,,,,,=*******&&&&&&&&&&&&&&&&;,,,,>,,>>>><113221<<<1110-==***&&*=-==",
"+++++######$$81112233321<<5;;;;;;*=,,,,,,,,,,,,,,,,,,,,,,,,,,,,,,-*****=====-------------,,,;-$,>>>>><1133211<<1110==***&&**=-==",
";;,<12345788991211244321<<5;;;--*=555555555555555555555555555555,,,:::::::::::;;;;;;----,,,,444-;:>>><1133221<<<11q=***&&&*=====",
"==-;;:::>,<<1122111443211<5*===*=255555555544444444444444444444444444444444,,,,,,,,,,,,,,,,,4444;-::>,11333221<<11q=**&&&&*====*",
"==-;;::>>,,<1122222112111<6=***>355554444444444444444444444444444444444444444444444444444444444443-;:,51333221<<11q=**&&&*=====*",
"==-;;::>,,<<<122222211111<6====55555444444444444444444444444444444444444444444444444444444444444444=->62332211<<11w=**&&&**====*",
"==-;;::>>,<<<112211222211<6==>355555555555544444444444444444444444444444444444444444444444444444444<==6122111<<<11w==**&&&******",
"==-;;::>,><<<<1222112211<<55556666666666666666666776777777778888999999999998888888777777778888888888886111<<<<<<11w==**&&&&**&&&",
"...............322<11111<<<111111111111111111111111122233322222223332211111111133455555443331111111111<<<<<<<<<<11w;=****&&&&&&&",
"............XX.322<<<<<<<<<<11111111<<<<<<<<<<<<<<<11233333332223321111<<<<111133456655433311111<<<<<<<<<<<<<<<<11w;===***&&&&&&",
"....#########X.32<<<<<<<<<<<<<<<<<<<<<<<<<<<<<<<<<<<122333322222211311<<<<<<<111344555443311111<<<<<<<<<<<<<<<<<11w--===****&&&&",
"..+######$$$##.52<<<<<<<<<<<<<<<<<<<<1111<<<<<<<<<<<12222222211114311<<<<<<<<111344554443111111<<<<<<<<<<<<<<<<<11w---===****&&&",
".++######$&&&$&622<<<<<<<<<<<<<<11111244411<<<<<<<<<1111111111114411<<<<<<<<11113344433331111111<<<<<<<<<<<<<<<112w-----===***&&",
".+++####$$&&&$&7222<<<<<<<<<11111111144488411<<<<<<<111111222344331<<<<<<<<11111333333322122222111<<<<<<<<<<<<1136w------===**&&",
".+++#####$&&$$&74222<<<<2211111111111334676421111111222233344553311<<<<<<11111113322332211222222211<<<<<<<<<<11367w------====**&",
".o+++####$$$$$-864222222211111111111113345533221222222233345553311111111111111222222222222222221222111111111113680w------====**&",
".o+++++###$$++197655555555555555555555557777777755555554444455555555677777777776665554443333334444455666666666680ww------=====*&",
".o+++++++++++:81=$###############++++##+++++++++++++#$#$$$$$$#$#########++++@@############################&&&&*->3w7----======*&",
".oo++++++++#23>:*&&$########$$&******$##+++++++++###&&&&&&&&&&&&&&&$$$###+++@@$$$$$$$$$$$###@@@@@@@@@@@@@@@@@@%&**<93=========*&",
".oooo+++++&3>>>-&$$####$$&*********$$$##+++++#####&&&&&&&&**=*****&$$$$$##++@@$$*******&&&$#@@oooooo      oo@@@$&&*:4<=======**&",
".ooo.ooo+=,=>-==$$$###******&&&&&###$$$#######&&&&&&&*****======**&&$$$$$##++@$&*&****&&&$$@@@             oo@@@@&&&*:2=*******&",
".oooooo.-:=-==&$$$$&&&****&&&&&$$$$####$$$$$$$&&&&&&*****=======**&&$$$$$###+++$&&***&&&$$@oo                oo@#$$&&*&1=******&",
".o. ..o;;====*&$$$&&&&&*******&&$$$$#####$$$$$$$&&&&****=======**&$$$$$$$##++o++$$&&&&&$$@oo                   @@##$&&*&2:*****&",
"... .#--===**&$$$$$$$$$$$$&*****&&&$$######$$$$$$$$&&&&&&&*****&&$$$$$$$##+++ooo++$$&&&##@oo         oooo#oo    o@##$&&*&2>*&&&&",
"....&:=*****$$$$$$$####$$$$&&*****&&$++########$$$$$$$$&&&&&&&&&$$$$$####+++oooo+++$$######ooo     ooo#@@@ooo    oo@#$$$**1>*&&&",
"...=;=#$$$$$$$$$$#######$$$$$*****&&&#+++++########$$$$$$$$$$$$$$$####+++++ooooooo++$####@@oooooooooo@@#@@ooooo   oo@@#$$&&,<*&&",
".o-;=+##$$$$$$$$####++++###$$$***&&##++++++++###########$$$$$$$$$###+++++oooooooooo+++$####@@@@@@@+@@@##oooooooo    oo@@@$&$=1*&",
"@;=++++###$$$$####++++++++##$$$###++++++++++++++++++++############++++++ooooooooooooo+++##############@ooooooooooo    oo##@@@=2&",
":-+++++++++++++++++++++++++++++++++++++++++++++++++++++++++++++++++++oooooooooooooooooooooooooooooooooooooooooooooo        .oo=1"
};
