/* XPM */
static char *_312905c161449329526a3cd22bb9ea0OwsmbMhuuLZVqkiF[] = {
/* columns rows colors chars-per-pixel */
"64 64 38 1 ",
"  c black",
". c #040404",
"X c #080804",
"o c #0C0C08",
"O c #100C08",
"+ c #100C10",
"@ c #141010",
"# c #1C1414",
"$ c #181818",
"% c #201C18",
"& c #28201C",
"* c #242020",
"= c #2C282C",
"- c #302420",
"; c #342C28",
": c #3C302C",
"> c #383434",
", c #403430",
"< c #483C34",
"1 c #403C3C",
"2 c #4C4038",
"3 c #4C4848",
"4 c #544440",
"5 c #5C4C44",
"6 c #585050",
"7 c #60585C",
"8 c #786458",
"9 c #6C6064",
"0 c #746C70",
"q c #806C60",
"w c #807478",
"e c #947C70",
"r c #9C8478",
"t c #887C80",
"y c #94888C",
"u c #988C90",
"i c #A09498",
"p c #A89CA0",
/* pixels */
",636677008697666=w6.160909079900990tu09099909ww90977799009763117",
"$2976w0009977977=06.390799939900000tt000w909yyye09907990ww76969@",
"$$600wwtww00ww9w=w7.3990009000009wwtwiyww0wttwwr90099900yw090u$@",
"$$*1,1<>&><<,11,*t7+-1<,,111<1,,1,,3<<,1<,11,111131111<311,111$@",
"@$$111,1-=31,11,*t7 ;11111,,-;1<11113,1<,,<,<3<1<,,<61;%-1,113@@",
"@@*1,1<1&>111311*t9.;,3111,,-=<1,,<,13,>,,,<<>1<<1<31<=-=1<,,1@@",
"@$*11311->111111=w7.-,,31,,,=>33.....3,3....><......<1=--,,3,1$@",
"@@*131,1==,<,11,*t7+-1,,1,11=116$@O++3<>$@@O,=+@O+++,<;--,1111+@",
"@@*13,,1->,,,3,1*t7 $<11,,,1=>,6$--=+116$=-$,=+*==*+,1;--<3131+@",
"@@*1,,,>=>131113*t9.-,,1,,,,>1<3$,1,$1>3$,,$>,+*1>=+11,:=13111$@",
"@@$13,1>>>1,1111*w7.;,,<<,,,>>13$><>$3,3$<>*1>+*1,=+11,:=1,111@@",
"@@*1,,,>=>1<1111*w7.-,<<<<11>137*11,$1,7*11*,1+=1,=$11::>,,,,1@@",
"@@*1,13>>>13311,=w7 &:1,<1,,;;11*,1,$1,1*,,*16$=,,>+111>>1,,,1@@",
"@@*1,,1>>1,,<,,3*w7 &:,,,,<,;<<3*>11*1,3*,>=73$>>>>$1<,:=1,,,>@@",
"@@*13,<;>>,,,,,3*y7.-:,,,<,,33,1=,,1=1<1=>,=11$>1,>$1,:;=,,,11@@",
"$@$1,<,,;>,,,,,,=w9+>,,,,,3,11,3,,13>>,3,3,><>=3,11*1<,::,,<<>@@",
"@@*1<1<>;1<,31,,=w7.>1,,,,3,<,,5,4<,<>,11<4>,2=,,,,=11:,=<,<<1@@",
"@@*1,13>,13,4,1,=w7.=,,,<,,,,<,21,,>1,,<<,<>1<,,,1111,>>:,3331@@",
"@@$1<,,,;;1,1131=w7 >1,1,,211<,313>1113<,1,11313,,11>>1,1,,=<1@@",
"@$$1,,,;,;,,1,,,*w7 =,,,<,111,,11311311,41<11111,,3...3,1,<,,1@@",
"@@=1,1,3;,<,,,,,*y7.=<,,,1,,1<<,1,,1111111111,,1110+@O6,,,<,,>@@",
"@@%1,111<1,,,,,,=w9+=,,,<,,1,,,,3<,1,1,11,1,,1,=,,6$*$61131=,1@@",
"$$-1,,13<1,1,,,,=t7 =,,,,,<,,,,1,<,:<<,,111,313<3>7$==3>,11,11@@",
"@@%14,,1,4,1,12==i9.->11,1,,,,,,11,><<<,,4,<,,1,,<6$==311,,=11@@",
"@$-11*,,,,,,<,>3+@@ =*>,,111311,4,1=<,,1,<4<<3,<,,6$=>611<,3,1@@",
"@$=113,1,<=,,,=3+1>+=*=<,14,,<,1<<1>,,<,<111>>>1116*1131313111+@",
"$$=11,,,,,=1,4>3+03+=$>,11,,,,,,1,<>,,<<3>%XX@@..@#*>>$@@-@.@@3+",
"$@=131,,,1,,,1=>+11+>*=4111<<1,,,,1;,,<11=%%OO@oo@@@@@@#@@@O@#@*",
"$@-1<,,,,,==,,=>*$O$=$>,1,111,,1,,1>,,23=%%OX    #OXOOO##   ##O$",
"@@-1,,,<11,,1<,$@$XXX$>,,<,114,,,,<,,,6===@O$$$$ #+=1>$OO#$ OO=%",
"@@-1,1,<1,1:11,>$%=*==>11,<,11,4,,,<<6>*%$$99qq8w90%$=0008qq0t=@",
"@@-1,1,,,1,,1<1;;,,,==,11,,,-1,,,1,,6>=%O.311,<,><1%==9,,4,,15+@",
"$@-1,1,1,11,11<;1,,,-11114<,>,,11,,1,=$$.31,1,,1,,>*>=7,,,,,14+@",
"$@*1,,<11,,:11<1>,11-;1,111,=1,,,,11=*O.61,,1:,,<,>%>>611,,<,6@@",
"$@*1,,,,1,<:,4<,,,11>;,,,1<1>1,,411=%O 311,,1><<311%>>614<,,,6@O",
"@@-1,,1,<,,>,,,;<441=><,,<1,;,,413=-X >11,1<1,,,3<1=>>32,,,<<5O@",
"$$=1,,,,,3,1111,<<<11<<<<13,,1327,=O >,,1,,11,,3,1>>>11411,,15O@",
"@@*1,,,,,3,<,,4,,,,11,,,,<<,11471,OO*111,,,11>11,,1,<<,1111,,4O@",
"@@=1,,,<,,,,,,,,,,11<,<,,<,1<,7,,$.+<,,<<,1,1:111,11,,,,1<,,16@@",
"@@*1,,1,,211113111111,3<11<,,311%++6<,11,<,,,,,11<,,<,,,,,,1,6@@",
"@@*11,,,,111,>%@O+1,,,,,,,,131,%+ 33,,,,,<,,,,<1,,<<1<1,,,1,15@@",
"@$%1,,,,1,,113%XX 113,1<,,<113=+.6,,1,<,3,1,,1,,,,,,,1,,11,,,5@@",
"@@*11,<,<,,,,1* XX1,,,,<1,131- .3,1,,131<,<11<31,,<,,,<3,,<,15@@",
"@@*11,<131,311* X 1<<,,>,16,=O.13111<,,,1>11>1,,<,1,<,,,,,1116@@",
"@@*111,,,3>1,1*   1,1,$127,=@.=,,<,1*31,,,=,,,,,,1<,,,1111,116@@",
"@$-113<1,*,,<1*XX%14,1,,7==@.=<<31111111,1,,11,,<,1<,1,,1,,116@@",
"@+=3316+616336=$@-111339==O.%31<1,76767071>1,,,,,<1,<11,,:1,16@O",
"+$$$$$.$$$@O+$+$$$@$@@@=,%.$3,,,,<33>>*31=>11<,1,,,<,<111,11,6O@",
"$$@$@@$$$$@$$+@@@@O$@@@@% $6<1,<4,61>t>*1=1>>,111,<1<11,,>,,<6@@",
"-$$O$@$ OOO#$O$O$$$ O@%*$@7<13,,1<6>1p>$1-1,,,,,,11,,11,1:,<,6@@",
"@$>$++++%%%>$$$%,,4,,,>>-9,<,,<,333>1u=*1-><<<1<,,,1,11,,>1<16@@",
"@@=13>111>1.11-@==3311=>=1111,,1,,$$*=+.$=>11,11,,,,,,,,3,1,,6@@",
"$@=1,3,,11=11>=@=%31>1,>11113,,1,,=>70>@$=>111,1,,:,,<,<,1,<16@@",
"$@*16,311<,,,1%@-%111,<1>11,,,11111179>@=,1>>,,1,:,,,,<<,1<115@@",
"$@=3,3,<111,,1=@=%13111>>,11,331,11<66=@-,1,1,11,,:,,,,<3,,,,6@ ",
"#@=1,,,,3,<133$$$%1111111111,,331,<,63>@-,1,,,<1,,>,,,11,,<1,6@X",
"#@=1>,<,1,<113-==*11,4,1>1111<11,13167>@*,,,111<,1:,,,1,,1<,<6XX",
"#@*1<13,1,4<,111111114,11<1331,113<137=@-<,11,1,1:1<1,,1,111<5XX",
"#$=>=,,1,1,,11111,,41,11311111113<,>31*@-1111,41,,,,1=,,,1,,,5XX",
"%@*=>,,,<,113,14,,14111,111111111,<,33=@-,11,,<<,,,1,31<,,==,5XX",
"%@*3,1,1,<1,1,,<1<1,,4,13,<3,<,<<<,>37=+*,11,,1,,,1,1,,,,,,3,6XX",
"%$*13131113111111311111111111111111>67> =1111<1>;>;;1<<1<<<313X ",
"%@@=****$****$$$$*$$**$$$$$*$*$$***$63>X$$*$=OOOO@@@oooo.@@@**X ",
"OXX@XXXXXXXXXXXX@@@@XXX@@@XXX@@@@@@%66=++XXXX............o..    "
};
