/* XPM */
static char *_19bba1cbeea4fa196198ab1b89fb6abreUfa6vm9kkx18jV[] = {
/* columns rows colors chars-per-pixel */
"66 82 135 2 ",
"   c black",
".  c #040400",
"X  c #040404",
"o  c #0C0000",
"O  c #0C0404",
"+  c #0C0C08",
"@  c #180400",
"#  c #180C04",
"$  c #18140C",
"%  c #040810",
"&  c #0C0C18",
"*  c #100C10",
"=  c #141010",
"-  c #1C1414",
";  c #181818",
":  c #280400",
">  c #340804",
",  c #201008",
"<  c #28140C",
"1  c #201C18",
"2  c #301C10",
"3  c #202010",
"4  c #28201C",
"5  c #282818",
"6  c #3C2014",
"7  c #30301C",
"8  c #101420",
"9  c #14182C",
"0  c #182034",
"q  c #242020",
"w  c #2C282C",
"e  c #302420",
"r  c #342C28",
"t  c #3C3824",
"y  c #3C302C",
"u  c #383434",
"i  c #440C04",
"p  c #580000",
"a  c #541004",
"s  c #601404",
"d  c #442418",
"f  c #4C2C18",
"g  c #54301C",
"h  c #403430",
"j  c #483C34",
"k  c #403C3C",
"l  c #603420",
"z  c #683C24",
"x  c #745804",
"c  c #644418",
"v  c #444028",
"b  c #4C4C2C",
"n  c #4C4038",
"m  c #545434",
"M  c #704028",
"N  c #78442C",
"B  c #605C38",
"V  c #202840",
"C  c #242C48",
"Z  c #283450",
"A  c #2C385C",
"S  c #344064",
"D  c #38446C",
"F  c #3C4C78",
"G  c #4C4848",
"H  c #544440",
"J  c #5C4C44",
"K  c #585050",
"L  c #64544C",
"P  c #6C5C50",
"I  c #60585C",
"U  c #686440",
"Y  c #706C44",
"T  c #787448",
"R  c #786458",
"E  c #6C6064",
"W  c #746C70",
"Q  c #801C08",
"!  c #AC0000",
"~  c #8C200C",
"^  c #8C6C08",
"/  c #947808",
"(  c #844C30",
")  c #8C5438",
"_  c #905C3C",
"`  c #986444",
"'  c #A06C48",
"]  c #A87450",
"[  c #AC7C58",
"{  c #806C60",
"}  c #8C7468",
"|  c #807478",
" . c #947C70",
".. c #A08008",
"X. c #AC8C08",
"o. c #B09410",
"O. c #BCA010",
"+. c #C8AC10",
"@. c #D4B414",
"#. c #FCE018",
"$. c #848050",
"%. c #8C8854",
"&. c #949454",
"*. c #9C8478",
"=. c #B08460",
"-. c #B89068",
";. c #A88C7C",
":. c #BC9870",
">. c #C4A078",
",. c #F0B864",
"<. c #405080",
"1. c #48588C",
"2. c #887C80",
"3. c magenta",
"4. c #7890BC",
"5. c #94888C",
"6. c #988C90",
"7. c #AC9484",
"8. c #A09498",
"9. c #A89CA0",
"0. c #ACA4A8",
"q. c #B0ACAC",
"w. c #B8B0B4",
"e. c #CCAC80",
"r. c #C0A494",
"t. c #D8B8AC",
"y. c #C0B8B8",
"u. c #ECCCB8",
"i. c #84A4CC",
"p. c #C8BCC0",
"a. c #CCC4C8",
"s. c #D4CCD0",
"d. c #E0D8DC",
"f. c #E4E0E4",
"g. c #ECE8EC",
/* pixels */
"3.3.3.3.3.3.3.3.3.3.3.3.3.3.3.3.3.3.3.3.3.3.3.3.3.3.3.3.f d f f < 3.3.3.3.3.3.3.3.3.3.3.3.3.3.3.3.3.3.3.3.3.3.3.3.3.3.3.3.3.3.3.3.3.",
"3.3.3.3.3.3.3.3.3.3.3.3.3.3.3.3.3.3.3.3.3.3.3.3.3.3.3.3.d 6 6 6 d 2 3.3.3.3.3.3.3.3.3.3.3.3.3.3.3.3.3.3.3.3.3.3.3.3.3.3.3.3.3.3.3.3.",
"3.3.3.3.3.3.3.3.3.3.3.3.3.3.3.3.3.3.3.3.3.3.3.3.3.3.3.3.2 d d d f d 3.3.3.3.3.3.3.3.3.3.3.3.3.3.3.3.3.3.3.3.3.3.3.3.3.3.3.3.3.3.3.3.",
"3.3.3.3.3.3.3.3.3.3.3.3.3.3.3.3.3.3.3.3.3.3.3.3.3.3.3.3.3.6 6 6 < < 3.3.3.3.3.3.3.3.3.3.3.3.3.3.3.3.3.3.3.3.3.3.3.3.3.3.3.3.3.3.3.3.",
"3.3.3.3.3.3.3.3.3.3.3.3.3.3.3.3.3.3.3.3.3.3.3.3.3.3.3.3.3.d d f d < 3.3.3.3.3.3.3.3.3.3.3.3.3.3.3.3.3.3.3.3.3.3.3.3.3.3.3.3.3.3.3.3.",
"3.3.3.3.3.3.3.3.3.3.3.3.3.3.3.3.3.3.3.3.3.3.3.6 2 3.3.3.3.2 2 6 6 # 3.3.3.3.3.3.( 3.3.3.3.3.3.3.3.3.3.3.3.3.3.3.3.3.3.3.3.3.3.3.3.3.",
"3.3.3.3.3.3.3.3.3.3.3.3.3.3.3.3.3.3.3.3.3.3.3.d g f 3.3.3.< d 6 6 @ , 3.3.3.3.g _ 3.3.3.3.3.3.3.3.3.3.3.3.3.3.3.3.3.3.3.3.3.3.3.3.3.",
"3.3.3.3.3.3.3.3.3.3.3.3.3.3.3.3.3.3.3.3.3.3.3.6 l z g 3.3.3.6 d 6 < , 3.3.3.l ) N 3.3.3.3.3.3.3.3.3.3.3.3.3.3.3.3.3.3.3.3.3.3.3.3.3.",
"3.3.3.3.3.3.3.3.3.3.3.3.3.3.3.3.3.3.3.3.3.3.3.3.g l d l 3.2 f d < < , 3.d z ) N l 3.3.3.3.3.3.3.3.3.3.3.3.3.3.3.3.3.3.3.3.3.3.3.3.3.",
"3.3.3.3.3.3.3.3.3.3.3.3.3.3.3.3.3.3.3.3.3.3.3.3.6 l f g 6 d < < < 2 g l M ' z g 3.3.3.3.3.3.3.3.3.3.3.3.3.3.3.3.3.3.3.3.3.3.3.3.3.3.",
"3.3.3.3.3.3.3.3.3.3.3.3.3.3.3.3.3.3.3.3.3.3.3.3.3.$ 2 < < d f l z l f 2 d d f d 3.3.3.3.3.3.3.3.3.3.3.3.3.3.3.3.3.3.3.3.3.3.3.3.3.3.",
"3.3.3.3.3.3.3.3.3.3.3.3.3.3.3.3.3.3.3.3.3.3.3.3.< o p ! p , d f f d @ p ! p : d 3.3.3.3.3.3.3.3.3.3.3.3.3.3.3.3.3.3.3.3.3.3.3.3.3.3.",
"3.3.3.3.3.3.3.3.3.3.3.3.3.3.3.3.3.3.3.3.3.3.3.# < # # ! p ! , # < # ! p ! 2 M ) f 3.3.3.3.3.3.3.3.3.3.3.3.3.3.3.3.3.3.3.3.3.3.3.3.3.",
"3.3.3.3.3.3.3.3.3.3.3.3.3.3.3.3.3.3.3.3.3.3.3., d 6 < # i a d d d d : > 2 f ) _ N 2 3.3.3.3.3.3.3.3.3.3.3.3.3.3.3.3.3.3.3.3.3.3.3.3.",
"3.3.3.3.3.3.3.3.3.3.3.3.3.3.3.3.3.3.3.3.3.3.3., g f f z ) _ _ ) ) _ P g # N ` ( z d 3.3.3.3.3.3.3.3.3.3.3.3.3.3.3.3.3.3.3.3.3.3.3.3.",
"3.3.3.3.3.3.3.3.3.3.3.3.3.3.3.3.3.3.3.3.3.3.3.@ d < z ` ] -.=.[ =.=.] ` f d ( M z < 3.3.3.3.3.3.3.3.3.3.3.3.3.3.3.3.3.3.3.3.3.3.3.3.",
"3.3.3.3.3.3.3.3.3.3.3.3.3.3.3.3.3.3.3.3.3.3.3., 2 e l ( _ [ =.=.-.` _ _ f < d z f 2 3.3.3.3.3.3.3.3.3.3.3.3.3.3.3.3.3.3.3.3.3.3.3.3.",
"3.3.3.3.3.3.3.3.3.3.3.3.3.3.3.3.3.3.3.3.3.3.& 9 + d ) N z ] [ [ =.N N =.M - 2 l 2 9 0 9 8 3.3.3.3.3.3.3.3.3.3.3.3.3.3.3.3.3.3.3.3.3.",
"3.3.3.3.3.3.3.3.3.3.3.3.3.3.3.3.3.3.3.% & 9 + 9 + N ' l d ] ] ] [ f f =.' d d f < 9 q 1 8 8 = 9 8 & 3.3.3.3.3.3.3.3.3.3.3.3.3.3.3.3.",
"3.3.3.3.3.3.3.3.3.3.3.3.3.3.3.3.& % & 8 8 + < 9 $ ( ] N # ( ` ' ] d l =.=.l d 2 2 9 d - 8 8 % + - - - 2 9 0 3.3.3.3.3.3.3.3.3.3.3.3.",
"3.3.3.3.3.3.3.3.3.3.3.3.3.% 8 < 4 8 8 8 8 h e . # ) ' ( d N ` ' ] f ) >.-.f < - 2 8 C 9 8 8 G *.| P H d 4 q 8 3.3.3.3.3.3.3.3.3.3.3.",
"3.3.3.3.3.3.3.3.3.3.3.3.8 q e y H w 8 8 8 K w * l _ ` ' _ ` ` ] ] ( ] ] [ ( 2 # # & 8 9 9 8 I E 2.0.9.8.{ l q & q 3.3.3.3.3.3.3.3.3.",
"3.3.3.3.3.3.3.3.3.3.3.0 d j y y w - 8 8 9 8 8 w g M ( ` ] ) ) ] ` _ ] ' _ M l @ 0 9 9 9 9 &   % & 0 h I | w 7 b u w 3.3.3.3.3.3.3.3.",
"3.3.3.3.3.3.3.3.3.3.8 + 4 q * - 8 & 8 8 9 8 8 V d W 4 2 d 6 l ) f d 6 < 5.k g 2 V 9 9 0 8 9 0 V V C r 5 1 e G j G c d 3.3.3.3.3.3.3.",
"3.3.3.3.3.3.3.3.3.& ; O + 1 r r y 0 8 9 9 9 & % G 9.< O @ o < 6 o o o o | 5.2 w 0 0 9 9 8 9 V 0 C A b B b v G k G v l d 3.3.3.3.3.3.",
"3.3.3.3.3.3.3.3.% V 0 0 q r h u A V 8 9 0 9 9 0 8.q.2 # > , O o @ # , @ K a.J f V 9 0 ; t H J 0 0 G b B H b b G G j v d w 3.3.3.3.3.",
"3.3.3.3.3.3.3.3.- V w w w u k A A C 8 8 9 8 C K a.2.< < > > > > > > > > y w.2.d 9 9 9 w T X.^ V V D m B J H J G G k G v r q 3.3.3.3.",
"3.3.3.3.3.3.3.% 0 q V 0 V u D S F A 0 8 0 0 Z W a.K @ < > , > > > > > , , 8.9.0 8 9 8 v X.X.+.I C r m m H J m S A A G n k 9 3.3.3.3.",
"3.3.3.3.3.3.3.8 0 0 0 w C u u S S 0 8 9 0 9 V | y.E @ , > < < > > < > @ - 6.w.K 8 9 V 9 ..,.e.<.Z A m B H J G S D S A u V 0 8 3.3.3.",
"3.3.3.3.3.3.% & 0 0 V C C C V C C 9 8 9 V 0 u 5.w.2.e < 6 g d f d a > , e 5.q.| 9 9 V 0 C 1.D S A S K G H m A Z A A A C C C 9 3.3.3.",
"3.3.3.3.3.3.& 0 9 0 V C V w 0 8 w Z h E V 9 0 5.q.8.G 6 s l f Q s 6 a a K 6.q.8.Z 9 V 0 V F F D A Z S r v n A C V 0 S A C u 6 3.3.3.",
"3.3.3.3.3.* 8 9 9 0 V V A V 8 J 2.r.9.9.5.E 0 6.q.0.I ~ M M s M l f ~ Q I 8.q.9.D 0 0 0 C <.D S D V w C C A S S Z V A S u u 2 3.3.3.",
"3.3.3.3.3.% 0 & 9 0 y J K r K W 5.6.4 * * I | 8.w.5.h M ~ Q l 6 g M f J j 5.q.q.G 9 C 0 C <.F D D V 0 - V F D D D K S k u 5 , 3.3.3.",
"3.3.3.3.% 9 V 9 8 y P J 6 < a.n p.y       + r.R W 2 j  .a l ( i n E y i.h 2 { 5.C 0 V 0 C <.F A A V 8 0 A F D K I m G G 7 q & = 3.3.",
"3.3.3.& 8 0 0 & + N L < , < g.G 0.|   O o K 0.d N d J 4.d L 8.6 I 5.y W L l ( l 9 V 0 0 D D S C V 0 8 V D <.I B U B K u r V 9 % 9 3.",
"3.3.3.8 Z 0 9 & @ { n < < < d.9.W 8.| 2.2.*.} 9 g c ( P z ) R ( c _ N ( ) N l 9 0 V 0 0 A Z V 9 0 9 9 V K I K K G u w V V V 9 & & 3.",
"3.3.q 0 A A 8 + < 7.2.* + - 7.t.6.G K K P E { Z 9 d f g l M ( ( N z N z g 6 9 0 0 0 0 9 0 0 V V C 8 9 u b K I G u r C A V 0 8 - % 3.",
"3.3.& 0 A A 0 + , ;.s.E k o | u. .*.h r J W } 0 0 0 9 8 8 % 8 8 9 8 8 9 9 0 V V 0 0 0 9 V V C C C & 0 r k u u r 7 V 0 V 0 V A w % 3.",
"3.3.& 8 9 C * + @ *.0.r r o  .g.W w       w T b 8 V 2 T #./ 9 9 X.%...Y 8 ..Y ..o.8 0 0 V V V V 0 % 9 A r r w 0 9 w w y u k k r < 3.",
"3.3.2 $ # + + @ o  .| o @ @ K f.L           x T 8 i * T o.O.h < ^ +.@.U 8 ..Y 0 @.C 9 8 0 0 V V 9 % 9 V V w w C h r r r h n h u 8 3.",
"3.2 < - < - + @ o } 5.O # , < | *.y o     w m O.X.U _ O.O.O.T ..x +.&.$.T B O...O.V 8 9 0 0 V V 8 3.8 8 0 C r w w q - - 8 q 4 3 % 3.",
"3.6 d 2 f d O + o ` f.1 @ # 6 < W  .W E K G 8 7 t C t h V w g _ f ( g g l 4 u t Z 0 8 9 V C C 0 & 3.3.% 9 q q 1 - - - - - # , $ 3.3.",
"3.f d 2 2 2   + $ n P # @ @ < l d w w e 8 & 0 9 9 0 9 2 a i a a a i a a a a i 2 0 9 - 0 V A A 8 % 3.3.8 8 8 8 8 8 & O # 2 < 2 3 3.3.",
"6 g z d 2 2 2 y d 2 < < @ # < d 3.3.3.3.3.8 0 0 0 0 0 V a g i a d w a d d a a s a w w V C Z C % 3.3.3.3.3.e e < 2 2 d d 2 2 2 2 2 3.",
"f z ( z d d z ( N N ) N f d > 3.3.3.3.3.3.3.w V V 0 0 i d V 0 d i d a i i a w a g u A h u C & 3.3.3.3.3.3.3.g z N _ ' _ N l z l g d ",
"l M ) l d N _ ] ' ' ' ' ` 3.3.3.3.3.3.3.3.3.3.+ 9 9 V i 0 0 0 2 2 0 V d V d e C j k r w - + 3.3.3.3.3.3.3.g z N ( ' ] ' ) N l z l d ",
"g z z z N ) _ ` ' ` ) ( 3.3.3.3.3.3.3.3.3.3.3.O   & & 8 V 0 C r C Z Z C C C r r q + + X   O 3.3.3.3.3.3.d l z z z ( ] ' ( ( z l l d ",
"l c ( f z N ) ) N k u w 3.3.3.3.3.3.3.3.3.3.X X % % % % 8 9 0 V C C C C V r C 1 & % % % % % 3.3.3.3.3.3.3.f d 3.d 2 ) N N ) ( z l d ",
"d l z f l N l f < G G 0 3.3.3.3.3.3.3.3.3.3.% & & & & % % 8 8 9 8 9 9 9 9 9 & & & 8 8 8 8 8 X 3.3.3.z z ( ( ( z l d l c ( ( ) l f d ",
"6 l z l f f d d e K I 0 3.3.3.3.3.3.3.3.3.X 8 9 8 & 9 & % % 8 8 8 9 9 9 8 & % 8 8 8 8 8 8 8 8 X 3.z ) ' ' ' ] ` _ N d ) _ ) N g f d ",
"3.g d d z z ( _ ) z l f 3.3.3.3.3.3.3.3.% 8 8 9 8 8 & 8 8 % % & 8 8 9 8 8 & % 8 8 8 0 9 & 8 8 & % 3.( _ ' [ :.[ ' ' ( l z N z f d 3.",
"3.d g l z ( ' ] ] _ ) N 3.3.3.3.3.3.3.X % 8 8 8 8 8 8 8 8 8 % % & 8 8 8 & % & 8 9 9 0 9 8 * 8 * & X 3.z ( _ ' ' ' ' ) z N N l d 3.3.",
"3.3.d f f l N ) ) N N M 3.3.3.3.3.3.3.% 8 8 8 8 8 9 8 8 8 8 & % % & & & % % & 9 9 9 9 8 8 8 8 8 8 X 3.3.3.z N ) ) ( z z z l d 3.3.3.",
"3.3.3.3.3.3.3.- e E I y 3.3.3.3.3.3.% 8 9 0 9 9 0 0 9 8 8 8 8 & % % & % % 8 8 9 9 9 9 8 8 8 8 8 * X 3.3.3.3.3.3.e f N ( l f 3.3.3.3.",
"3.3.3.3.3.3.3.w W 0.5.K 3.3.3.3.3.3.& 8 0 V V 0 V 9 0 0 9 9 8 8 % % % % & 8 8 9 8 8 8 9 8 8 8 8 8 % X 3.3.3.z M N ) ( ) l 3.3.3.3.3.",
"3.3.3.3.3.3.3.u K I K G 3.3.3.3.3.3.& 0 0 0 V 0 V 0 0 0 9 9 9 & X X X X & & 8 8 8 9 9 9 8 8 8 8 8 % o 3.c _ ' ] [ ' N ( d 3.3.3.3.3.",
"3.3.3.3.3.3.3.3.3.3.3.3.3.3.3.3.3.X % 9 8 8 9 9 0 0 0 0 0 9 9 & %   3.  % & 8 8 9 9 9 8 & & % 8 % % X M _ ' ] ] _ z g d 3.3.3.3.3.3.",
"3.3.3.3.3.3.3.3.3.3.3.3.3.3.3.3.3.% % 8 8 9 9 0 0 0 0 0 0 9 8 %   3.3.3.  % & 8 9 8 8 % & 8 e c <   o & ( N M z l l g 3.3.3.3.3.3.3.",
"3.3.3.3.3.3.3.3.3.3.3.3.3.3.3.3.3.% 8 8 9 9 0 V 0 0 0 0 0 9 & X 3.3.3.3.3.O % & % e ) e & % f ( ) f , 8 3.3.3.3.3.3.3.3.3.3.3.3.3.3.",
"3.3.3.3.3.3.3.3.3.3.3.3.3.3.3.3.3.& 8 9 9 9 0 0 0 0 0 0 0 8   3.3.3.3.3.3.3.  % & _ ] ' c % e z c ) t 0 3.3.3.3.3.3.3.3.3.3.3.3.3.3.",
"3.3.3.3.3.3.3.3.3.3.3.3.3.3.3.3.% @ & & 8 9 9 9 9 0 0 0 9 & X 3.3.3.3.3.3.3.3.X z ' ' ' ' c N N z ( e 8 & 3.3.3.3.3.3.3.3.3.3.3.3.3.",
"3.3.3.3.3.3.3.3.3.3.3.3.3.3.3.3.X O X * - 8 8 9 9 9 9 8 & % 3.3.3.3.3.3.3.3.3.O ) ' ] ' ' ] ) z g z g 3.0 3.3.3.3.3.3.3.3.3.3.3.3.3.",
"3.3.3.3.3.3.3.3.3.3.3.3.3.3.3.3.9 % * g y 8 q 0 9 9 8 8 % 3.3.3.3.3.3.3.3.3.3.& N ) ( ' ` ' N f d l < 3.3.3.3.3.3.3.3.3.3.3.3.3.3.3.",
"3.3.3.3.3.3.3.3.3.3.3.3.3.3.3.0 * 2 g ) f & 8 9 l j 9 8 3.3.3.3.3.3.3.3.3.3.o + z l l _ ' ' N g f 2 o 3.3.3.3.3.3.3.3.3.3.3.3.3.3.3.",
"3.3.3.3.3.3.3.3.3.3.3.3.3.3.3.C 9 g z _ n % 8 n ) ) & O 3.3.3.3.3.3.3.3.3.3.o   < l N ) ( ) z d d   o 3.3.3.3.3.3.3.3.3.3.3.3.3.3.3.",
"3.3.3.3.3.3.3.3.3.3.3.3.3.3.3.0 3.z N ) 4 8 z ' ' ' 2 < 3.3.3.3.3.3.3.3.3.3.o o # f z f d z l d #     o 3.3.3.3.3.3.3.3.3.3.3.3.3.3.",
"3.3.3.3.3.3.3.3.3.3.3.3.3.3.3.3.3.g ) ) 8 e ' ( z ) z , 3.3.3.3.3.3.3.3.3.3.3.o O , 6 f d d # o         3.3.3.3.3.3.3.3.3.3.3.3.3.3.",
"3.3.3.3.3.3.3.3.3.3.3.3.3.3.3.3.3.d M N f ) ) f l ) N .   3.3.3.3.3.3.3.3.3.3..   o O # #           . . 3.3.3.3.3.3.3.3.3.3.3.3.3.3.",
"3.3.3.3.3.3.3.3.3.3.3.3.3.3.3.3.o # 2 2 d d l f f ) z   o 3.3.3.3.3.3.3.3.3.3.3.o   + . X + $ + o @   3.3.3.3.3.3.3.3.3.3.3.3.3.3.3.",
"3.3.3.3.3.3.3.3.3.3.3.3.3.3.3.. . o 2 e d d f 2 2 l l . o 3.3.3.3.3.3.3.3.3.3.3.3.. $ $ $ X + + o 3.3.3.3.3.3.3.3.3.3.3.3.3.3.3.3.3.",
"3.3.3.3.3.3.3.3.3.3.3.3.3.3.3.3.. o - d d d f f d e d     3.3.3.3.3.3.3.3.3.3.3.3.. . $ $ .   . o 3.3.3.3.3.3.3.3.3.3.3.3.3.3.3.3.3.",
"3.3.3.3.3.3.3.3.3.3.3.3.3.3.3.3.3.  O < 2 2 e 2 2 f < o 3.3.3.3.3.3.3.3.3.3.3.3.3.3.. 1 1 . . . .   3.3.3.3.3.3.3.3.3.3.3.3.3.3.3.3.",
"3.3.3.3.3.3.3.3.3.3.3.3.3.3.3.3.3.3.  + + X     X ; + + 3.3.3.3.3.3.3.3.3.3.3.3.3.3.% 1 $ + . . o . 3.3.3.3.3.3.3.3.3.3.3.3.3.3.3.3.",
"3.3.3.3.3.3.3.3.3.3.3.3.3.3.3.3.3.3.  + 1 ;   + ; ;   3.3.3.3.3.3.3.3.3.3.3.3.3.3.. ; 5 $ + + . .     3.3.3.3.3.3.3.3.3.3.3.3.3.3.3.",
"3.3.3.3.3.3.3.3.3.3.3.3.3.3.3.3.3.3.3.X ; ; X X ; ; + 3.3.3.3.3.3.3.3.3.3.3.3.3.3.O 1 u 5 1 $ . .   o 3.3.3.3.3.3.3.3.3.3.3.3.3.3.3.",
"3.3.3.3.3.3.3.3.3.3.3.3.3.3.3.3.3.3.3.  + ; X + w + + 3.3.3.3.3.3.3.3.3.3.3.3.3.3.3.% q r r 5 # . . 3.3.3.3.3.3.3.3.3.3.3.3.3.3.3.3.",
"3.3.3.3.3.3.3.3.3.3.3.3.3.3.3.3.3.3.3.  + 1 + 1 w * 3.3.3.3.3.3.3.3.3.3.3.3.3.3.3.3.3.. + ; $ .   3.3.3.3.3.3.3.3.3.3.3.3.3.3.3.3.3.",
"3.3.3.3.3.3.3.3.3.3.3.3.3.3.3.3.3.3.3.3.+ 1 ; 1 ; X 3.3.3.3.3.3.3.3.3.3.3.3.3.3.3.3.3.3.3.3.3.3.3.3.3.3.3.3.3.3.3.3.3.3.3.3.3.3.3.3.",
"3.3.3.3.3.3.3.3.3.3.3.3.3.3.3.3.3.3.3.+ X X + + + + 3.3.3.3.3.3.3.3.3.3.3.3.3.3.3.3.3.3.3.3.3.3.3.3.3.3.3.3.3.3.3.3.3.3.3.3.3.3.3.3.",
"3.3.3.3.3.3.3.3.3.3.3.3.3.3.3.3.3.3.X X + ; ; 1 ; X   3.3.3.3.3.3.3.3.3.3.3.3.3.3.3.3.3.3.3.3.3.3.3.3.3.3.3.3.3.3.3.3.3.3.3.3.3.3.3.",
"3.3.3.3.3.3.3.3.3.3.3.3.3.3.3.3.3.+ + + ; u w ; ; X   3.3.3.3.3.3.3.3.3.3.3.3.3.3.3.3.3.3.3.3.3.3.3.3.3.3.3.3.3.3.3.3.3.3.3.3.3.3.3.",
"3.3.3.3.3.3.3.3.3.3.3.3.3.3.3.3.3.X X * ; 1 ; * + X   3.3.3.3.3.3.3.3.3.3.3.3.3.3.3.3.3.3.3.3.3.3.3.3.3.3.3.3.3.3.3.3.3.3.3.3.3.3.3."
};
