/* XPM */
static char *_9e1b0c3184e4a75cb6152c52ed0fe09P28pdDaASVMcGNrs[] = {
/* columns rows colors chars-per-pixel */
"64 64 32 1 ",
"  c black",
". c #080804",
"X c #0C0C08",
"o c #18140C",
"O c #141010",
"+ c #1C1414",
"@ c #181818",
"# c #201008",
"$ c #201C18",
"% c #28201C",
"& c #282818",
"* c #30301C",
"= c #242020",
"- c #2C282C",
"; c #3C302C",
": c #383434",
"> c #483C34",
", c #403C3C",
"< c #444028",
"1 c #4C4C2C",
"2 c #4C4038",
"3 c #545434",
"4 c #4C4848",
"5 c #544440",
"6 c #5C4C44",
"7 c #64544C",
"8 c #6C5C50",
"9 c #60585C",
"0 c #786458",
"q c #6C6064",
"w c #806C60",
"e c #807478",
/* pixels */
"95959$$+@$@$                                     oOO808o. .  ,,,",
"q5999@o@+$$+ X+=+$$&%%-%--*-%-=%%%%-%%-,,;-;,$=XXO++,99XXX   ,,,",
"q9555        $=%%;,,;-,,,,;;,>,,,>,;--;>>,4925     X499      ,,,",
"q5555       O-,,;>;,;;>,,4,,,,4,,5>>>;,5245499   + X499      ,;,",
"q<559 @$+@+$-;,,;,>>;;;>99999999qq9999qqqqqqe9-X   =499O+oo  ,;>",
"q<551 ++@$oo,;,,,;>;,>>>,4>,>;4>44442;49999999, X  O499    + ;;>",
"q252<OXX@@$o%------;;;;-;-;;>;;>;>;>;;;>225225-% $%.499   o+ 2>>",
"q9555@++O;=%$------&-%-%-----%;;;;>>;;>>>2>2;;-%$-$o499   o+ ;>;",
"q2999@oo+>22 o$%*------%----&&*;;;;;;;;;;;;;-;-o   X,99.X o+ 4>4",
"q<244@$+ %%%   %*&$&#$*%#%.$%$#    =%%=......%;%*oOo496Xo XO 4;2",
"q4424@@@X%;-   %@  Xoo$$.= o@++   X@+@% +o   $- o Xo,99oO X+ <>2",
"q4555O+OX%>;   %$      X XX X   X X$@++ +o   %= o.oo,65O+ o+ ><2",
"q5242%+OX=;4   %% = =---;->,>,, XXXO@=- O@   $= o  o,99O+ o+ 444",
"q5244%$oo->2   +@$--4999q9q9qq4866+$%59>+@$  $= o  o,95$  O+ 4>4",
"85;<4%++X%%=   $= +$+-----;;;;;2245;>29-o    $;@*$oX459$  O@ <<1",
"q4<22 o+ O-=   +OO   O####%%*;;-;;5>454-.  o +@ o Oo,66$  +@ <2<",
"q>;55@+O  +=@o       O    # O##;-;44555-   +    O  o,66ooo+@ <>2",
"9><2<@+  X=;       $%;---%;;>5555>;95554  5-    +X  499   +@ <22",
"q4;2<+O    ;++++$;;--,;>>;;;45445;;555555999956994  >99$  +@ 449",
"q4;22O-%$O%%,,&---;>>4>45>;;>4555;>552455695952999 X;94,-;4:X444",
"q4>44=%O+-;;;>-;-,,-22>55;-;;2552;<<55555555544555-=;95:--2; 442",
"q4>44X-,>,;;;;;;;>4>>5<25;;;>>2<<;;<54<5<55522,445>;>59=%%=% 499",
"q;>>>=,,;24444449966999999999999799999q922444,>522>;>59-::--+5<2",
"9<;22  *;;-----%-&*&-----------&*-------;*$$54-;>>;;255  $.o 5>5",
"q>;<<  XX*--&;$$%--&--;&&------&&%%%--=;-+%%58#%--+&;59  o   5>5",
"q>;<>+@ X+&+& %--O$%-%;&=&%<<*%*%&&$$$$;*--;5q;-  X+,95@-%@$ 5>5",
"9<;<;     o o ;25<    <=o%-% % o%%-% %OOO--;5q<-X X+<51  o   5<5",
"9;->;+  @ %O%@-<11 O@@;* oOoo;$ O 45-X XO--;5q;;  Xo<55  o   52<",
"q<-,>@  @ *@O+;<13 +@$<1;=@  *$   <5< OXO;-;;9<;X X%<59  o   5<<",
"9;-;;+  @ ++++-551*O@+<12+%  ;+OO 255XX X--;>9;;  X&;55  o   525",
"q<;;;@  @     ,499-   >92@+  -=XX 255 X O-;>>9;; Oo ;55  o   525",
"9<;;>@  @     -255O   <1<$@  *$   ;59    ;;;;9;;X   ;55  o   5;5",
"q<*<,$  @     ;<55-+% <3<$%+@;+%%%>55@@o -;;;0<;O o <55  o   424",
"9>>>>$  @     <551*o= <1<&-O+-%+$$252o+X+;;;>q<;%   <15  o   555",
"94>,;@  @o  +O;253o O ;92&%++%%+oO;92o+X% ;;20; ;-  -55  o   <55",
"842,>$  +   ++;211*$-$-12--$$-:**->,-;O@@+;;2q;     ;54  &   555",
"9424>o  @   ++;255$*;267qeqqqeeeeeew86 @$o;29q<     -95      555",
"82;42$  @   %O;255<*;>2555515551553999O$oo;;9q-     -49      5<<",
"92>;<$  @   $O;>51*&--;;-----;*;<*;;;;#**#;;29-OoOOO;59. .   <1<",
"9>;;2+  $  O++;<19  --------***--%;%-##%*#;25q%OO++o-24XX    25<",
"q<>;>+  $  O+O;215 X$o -+  +$=X oX   ===$#;;2q$    +-54      <<<",
"9>,;2o  o  O%O,459  $o -o  ++X+       +o --59,X    @-2>      552",
"q4,;2$  $ 99q9qqqqqqwX =.  %OX%+OOoO& -;--249, X  O+;226oo   225",
"q44;4o$=%%599;249552q. =@+$*$X%=@@$@;-;;,,-4>%XXX =%;945+ +  444",
"q44>9$%=-=451;5>;-><q$.%O=-%@..@   .*%;,;;;2;-%XX -;;94% o+X 444",
"9<>;4%@+%@25<>5<;-<5e%O*@+XX X  OX-O +--oo$->;**&oo%<59X o+X 444",
"8<>;2+  -o551<15;<<5q+ $++ ===+=o59XXO**O+%o:%    X+-44X o++ 222",
"q52><O  -o5<<<<1<;<9q$X%O+O,--O488eqO%X+ . $;%OooOo+,44o XOo 22<",
"q52>2X  -o11<;55;;<4q$+$$;*-;%-93656O:+=$O$&;%   XoO,24O X++ 22<",
"q55;9O  ;O1<5;2<;;55q;-%%;,,,4951155%*@=%@O=;% ..ooO-22+ o+O >><",
"q44;>- o;*522225;;25q$X%@$,,7999999;O;@O@O $;%    o$,44+ o++ 224",
"q2425+ .-%525524>242q% %+=,,,------,-% +O$ @;$    o+-92  O++ 444",
"q2>24o +-%9999992245q. =+OX XXOX  X X=.O +o@-%@$$oX$,44  O@+ 2;<",
"q5529  o@O5592922;449  @XXo        Xo.   @+@=@    o+-44  +@+ 2<2",
"q4429  O@O255444;;,,,  @XX&OOOOOOo=%=%o. XX+=.    o$,44oo+@O 2>2",
"q4442 .+oo44994900qqqqqqqqqqqqqqqqqqqqqqqqqqqqqqq9-,,94  +@+ >>4",
"q4445  O+o199>,,49499444999>8qq8q866->55524949944;4=,44  +@@ 44,",
"q5959  o+o552;,-92211249942%;;,--,,-,24;,,;;,,,,,,:$,44  o@+ 2>4",
"q5555   + 5<<<<-221<<22999,,,,,;;;;;594224444>44q,-%,44  .   >>,",
"q59<<O+O+o992<<%52<<<54449--89988989-;42>24>2>44q,@$,44      ;,;",
"q9<<9 @O$$$@O$+O2<<<<59494,--%-%%%%$-;52244>244;q-,$,44@@@@@ ;;,",
"q5599 @@@@$$O@@+4<2254452,,-;,%-----;%522>422442q-;o-44      ;;,",
"q9999     $@o   244449454,;-57879878XX9424>444;>q-  ;,4      4,,",
"q5959     $X$@@+949224424,*,-%$+$X%O=-4444224444qX2&,>4$@@$$ 4,,"
};
