/* XPM */
static char *_84f48bbc6034c42fde053c4cbf6b2c2mkJPYTAt0hVJj52x[] = {
/* columns rows colors chars-per-pixel */
"105 105 64 1 ",
"  c black",
". c #040400",
"X c #040404",
"o c #0C0404",
"O c #180C04",
"+ c #0C0C18",
"@ c #100C10",
"# c #181818",
"$ c #201008",
"% c #28140C",
"& c #301C10",
"* c #3C2014",
"= c #242020",
"- c #2C282C",
"; c #383434",
": c #442418",
"> c #4C2C18",
", c #54301C",
"< c #403C3C",
"1 c #603420",
"2 c #683C24",
"3 c #704028",
"4 c #78442C",
"5 c #4C4848",
"6 c #585050",
"7 c #60585C",
"8 c #6C6064",
"9 c #746C70",
"0 c #844C30",
"q c #8C5438",
"w c #905C3C",
"e c #986444",
"r c #A06C48",
"t c #A87450",
"y c #AC7C58",
"u c #807478",
"i c #B08460",
"p c #B89068",
"a c #BC9870",
"s c #C4A078",
"d c #887C80",
"f c magenta",
"g c #94888C",
"h c #988C90",
"j c #A09498",
"k c #A89CA0",
"l c #ACA4A8",
"z c #B0ACAC",
"x c #B8B0B4",
"c c #CCAC80",
"v c #D4B08C",
"b c #D8B894",
"n c #C0B8B8",
"m c #DCC49C",
"M c #E4CCA8",
"N c #ECD8B0",
"B c #C8BCC0",
"V c #CCC4C8",
"C c #D4CCD0",
"Z c #D8D4D8",
"A c #E0D8DC",
"S c #E4E0E4",
"D c #ECE8EC",
"F c #F4F0F4",
/* pixels */
"fffffffffffffffffffffffffffffffffffffffffffffffffffffffffffffffffffffffffffffffffffffffffffffffffffffffff",
"fffffffffffffffffffffffffffffffffffffffffffffffffffffffffffffffffffffffffffffffffffffffffffffffffffffffff",
"fffffffffffffffffffffffffffffffffffffffffffffffffffffffffffffffffffffffffffffffffffffffffffffffffffffffff",
"fffffffffffffffffffffffffffffffffffffffffffffffffffffffffffffffffffffffffffffffffffffffffffffffffffffffff",
"fffffffffffffffffffffffffffffffffffffffffffffffffffffffffffffffffffffffffffffffffffffffffffffffffffffffff",
"fffffffffffffffffffffffffffffffffffffffffffffffffffffffffffffffffffffffffffffffffffffffffffffffffffffffff",
"fffffffffffffffffffffffffffffffffffffffffffffffffffffffffffffffffffffffffffffffffffffffffffffffffffffffff",
"fffffffffffffffffffffffffffffffffffffffffffffffffffffffffffffffffffffffffffffffffffffffffffffffffffffffff",
"fffffffffffffffffffffffffffffffffffffffffffffffffffffffffffffffffffffffffffffffffffffffffffffffffffffffff",
"fffffffffffffffffffffffffffffffffffffffffffffffffffffffffffffffffffffffffffffffffffffffffffffffffffffffff",
"fffffffffffffffffffffffffffffffffffffffffffffffffffffffffffffffffffffffffffffffffffffffffffffffffffffffff",
"fffffffffffffffffffffffffffffffffffffffffffffffffffffffffffffffffffffffffffffffffffffffffffffffffffffffff",
"fffffffffffffffffffffffffffffffffffffffffffffffffffffffffffffffffffffffffffffffffffffffffffffffffffffffff",
"fffffffffffffffffffffffffffffffffffffffffffffffffffffffffffffffffffffffffffffffffffffffffffffffffffffffff",
"fffffffffffffffffffffffffffffffffffffffffffffffffffffffffffffffffffffffffffffffffffffffffffffffffffffffff",
"fffffffffffffffffffffffffffffffffffffffffffffffffffffffffffffffffffffffffffffffffffffffffffffffffffffffff",
"fffffffffffffffffffffffffffffffffffffffffffffffffffffffffffffffffffffffffffffffffffffffffffffffffffffffff",
"fffffffffffffffffffffffffffffffffffffffffffffffffffffffffffffffffffffffffffffffffffffffffffffffffffffffff",
"fffffffffffffffffffffffffffffffffffffffffffffffffffffffffffffffffffffffffffffffffffffffffffffffffffffffff",
"fffffffffffffffffffffffffffffffffffffffffffffffffffffffffffffffffffffffffffffffffffffffffffffffffffffffff",
"fffffffffffffffffffffffffffffffffffffffffffffffffffffffffffffffffffffffffffffffffffffffffffffffffffffffff",
"fffffffffffffffffffffffffffffffffffffffffffffffffffffffffffffffffffffffffffffffffffffffffffffffffffffffff",
"fffffffffffffffffffffffffffffffffffffffffffffffffffffffffffffffffffffffffffffffffffffffffffffffffffffffff",
"fffffffffffffffffffffffffffffffffffffffffffffffffffffffffffffffffffffffffffffffffffffffffffffffffffffffff",
"fffffffffffffffffffffffffffffffffffffffffffffffffffffffffffffffffffffffffffffffffffffffffffffffffffffffff",
"ffffffffffffffffffffffffff###=##@#@@@@Xffffffffffffffffffffffffffffffffffffffffffffffffffffffffffffffffff",
"fffffffffffffffffffffff5;-=-=#=###@#@@@@Xffffffffffffffffffffffffffffffffffffffffffffffffffffffffffffffff",
"fffffffffffffffffffff87<<--=====#=#@@@@@@@Xffffffffffffffffffffffffffffffffffffffffffffffffffffffffffffff",
"ffffffffffffffffffff9k8<<;--=-=#=###@#@@@@@@Xffffffffffffffffffffffffffffffffffffffffffffffffffffffffffff",
"ffffffffffffffffffffzxu5;<;--=-===#=#@#@#@@@@Xfffffffffffffffffffffffffffffffffffffffffffffffffffffffffff",
"fffffffffffffffffffhZZk65;-;--=--==##=##@#@@@@@Xfffffffffffffffffffffffffffffffffffffffffffffffffffffffff",
"fffffffffffffffffffkxZxd6<;;;-;-=--=-=#=#@#@#@@@@ffffffffffffffffffffffffffffffffffffffffffffffffffffffff",
"fffffffffffffffffffudlZx85<;<;-;-;<5555;=#@#@@@@@@Xffffffffffffffffffffffffffffffffffffffffffffffffffffff",
"fffffffffffffffffff67ujZx85<;<;<55-@@@-55=###@#@@@@@Xffffffffffffffffffffffffffffffffffffffffffffffffffff",
"fffffffffffffffffff5569gZz85<<56-@@##==;<7=#@#@#@@@@@Xfffffffffffffffffffffffffffffffffffffffffffffffffff",
"fffffffffffffffffff5<568jZzu778#@#-<;;-=;;u;=###@#@#@@@Xfffffffffffffffffffffffffffffffffffffffffffffffff",
"fffffffffffffffffff<<<<69kZlzg-#-755<;;-=;<d5=#@#@#@@@@@@ffffffffffffffffffffffffffffffffffffffffffffffff",
"ffffffffffffffffff=5<;556ukFn<=;dk965<<;;--==#=###@##@@@@@Xffffffffffffffffffffffffffffffffffffffffffffff",
"fffffffffffffffff;uu;=;<57dCu==9uug8<<;---=-===#=###@#@@@@@@Xffffffffffffffffffffffffffffffffffffffffffff",
"fffffffffffffffff<577#-5569h5=<8997<<;;-;--=--==#==##@#@#@@@@@fffffffffffffffffffffffffffffffffffffffffff",
"fffffffffffffffff<<57;#-<58d-=678h76<;<;----=-=-==#=##@#@@#@@@@Xfffffffffffffffffffffffffffffffffffffffff",
"fffffffffffffffff;5<56##-<7u--<6nj965<;;;-;--=-=-=-=============#Xfffffffffffffffffffffffffffffffffffffff",
"fffffffffffffffff=<<<<#@-569-;;8nVh865<<;<-;<55555<5<;--==##@@@@XXXffffffffffffffffffffffffffffffffffffff",
"fffffffffffffffff#<<5;##<5<8;-;u9jBg765<<565<;=###@@@@@@@@@@#@@@@@@@Xffffffffffffffffffffffffffffffffffff",
"ffffffffffffffffff-<<-X#5<575<-g67gxd7567<=###------=-===#=#=###@#@@@Xfffffffffffffffffffffffffffffffffff",
"fffffffffffffffff-#;<=X#<<<58569577dlg99<=-;;<;;;-;--=-=====##=##@#@@@Xffffffffffffffffffffffffffffffffff",
"fffffffffffffffff;5=;@X#<<5<5u97<667dld;=<5<5<<;<;------=-====#=#=##@@@Xfffffffffffffffffffffffffffffffff",
"fffffffffffffffff-;5=--<;<<<55d5-5568h6-<665<5<<;;<-;----=-==#=######@@@Xffffffffffffffffffffffffffffffff",
"fffffffffffffffff=;;6=#;<;<5<<55;6;669-;87765<5<;<;;-;-;--==-===#=####@@Xffffffffffffffffffffffffffffffff",
"ffffffffffffffffff=;;##-;;;<55<5-5;767=6988875<5<<<;<;;-;---=-=-=#=#=##@@ffffffffffffffffffffffffffffffff",
"ffffffffffffffffff#--@#;;;<;<<55;5;7;6=9u999u865<5<<;;;;-;-;---=-=#=##@#@Xfffffffffffffffffffffffffffffff",
"fffffffffffffffffff=#@;-;-;;;<<6-6<7-5#9ud9udu87655<5<;<;;;-;----==#####@@fffffffffffffffffffffffffffffff",
"fffffffffffffffffff##--;-;-;<<<6;5;6-<=9dgd8ugdu8755<5<;<;<;;-;-==#==##@#Xfffffffffffffffffffffffffffffff",
"ffffffffffffffffffff#=--;-;;<;56;6;5;5#8gkhd9dhkju865<5<5555555<<-==#=##@Xfffffffffffffffffffffffffffffff",
"fffffffffffffffffffff#=---;-;<;6;6-6;<#7gzxkgdglBnjd98765<<;;----;;==#=#@@fffffffffffffffffffffffffffffff",
"ffffffffffffffffffffff#=-;-;;;<7;6;6-<#6gzVZldhjzku5-=============-;==##@@fffffffffffffffffffffffffffffff",
"ffffffffffffffffffffff;#=--;-;;7;7-8;<@5ulVDSljjd6-=====-=--;;;;;-==;==#@@fffffffffffffffffffffffffffffff",
"fffffffffffffffffffff<5;#=;-;-<6=6-6-;#<7dxADBld;;=-;<<<<<<;;----<-==-##@@fffffffffffffffffffffffffffffff",
"ffffffffffffffffffff5678=#=--;;<-7;6=<@<68dxBxh8-=-<-=========#==-;#=-=#@Xfffffffffffffffffffffffffffffff",
"ffffffffffffffffffffd8d;+=#=--;;;6-7=;@5578uhgd;=-5=======#=#=====;=#-##@@fffffffffffffffffffffffffffffff",
"ffffffffffffffffffff-j;@##6#=;--;<-7=<@<<5789ug-=;-===#=======#===;==-=#@Xfffffffffffffffffffffffffffffff",
"ffffffffffffffffffff--@#=8<-#=-;;;;6=;@<555689d#=<#=====#=======#=;#=-=#@Xfffffffffffffffffffffffffffffff",
"ffffffffffffffffffff;-@=8567-#=--;-5-<@;5<5568d=#<===#====#===#==#-=#-##@Xfffffffffffffffffffffffffffffff",
"ffffffffffffffffffff-;@#u8d;XX#=;-;<-;@;<5<5568#=<#====#===#=#=#=#;##-=#@Xfffffffffffffffffffffffffffffff",
"ffffffffffffffffffff--@-5j5XX@X#=--;;;@-<<5<556#=<=#==#=#=#====###-=#-##@Xfffffffffffffffffffffffffffffff",
"ffffffffffffffffffff-;#<;;-X##@X#=---;@;<;<<<56=#<#=#===##=#=##=##-##-=#@Xfffffffffffffffffffffffffffffff",
"ffffffffffffffffffff--#-;-@#-==@X#=-;-@-;<;<5<5#=;=#==##=##=#####=-=#-##@Xfffffffffffffffffffffffffffffff",
"ffffffffffffffffffff-;@=;-#-6;-#@X#=-;@-<;<;<55=#;#==##=#####=####=##-=#@Xfffffffffffffffffffffffffffffff",
"ffffffffffffffffffff@;##-;@;58;=@@X#=-@=;;;<5<5##;=##=###=###=#==#-#@-##@Xfffffffffffffffffffffffffffffff",
"fffffffffffffffffffff#-@;-#=-<;-@##X#=@-;-;;<<5#=;##=##=###=####=#-##-=#@Xfffffffffffffffffffffffffffffff",
"fffffffffffffffffffffff@-;#@=--=####X#@--;;<;<<##-###=####=####=##=@#-=#@Xfffffffffffffffffffffffffffffff",
"ffffffffffffffffffffffff--##X@=@@#@#=X=;---;<;5@#-=#####=####=####=#@-##@ffffffffffffffffffffffffffffffff",
"ffffffffffffffffffffffff=-=##XX####=##@@;--<;;5##-########=#####@#-#@-=#@ffffffffffffffffffffffffffffffff",
"fffffffffffffffffffffffff=;###@#@#@##=##@5-;-;5#@=#=#=#######=#@##=@#-##@ffffffffffffffffffffffffffffffff",
"ffffffffffffffffffffffffff#<==#@#@##@#==#@<;-;<##=######@##@####@#=@@-=#fffffffffffffffffffffffffffffffff",
"ffffffffffffffffffffffffffffrir0@@@@#@##=#@-;;<@#=@#@#####@###@##@=@@#-@fffffffffffffffffffffffffffffffff",
"fffffffffffffffffffffffffftscayt010rtiitw0,*=-;#@=###@#@#@#@@#@@@@#$::$ffffffffffffffffffffffffffffffffff",
"fffffffffffffffffffffffffeabcsiyrypvMMMmmvspe2&@@=@#@#@#@@@@@@@@$>240wq03ffffffffffffffffffffffffffffffff",
"ffffffffffffffffffffffffepbbcapacbmbbbvvbbbmMvpq>##@#@#@@@@@@O:,30wrtipiyr3ffffffffffffffffffffffffffffff",
"fffffffffffffffffffffffftsbvscbmmbbvsaassscvbMMcpw,%@@@@@o&:130wrtipascvvcsefffffffffffffffffffffffffffff",
"ffffffffffffffffffffffffrpvbmmMMmmbsiyyipasscvbMbsirw0322340wertipscvbbmMmbcqffffffffffffffffffffffffffff",
"ffffffffffffffffffffffffpbMNMMMMmmvaitrrtypassccvvcpyrewqwertyiasvbmMmMMMMMbsffffffffffffffffffffffffffff",
"ffffffffffffffffffffffbMMNNMNMMMMmcayewqwetypaaascvcaitrrrtyipsvmmMMmMmMmMNmbffffffffffffffffffffffffffff",
"fffffffffffffffffffffmMMNMNNNMMmMmsatq4230qetipaassccspiiipasscbbMmMMMMNMNMMmifffffffffffffffffffffffffff",
"fffffffffffffffffffamMMNMNMNMMmMmmsprq2,,120etypaasssccsaassccccbmMMmMNMNMNNMsfffffffffffffffffffffffffff",
"ffffffffffffffffffsmMMMMNMNMmMMmmbcpe02,,>,,2wtyppasssccsssccccvbbmmMMMNMNNMNcfffffffffffffffffffffffffff",
"fffffffffffffffffcmMmMNMMmMmMmmmbbcieq2,,>>>>2qrtippasssccsssccvvbmMmMNNNNNNMvyffffffffffffffffffffffffff",
"fffffffffffffffffbmmMmMMmbbmmbbbbbsirw41,>>>>>10eryippassscsccvvvbmMMMMNNNNNNmsffffffffffffffffffffffffff",
"ffffffffffffffffsmmMmMmmbvbmmmmmbvspte03,>>>>>,20wtyippassscccvbbbmmMMNNNMNNMMvffffffffffffffffffffffffff",
"ffffffffffffffffsbbmmmbvcssvbbbbbbcayrw42,>>>>>,,4wtyyppassccvbbmmmMmMMNMNNNNMmpfffffffffffffffffffffffff",
"ffffffffffffffffpbmbbvcsapascvmbbvcsiteq42,>>>>>,,2qrtyipasscvvbmmmmMMNMNMNNMNMsfffffffffffffffffffffffff",
"fffffffffffffffftbbmcspiytreepvbvmvcayteq42,>>>:>>,20eryyppassccbmmmMMMNMNMNNMMvfffffffffffffffffffffffff",
"ffffffffffffffffrsbbspytrewq0rsmbvbcsiyrwq42,,>>:>>,14wrtyppassccbmbmMMMMMNMMNMmaffffffffffffffffffffffff",
"ffffffffffffffffrsbbptrew042,4imbbbvcpytew031,>:>:>>,,2qetypsassccbbmmMmMmMNMMMMcffffffffffffffffffffffff",
"fffffffffffffffframvprq2322,>*evmbvbvaitteq42,>>:::>>,,20etypsssssvbbmmMmMMMMmMMbyfffffffffffffffffffffff",
"ffffffffffffffffrsMvir01:*&***4ammbbvspytrw02,,>>:::>>,13qetypssascvbbbmMMMmMMMmmpfffffffffffffffffffffff",
"ffffffffffffffffrcmcie4,*&%%  *tbbbvbcaiyteq4,,,:>:::>>,14qetypasasscvvvbmmMmMmMmcfffffffffffffffffffffff",
"ffffffffffffffffpbMsyw3>*&O    qsbbbbvspytew42,>>:::::>>,13qetyppapaaassccvmMmMmmvpffffffffffffffffffffff",
"ffffffffffffffffsMvatq2:**O.   >pbvbvbcaptrw02,,>::>:>:>,,24qetyppppaaaaaaacmmmmmmcffffffffffffffffffffff",
"ffffffffffffffffsmspr01>**%$    ebbvbvcspyrw03,,,:::::>>,,130wetippapaapappacmmmmmbifffffffffffffffffffff",
"ffffffffffffffffvspyw4,>:**Oo   qavbvvcsapte03,,>::::>:>,,124qwrypasssasaaaascbmmmmsfffffffffffffffffffff",
"fffffffffffffffffite02,,>,>:2,4e4tvvvcvcaate02,>::>:::>>,12240qeryacccccccsssscbmbmvpffffffffffffffffffff",
"ffffffffffffffffffw04f0pvt32tptr4eccvvccaptw42,>::::>>>,,22440qwetyacvbvvvspasscbmbbcpfffffffffffffffffff",
"fffffffffffffffffffffffrbctq4ppptqpvvcvcsatw41>::::>>>,,11234qqwerttpsccccssssccvbbmbcpffffffffffffffffff",
"ffffffffffffffffffffffffsmbprtscsqtccvccsprw2,,,,>::>,,,12120qwwerttypsvvcccvbvcvvbbbbsafffffffffffffffff"
};
