/* XPM */
static char *result[] = {
/* columns rows colors chars-per-pixel */
"105 105 67 1 ",
"  c black",
". c #040400",
"X c #040404",
"o c #0C0404",
"O c #180C04",
"+ c #100C10",
"@ c #1C1414",
"# c #181818",
"$ c #201008",
"% c #28140C",
"& c #201C18",
"* c #301C10",
"= c #28201C",
"- c #3C2014",
"; c #242020",
": c #2C282C",
"> c #342C28",
", c #383434",
"< c #442418",
"1 c #4C2C18",
"2 c #54301C",
"3 c #403C3C",
"4 c #603420",
"5 c #683C24",
"6 c #704028",
"7 c #78442C",
"8 c #4C4848",
"9 c #585050",
"0 c #60585C",
"q c #6C6064",
"w c #746C70",
"e c #844C30",
"r c #8C5438",
"t c #905C3C",
"y c #986444",
"u c #A06C48",
"i c #A87450",
"p c #AC7C58",
"a c #807478",
"s c #B08460",
"d c #B89068",
"f c #BC9870",
"g c #C4A078",
"h c #887C80",
"j c magenta",
"k c #94888C",
"l c #988C90",
"z c #A09498",
"x c #A89CA0",
"c c #ACA4A8",
"v c #B0ACAC",
"b c #B8B0B4",
"n c #CCAC80",
"m c #D4B08C",
"M c #D8B894",
"N c #C0B8B8",
"B c #DCC49C",
"V c #E4CCA8",
"C c #ECD8B0",
"Z c #C8BCC0",
"A c #CCC4C8",
"S c #D4CCD0",
"D c #D8D4D8",
"F c #E0D8DC",
"G c #E4E0E4",
"H c #ECE8EC",
"J c #F4F0F4",
/* pixels */
"jjjjjjjjjjjjjjjjjjjjjjjjjjjjjjjjjjjjjjjjjjjjjjjjjjjjjjjjjjjjjjjjjjjjjjjjjjjjjjjjjjjjjjjjjjjjjjjjjjjjjjjjj",
"jjjjjjjjjjjjjjjjjjjjjjjjjjjjjjjjjjjjjjjjjjjjjjjjjjjjjjjjjjjjjjjjjjjjjjjjjjjjjjjjjjjjjjjjjjjjjjjjjjjjjjjjj",
"jjjjjjjjjjjjjjjjjjjjjjjjjjjjjjjjjjjjjjjjjjjjjjjjjjjjjjjjjjjjjjjjjjjjjjjjjjjjjjjjjjjjjjjjjjjjjjjjjjjjjjjjj",
"jjjjjjjjjjjjjjjjjjjjjjjjjjjjjjjjjjjjjjjjjjjjjjjjjjjjjjjjjjjjjjjjjjjjjjjjjjjjjjjjjjjjjjjjjjjjjjjjjjjjjjjjj",
"jjjjjjjjjjjjjjjjjjjjjjjjjjjjjjjjjjjjjjjjjjjjjjjjjjjjjjjjjjjjjjjjjjjjjjjjjjjjjjjjjjjjjjjjjjjjjjjjjjjjjjjjj",
"jjjjjjjjjjjjjjjjjjjjjjjjjjjjjjjjjjjjjjjjjjjjjjjjjjjjjjjjjjjjjjjjjjjjjjjjjjjjjjjjjjjjjjjjjjjjjjjjjjjjjjjjj",
"jjjjjjjjjjjjjjjjjjjjjjjjjjjjjjjjjjjjjjjjjjjjjjjjjjjjjjjjjjjjjjjjjjjjjjjjjjjjjjjjjjjjjjjjjjjjjjjjjjjjjjjjj",
"jjjjjjjjjjjjjjjjjjjjjjjjjjjjjjjjjjjjjjjjjjjjjjjjjjjjjjjjjjjjjjjjjjjjjjjjjjjjjjjjjjjjjjjjjjjjjjjjjjjjjjjjj",
"jjjjjjjjjjjjjjjjjjjjjjjjjjjjjjjjjjjjjjjjjjjjjjjjjjjjjjjjjjjjjjjjjjjjjjjjjjjjjjjjjjjjjjjjjjjjjjjjjjjjjjjjj",
"jjjjjjjjjjjjjjjjjjjjjjjjjjjjjjjjjjjjjjjjjjjjjjjjjjjjjjjjjjjjjjjjjjjjjjjjjjjjjjjjjjjjjjjjjjjjjjjjjjjjjjjjj",
"jjjjjjjjjjjjjjjjjjjjjjjjjjjjjjjjjjjjjjjjjjjjjjjjjjjjjjjjjjjjjjjjjjjjjjjjjjjjjjjjjjjjjjjjjjjjjjjjjjjjjjjjj",
"jjjjjjjjjjjjjjjjjjjjjjjjjjjjjjjjjjjjjjjjjjjjjjjjjjjjjjjjjjjjjjjjjjjjjjjjjjjjjjjjjjjjjjjjjjjjjjjjjjjjjjjjj",
"jjjjjjjjjjjjjjjjjjjjjjjjjjjjjjjjjjjjjjjjjjjjjjjjjjjjjjjjjjjjjjjjjjjjjjjjjjjjjjjjjjjjjjjjjjjjjjjjjjjjjjjjj",
"jjjjjjjjjjjjjjjjjjjjjjjjjjjjjjjjjjjjjjjjjjjjjjjjjjjjjjjjjjjjjjjjjjjjjjjjjjjjjjjjjjjjjjjjjjjjjjjjjjjjjjjjj",
"jjjjjjjjjjjjjjjjjjjjjjjjjjjjjjjjjjjjjjjjjjjjjjjjjjjjjjjjjjjjjjjjjjjjjjjjjjjjjjjjjjjjjjjjjjjjjjjjjjjjjjjjj",
"jjjjjjjjjjjjjjjjjjjjjjjjjjjjjjjjjjjjjjjjjjjjjjjjjjjjjjjjjjjjjjjjjjjjjjjjjjjjjjjjjjjjjjjjjjjjjjjjjjjjjjjjj",
"jjjjjjjjjjjjjjjjjjjjjjjjjjjjjjjjjjjjjjjjjjjjjjjjjjjjjjjjjjjjjjjjjjjjjjjjjjjjjjjjjjjjjjjjjjjjjjjjjjjjjjjjj",
"jjjjjjjjjjjjjjjjjjjjjjjjjjjjjjjjjjjjjjjjjjjjjjjjjjjjjjjjjjjjjjjjjjjjjjjjjjjjjjjjjjjjjjjjjjjjjjjjjjjjjjjjj",
"jjjjjjjjjjjjjjjjjjjjjjjjjjjjjjjjjjjjjjjjjjjjjjjjjjjjjjjjjjjjjjjjjjjjjjjjjjjjjjjjjjjjjjjjjjjjjjjjjjjjjjjjj",
"jjjjjjjjjjjjjjjjjjjjjjjjjjjjjjjjjjjjjjjjjjjjjjjjjjjjjjjjjjjjjjjjjjjjjjjjjjjjjjjjjjjjjjjjjjjjjjjjjjjjjjjjj",
"jjjjjjjjjjjjjjjjjjjjjjjjjjjjjjjjjjjjjjjjjjjjjjjjjjjjjjjjjjjjjjjjjjjjjjjjjjjjjjjjjjjjjjjjjjjjjjjjjjjjjjjjj",
"jjjjjjjjjjjjjjjjjjjjjjjjj,jjjjjjjjjjjjjjjjjjjjjjjjjjjjjjjjjjjjjjjjjjjjjjjjjjjjjjjjjjjjjjjjjjjjjjjjjjjjjjj",
"jjjjjjjjjjjjjjjjjjjjjjjj#q,jjjjjjjjjjjjjjjjjjjjjjjjjjjjjjjjjjjjjjjjjjjjjjjjjjjjjjjjjjjjjjjjjjjjjjjjjjjjjj",
"jjjjjjjjjjjjjjjjjjjjj:;#++;;+Xjjjjjjjjjjjjjjjjjjjjjjjjjjjjjjjjjjjjjjjjjjjjjjjjjjjjjjjjjjjjjjjjjjjjjjjjjjj",
"jjjjjjjjjjjjjjjjjjjjq3,;#++;+++Xjjjjjjjjjjjjjjjjjjjjjjjjjjjjjjjjjjjjjjjjjjjjjjjjjjjjjjjjjjjjjjjjjjjjjjjjj",
"jjjjjjjjjjjjjjjjjjj,9w8,;#+#+#++XXjjjjjjjjjjjjjjjjjjjjjjjjjjjjjjjjjjjjjjjjjjjjjjjjjjjjjjjjjjjjjjjjjjjjjjj",
"jjjjjjjjjjjjjjjjjj;:,8q83:#;:;##+XXXjjjjjjjjjjjjjjjjjjjjjjjjjjjjjjjjjjjjjjjjjjjjjjjjjjjjjjjjjjjjjjjjjjjjj",
"jjjjjjjjjjjjjjjjjj#;:,80,9,:#+++X+XXXXjjjjjjjjjjjjjjjjjjjjjjjjjjjjjjjjjjjjjjjjjjjjjjjjjjjjjjjjjjjjjjjjjjj",
"jjjjjjjjjjjjjjjjjj+#;:,:h9,:8;+#+X+XXXXjjjjjjjjjjjjjjjjjjjjjjjjjjjjjjjjjjjjjjjjjjjjjjjjjjjjjjjjjjjjjjjjjj",
"jjjjjjjjjjjjjjjjjj++#;:q0q3;;3X;+++X+XXXXjjjjjjjjjjjjjjjjjjjjjjjjjjjjjjjjjjjjjjjjjjjjjjjjjjjjjjjjjjjjjjjj",
"jjjjjjjjjjjjjjjjjj+++#,8388,;#3X+;++XXXXXXXjjjjjjjjjjjjjjjjjjjjjjjjjjjjjjjjjjjjjjjjjjjjjjjjjjjjjjjjjjjjjj",
"jjjjjjjjjjjjjjjjjjj+++3,,388:##3; ;X++X+XXXXjjjjjjjjjjjjjjjjjjjjjjjjjjjjjjjjjjjjjjjjjjjjjjjjjjjjjjjjjjjjj",
"jjjjjjjjjjjjjjjjjjjX++,::,383:##,:#;+X+X+XXXXXjjjjjjjjjjjjjjjjjjjjjjjjjjjjjjjjjjjjjjjjjjjjjjjjjjjjjjjjjjj",
"jjjjjjjjjjjjjjjjjjjjX+:;#::383:##3:;;+++XXXXXXXXjjjjjjjjjjjjjjjjjjjjjjjjjjjjjjjjjjjjjjjjjjjjjjjjjjjjjjjjj",
"jjjjjjjjjjjjjjjjjjjjj+;++,;:,83:##;,#+:X+X+XXXXXXjjjjjjjjjjjjjjjjjjjjjjjjjjjjjjjjjjjjjjjjjjjjjjjjjjjjjjjj",
"jjjjjjjjjjjjjjjjjjjjj:##;#+;,,83:#+#,8;+XXX+X+XXXXXjjjjjjjjjjjjjjjjjjjjjjjjjjjjjjjjjjjjjjjjjjjjjjjjjjjjjj",
"jjjjjjjjjjjjjjjjjjjjjq:+##;,::,8,:###;XX;X+X+XXXXXXXjjjjjjjjjjjjjjjjjjjjjjjjjjjjjjjjjjjjjjjjjjjjjjjjjjjjj",
"jjjjjjjjjjjjjjjjjjjjj,#:#+#++;:,83:#+#:3;X++X+XXXXXXXXjjjjjjjjjjjjjjjjjjjjjjjjjjjjjjjjjjjjjjjjjjjjjjjjjjj",
"jjjjjjjjjjjjjjjjjjjjj#;w:##+#,;:,83:##+#X :X+X+X+XXXXXXXjjjjjjjjjjjjjjjjjjjjjjjjjjjjjjjjjjjjjjjjjjjjjjjjj",
"jjjjjjjjjjjjjjjjjjjjXX;,:+##:#+#:3983;#+:9;+#+X+X+X+####+jjjjjjjjjjjjjjjjjjjjjjjjjjjjjjjjjjjjjjjjjjjjjjjj",
"jjjjjjjjjjjjjjjjjjj#XX+#;X+##++,:,3903,;##XX;X+#;:;+   XXXXjjjjjjjjjjjjjjjjjjjjjjjjjjjjjjjjjjjjjjjjjjjjjj",
"jjjjjjjjjjjjjjjjjj;++X+XXX++##:++#,39083,:;3:;::#  X+++XX+XXXjjjjjjjjjjjjjjjjjjjjjjjjjjjjjjjjjjjjjjjjjjjj",
"jjjjjjjjjjjjjjjjjj:#++#+XXXX+##+#,;,89q988333,+  +###X+++++X+Xjjjjjjjjjjjjjjjjjjjjjjjjjjjjjjjjjjjjjjjjjjj",
"jjjjjjjjjjjjjjjjj+#:#+#::#XXX+##:++#88qwq000:X #;;#+++++XXXXXXX+jjjjjjjjjjjjjjjjjjjjjjjjjjjjjjjjjjjjjjjjj",
"jjjjjjjjjjjjjjjjj++#:#:::3#XXX+##;+3:,9hhwa;X#3:;#+#+++#+X++++++;+jjjjjjjjjjjjjjjjjjjjjjjjjjjjjjjjjjjjjjj",
"jjjjjjjjjjjjjjjjjX++###:::#+XXX+##:++#0wll; ;qq8:;#+#+++#+X#+#+++#;+jjjjjjjjjjjjjjjjjjjjjjjjjjjjjjjjjjjjj",
"jjjjjjjjjjjjjjjjjXX++##;:###+XXX+##;+830a3 ;hw093:;##++++;+X++#+#++;#jjjjjjjjjjjjjjjjjjjjjjjjjjjjjjjjjjjj",
"jjjjjjjjjjjjjjjjjXXX++##:#:;++XXX+###;,9q +9whw3q3:#++#+++;+X++++#++:;+jjjjjjjjjjjjjjjjjjjjjjjjjjjjjjjjjj",
"jjjjjjjjjjjjjjjjjjXX+++##3;##++XXX+#+#:8: :80k+X:03:#++++++;#X#+#++++;:#Xjjjjjjjjjjjjjjjjjjjjjjjjjjjjjjjj",
"jjjjjjjjjjjjjjjjjjXXX++X9,;#+#++XXX+##;3 X339X XX:93:#+#+#++##X#+#+##+;:#Xjjjjjjjjjjjjjjjjjjjjjjjjjjjjjjj",
"jjjjjjjjjjjjjjjjjjjXXX+;:8:;#+#++XXX+##: #,3;   ;3;98,#+#++++#;+#+#+##+#:;+jjjjjjjjjjjjjjjjjjjjjjjjjjjjjj",
"jjjjjjjjjjjjjjjjjjjjXXX#;:3:;#+#++XXX+## ::,   +8q3:q8,;#;##+++:+##;#;###:;+jjjjjjjjjjjjjjjjjjjjjjjjjjjjj",
"jjjjjjjjjjjjjjjjjjjjjX++##:3:;###++XXX+  ;:#  +8q939lq83;##;#+#+;+####;#;#:;+Xjjjjjjjjjjjjjjjjjjjjjjjjjjj",
"jjjjjjjjjjjjjjjjjjjjjjX++##:,:;;+#++XXX  #;X  ;qq8,qhla93;;#;#;###+;#;#;#:#,:+Xjjjjjjjjjjjjjjjjjjjjjjjjjj",
"jjjjjjjjjjjjjjjjjjjjjj+X++##:3:;;#+++X+  ;#   +80:89qwkw93;:;;#;##;+;#;;;::;8:+XXjjjjjjjjjjjjjjjjjjjjjjjj",
"jjjjjjjjjjjjjjjjjjjjjjX++++##:8:#;#+++#+X#;   X;:,889qwhw93:::;;:;#:+;;::;:,;,:+XXjjjjjjjjjjjjjjjjjjjjjjj",
"jjjjjjjjjjjjjjjjjjjjjjjX+X++##:8:#;#;;++++#   X#;,3389qwaq93,:,:;:;;;+::,:,:,;,;+XXjjjjjjjjjjjjjjjjjjjjjj",
"jjjjjjjjjjjjjjjjjjjjjjjjXXX++##:3:#::;;;+##   X+:,,3389qwaq93,:,::::,##,,,:,::::;+XXjjjjjjjjjjjjjjjjjjjjj",
"jjjjjjjjjjjjjjjjjjjjjjjjjX+X++#;:3,:8,#X++#   X#::,,,380qahw98333,3,3,+;,:,::;#,:;+XXjjjjjjjjjjjjjjjjjjjj",
"jjjjjjjjjjjjjjjjjjjjjjjjjXXXX+##;,3q:XXX##+    #;:::,,380wahw083883838;#:,::::;#,:#+XXjjjjjjjjjjjjjjjjjjj",
"jjjjjjjjjjjjjjjjjjjjjjjjjjXX+++#;:8; +XX#+#    +;;;::,,38qwhkaq9998883,+;:,:;:;+:,:#+XXjjjjjjjjjjjjjjjjjj",
"jjjjjjjjjjjjjjjjjjjjjjjjjjjXX+X+;:,   ;X##+X   ###;;::,,39qakxhq0998383##,:::;:##,:;++XXjjjjjjjjjjjjjjjjj",
"jjjjjjjjjjjjjjjjjjjjjjjjjjjjXX+##,+   +#;##X  X+###;;::,330wlbzwq988833:+:;:;:;;+:,:#+XXXjjjjjjjjjjjjjjjj",
"jjjjjjjjjjjjjjjjjjjjjjjjjjjjXXX+#:  X X+###+  X##;::;;::,380hxchq9983,3,X;:;;;;###3:;#+XXXjjjjjjjjjjjjjjj",
"jjjjjjjjjjjjjjjjjjjjjjjjjjjjjX+X;+ X XX#;#+:X +##:##=::::,39wkxlw98383,3+#;;:;;;;+,,:;++XXjjjjjjjjjjjjjjj",
"jjjjjjjjjjjjjjjjjjjjjjjjjjjjjj+X#X X+X++;+#+,X#+>;3++;:::,38qhkza9333,,:#+;:;;#;#+;3:##+XXXjjjjjjjjjjjjjj",
"jjjjjjjjjjjjjjjjjjjjjjjjjjjjjjXX++ +X+X+#####:+;#3,+##;;::,30whzh083,,:,;X;#;#;#;##3:;+#+XXjjjjjjjjjjjjjj",
"jjjjjjjjjjjjjjjjjjjjjjjjjjjjjjjXXX #+#++#+#+#+#;:,,+#+;;::,39qalhq3,:,,::X#;#;###;+,,:;++XXXjjjjjjjjjjjjj",
"jjjjjjjjjjjjjjjjjjjjjjjjjjjjjjjX   +##++;#+#+#;#+:,+#:;#;::,30wkkw8,,,:,:++###;#;#+:3;##++XXjjjjjjjjjjjjj",
"jjjjjjjjjjjjjjjjjjjjjjjeyuutr72-%  #:##+#+#+#+;@#+,+:,:;;::,39qhkw8,::,:;#X##+####+;3:;+#X+XXjjjjjjjjjjjj",
"jjjjjjjjjjjjjjjjjjjusgMndspuutt6*X X;:;#+#+++#: +#+;,,,:;;::,80hka9:,::;;;X+###+#+#+8;#;++XXXXjjjjjjjjjjj",
"jjjjjjjjjjjjjjjjjtidgnngspur7452%$  +;,;++#+#+: ##,;,,,:#;;:,89azh9,:;;;;;X#+#+#+#++8:;#+X+XXXjjjjjjjjjjj",
"jjjjjjjjjjjjjjjjidgmnnfduer741<*$O   +;,##+#++;@#+;XX#;:;#:;,39azh0,::;#;#X+#+++XXXX3;#+#+X+XXjjjjjjjjjjj",
"jjjjjjjjjjjjjjjifnmnngdpur62<-*%OoX   +##+#+#+;;;:,+#;#:#;;:,38wzhq3:;:;#;XX+##;;;:;;;##+++XX+Xjjjjjjjjjj",
"jjjjjjjjjjjjjrpgmMmmnnnnnmdie4<*$%$X  X+#++++##::,,;;=;:##;;,38wzkq8,;:,33,::;;#;;####;#;#+++XXjjjjjjjjjj",
"jjjjjjjjjjj7udgnmmmmmmmmmmgnmnngfsr1%o. ++X++++;#,,;;&;;##;::,8qkzw0qwq983::;;#;##+#+##+#+#+++XXjjjjjjjjj",
"jjjjjjjjjjeifMMMnnmmmmmmmnnnnngfffsr61$o X+X+++#;#,;#;:##;#;:,8qkkwkxlhq8,,:;#;####+#++#++++X+++jjjjjjjjj",
"jjjjjjjjjepgBBMMMnmmmmmnnnnnggggddsut74-OXXXX+X+;>+#;:#+###;;,80hahcNxhq33::;;#+##+###+++X+X+X+X+jjjjjjjj",
"jjjjjjjj7pmMCCBMmmmmmmmmnmngggffdsspiyr6<$.X+X+++#::##+###;#;:88qalbAvkq8,,:;####+#+#+#+++++X+X+Xjjjjjjjj",
"jjjjjjj7igMBBBMmmmmmmmmmmnnnggdddssssspue1$oX+X+X#+#++#+#+##;,,90wzNDZkq3,,;#;#;####+#+++X+X+XXXXXjjjjjjj",
"jjjjjjjufgnnmmMmnnmmmmmnmnnnggggdsddddspuy<%oXXX+++++#+#+##;#;399wxZGAzq83::;####+#+#+#+++X+X+X+XXjjjjjjj",
"jjjjjj7pfgfgmmmmmmmmmmmmnnggnggdddsdddsspue*oXX+X+X+++++#+#+;,330qlAHScw8,:;#;##+#+#+++#+X++XXXXXXXjjjjjj",
"jjjjjj7sfddggmmmmnmMMMMnnnnngngdsssdddddsiy1$XXXX++++#+#+#+##:3380kZJDba83:;;#;####+#+#++++X+X+X+XXjjjjjj",
"jjjjjjrdfddfggnnmmnmMmnnmnnggggfdssddddddsue*oXX+X++++++#+#+;:;,,9hbJGZk93,;;;####+#+#++++X+++X+XXXjjjjjj",
"jjjjj1rdfdddfgnmmmmmmmmmmnngffffdddddsdfdsur5*.XXX+X+++++++##;;3:9wxGJSxq8,:#;#;#+###+#+#++X+X+XXXXXjjjjj",
"jjjjj4rdfdfdfgnmmmMMMMMMmgnffffdddddffsddsute2%XX+X++X#++#+##;;;;30lDJFva8,:;#;###+#+++#++X+X+XX+XXXjjjjj",
"jjjjj6ufffddfgnmMmmMMVBmmgngfngdffdddddsspuyt5-XXX+X++++++#+##;;#:8aAJGNk93,;;#;#+#+#+#++++X++X+XXXXjjjjj",
"jjjjjrpgfddfffnmBBVVMMBMMnggdggggdfdsddspiutt72$XXXXX++X#++##;#;;:3abHHAz08::;;#;###+#+#+#+++X+XXX+Xjjjjj",
"jjjj4ysffddfffnMMMVVMMMMnngnddggdgddssspiuttr74<OX+X+++++++#+#;##:,qxHJFvw8,:;#;###+++#+#+++X++X+XXXjjjjj",
"jjjj5idffdsdfgnMMMMBMmMMnnnnffngfdssspsiuyree752*oX+X+X++X++#+##;#:9lGJGNh93,;;;#;##+#++++++++X+X+XXXjjjj",
"jjjj5idffddfdgnmMBmmmmnnnnggddfgfdddpiuuytre7774<%.XXX+++++++##;##;8hSJHSlq3,:;#;##+#++#++X++X+X+XXXXjjjj",
"jjj5epdddfddfgnmMMMmnnngnngdddddddspiuytrtee77752-%XX+X+X+++#+##;##3wNJJGca83:;;#;##++++#+++++++X+X+Xjjjj",
"jjj5risddddfgfgnmmnmmmgngffgdddfdsspuytttree777751-OXX++++X++######,0vJJHZl03,:;;####+#+++++X++XXXXXXjjjj",
"jjj4russsdddgggnnngnmngffffffddddspuytrrrree777752<%oXXX+X+++#+###+:9zGJJDxq3:,;#;##+#+#+#++++X+X+XXXjjjj",
"jj55tppsssddfggnmnnmmnfdddddfdssspiuytrereeee77752<*$.XXX+X+#++####;8hSJJJbw83::;;###++++++++X+X+X+XXjjjj",
"jj6eyipsdffgggggngfmnnngfddsdssspuuytrreeeeee65542<-*$X+XX++++#+##+#3aNGJJSh9,,::#;+##+#+++X++++XXXXXXjjj",
"jj6riissdddfgdfgngfgnmngfddsdpppuuytreeeeeee765421--*%OXXX+X+#+##+#+,qvGJJGz033,;;###+#++#++X++X+X+XXXjjj",
"jj5rissssddddddgnngnnnngdddsppiiuyttreeeeee776541---**%OX+X++++#+#++:0xGJJJcw3,::;;#+#+##++X+X++X+XX+Xjjj",
"j7erppsssppdfddggnnngngddsdsiiuuyrrreeeeee777541<-****%$oXX+X+#+#+++;9zSJJJNh8,,::#;####+#+++++++XXXXXjjj",
"j57tpppipssddffgggmndgngdddsiuyyyreee77777775541--**%**%$oXX+X+###+#;8kZHJJAl03:,:;#;##+#++#+X+X+X+XXXjjj",
"j6rripipssdffgggfdggggfpddspuytreee777655555442<**%%****%O.XX+++#+#+#3hbGJJDcw83:::;##+#+#++++X+X+X+XXjjj",
"j57ripppsdddfggngdfgndssdssiyrtreee76554444222<*****%**%*$OXX +X++++#,wxDJJGbh083,;:;####+##+++++XXXXXXjj",
"j46tuipsddggggnmngdfgdddssputrreee7555422222<<--*****%**%%$O XX++X#++:0zAHJHAzw08:;;;:::,,,,,:#+X+X+XXXjj",
"j46ruippsdfgmnMMgnnfddgdsputtere775444221111---**%*******%%%O.XXX++#+;9lAFJJAch3#+#::::,,,::,,,:#X+XXXXjj",
"j46rtyissdfgmnmMnngsddspsiyyy77766542211<<<--***%*******--%%%$OXX+X++#3hZAGJAh,X+;:;:;;;:;;:;::::#X+XXXjj"
};
